<ttFont>
<head>
    <!-- Most of this table will be recalculated by the compiler -->
    <tableVersion value="1.0"/>
    <fontRevision value="2.004"/>
    <checkSumAdjustment value="0x8768374d"/>
    <magicNumber value="0x5f0f3cf5"/>
    <flags value="00000000 00000011"/>
    <unitsPerEm value="1000"/>
    <created value="Thu Oct  8 09:57:02 2009"/>
    <modified value="Thu Oct  8 09:57:02 2009"/>
    <xMin value="-580"/>
    <yMin value="-313"/>
    <xMax value="1872"/>
    <yMax value="1146"/>
    <macStyle value="00000000 00000001"/>
    <lowestRecPPEM value="3"/>
    <fontDirectionHint value="2"/>
    <indexToLocFormat value="0"/>
    <glyphDataFormat value="0"/>
  </head>
          <CharString index="0">
            968 hmoveto
            60 -100 vlineto
            -284 618 rlineto
            29 -13 -15 0 -22 hhcurveto
            -41 hlineto
            -19 -18 0 -28 -13 hvcurveto
            -276 -603 -6 -12 -1 -1 -20 -2 rlinecurve
            -1 -11 -20 0 -11 hhcurveto
            -39 -60 hlineto
            1 22 64 3 46 hhcurveto
            147 -4 rlineto
            60 -21 vlineto
            -7 -56 0 6 hvcurveto
            5 11 57 125 rlineto
            326 hlineto
            66 -142 rlineto
            -88 -60 hlineto
            4 55 71 0 56 hhcurveto
            -187 258 rmoveto
            -272 hlineto
            136 296 rlineto
            return
          </CharString>
          <CharString index="1">
            974 626 rmoveto
            60 vlineto
            -5 -87 -4 -55 hhcurveto
            -56 -78 3 1 -14 hvcurveto
            -74 callsubr
            -371 vlineto
            -139 -113 -48 -131 -182 -29 94 89 vhcurveto
            121 callsubr
            -182 -4 rlineto
            -5 -134 1 3 -44 hvcurveto
            -60 106 -394 vlineto
            -129 113 -117 248 240 90 127 118 vhcurveto
            373 vlineto
            18 1 1 20 2 vhcurveto
            return
          </CharString>
          <CharString index="2">
            659 30 rmoveto
            30 -14 0 -26 -36 -14 3 8 -13 vhcurveto
            221 vlineto
            89 -74 74 -185 -65 -143 0 -104 -49 39 -24 33 36 36 27 45 15 -4 14 -8 13 vhcurveto
            -2 4 rlineto
            6 69 2 8 85 45 -36 -77 vhcurveto
            -21 vlineto
            -7 -1 -36 1 -56 -4 rrcurveto
            return
          </CharString>
          <CharString index="3">
            -20 -105 callgsubr
            return
          </CharString>
          <CharString index="4">
            rmoveto
            41 12 -31 42 -43 hhcurveto
            -11 -11 -3 -8 -15 hvcurveto
            -166 -98 26 -65 185 41 29 7 21 17 4 26 rlinecurve
            endchar
          </CharString>
          <CharString index="5">
            -104 callsubr
            hintmask 00110000
            return
          </CharString>
          <CharString index="6">
            hstemhm
            46 101 callgsubr
            18 118 callgsubr
            hintmask 1100001001000000
            586 113 rmoveto
            23 -22 0 -14 -16 -10 0 -13 -7 vhcurveto
            -19 -9 -29 -55 -107 hhcurveto
            -148 -30 83 72 -3 hvcurveto
            359 hlineto
            hintmask 0001000100100000
            -61 callsubr
            hintmask 1000001010000000
            -206 -83 -120 -109 -115 91 -118 216 38 55 3 24 52 hvcurveto
            hintmask 0110000100100000
            62 27 26 52 14 vvcurveto
            -100 138 rmoveto
            -296 hlineto
            69 2 25 84 118 hhcurveto
            99 47 -56 -97 5 hvcurveto
            return
          </CharString>
          <CharString index="7">
            43 -33 33 -42 -42 -32 -35 -40 -42 33 -33 41 43 32 35 39 vhcurveto
            return
          </CharString>
          <CharString index="8">
            -98 callsubr
            hintmask 00011000
            return
          </CharString>
          <CharString index="9">
            -20 -103 callgsubr
            return
          </CharString>
          <CharString index="10">
            -20 -101 callsubr
            return
          </CharString>
          <CharString index="11">
            -31 callsubr
            hintmask 1110011010000000
            852 254 rmoveto
            -71 hlineto
            -163 -33 -80 -31 -139 hhcurveto
            -199 262 76 hlineto
            70 48 -10 -90 hvcurveto
            71 260 -71 hlineto
            -90 -47 -10 -71 vhcurveto
            -76 237 188 hlineto
            hintmask 1010010100000000
            121 81 -20 -147 23 hvcurveto
            71 hlineto
            -36 227 rlineto
            -707 5 callsubr
            727 hlineto
            hintmask 0000000010000000
            return
          </CharString>
          <CharString index="12">
            rmoveto
            -175 141 -175 -141 14 -24 160 58 160 -58 rlineto
            return
          </CharString>
          <CharString index="13">
            rmoveto
            -62 117 rlineto
            13 -7 -14 27 -35 hhcurveto
            -39 -34 -36 -34 -25 16 -17 16 -12 hvcurveto
            104 -79 rlineto
            -170 46 rmoveto
            -62 117 rlineto
            13 -7 -14 27 -35 hhcurveto
            -39 -34 -36 -34 -25 16 -17 16 -12 hvcurveto
            104 -79 rlineto
            endchar
          </CharString>
          <CharString index="14">
            495 142 rmoveto
            60 -40 31 -13 11 vhcurveto
            -46 35 -47 7 -86 13 rrcurveto
            -66 9 -59 9 38 vvcurveto
            17 12 37 118 71 47 -14 -48 4 vhcurveto
            -26 2 10 0 23 hhcurveto
            29 7 2 32 hvcurveto
            66 vlineto
            19 0 15 -27 -11 -19 -8 -7 -15 vhcurveto
            15 -41 -52 0 -23 hhcurveto
            -29 -72 0 -28 -52 hvcurveto
            -62 -34 -4 -56 -17 vvcurveto
            -109 132 -19 89 -12 vhcurveto
            60 -9 76 -11 -50 vvcurveto
            -66 -107 0 -25 -66 -59 16 73 -27 vhcurveto
            21 -8 -1 2 -28 hhcurveto
            -30 -6 -3 -32 hvcurveto
            -94 vlineto
            -19 0 -15 27 11 2 0 12 20 vhcurveto
            6 3 15 10 6 3 rrcurveto
            -28 53 61 0 23 hhcurveto
            36 181 0 149 hvcurveto
            return
          </CharString>
          <CharString index="15">
            11 -21 -26 11 -24 hhcurveto
            -48 -35 -33 -43 -45 hvcurveto
            -7 -7 -19 -16 -7 -7 rrcurveto
            return
          </CharString>
          <CharString index="16">
            -20 hstemhm
            46 102 -69 122 0 107 -49 122 -72 107 0 122 6 102 -89 107 hintmask 0001000100100000
            664 387 rmoveto
            32 -26 39 -55 -26 -48 -6 -32 -50 vhcurveto
            29 -57 -60 2 -33 hhcurveto
            -179 -51 -90 -62 -57 37 -32 16 -14 hvcurveto
            -28 -34 -3 -35 -16 vvcurveto
            -25 9 -41 30 -30 vhcurveto
            hintmask 1100001001001000
            -72 callsubr
            hintmask 0010000010010100
            -24 55 57 -1 25 hhcurveto
            179 51 90 62 47 -27 32 -12 12 hvcurveto
            8 3 18 8 34 4 rrcurveto
            -1 -5 -1 -13 0 vvcurveto
            -29 20 -25 33 32 22 23 31 vhcurveto
            -248 -88 rmoveto
            hintmask 0010000100100000
            -37 -1 -63 -106 -106 -2 61 39 vhcurveto
            hintmask 1101001010010000
            37 1 63 106 106 2 -61 -39 vhcurveto
            128 -371 rmoveto
            -31 -49 -47 -149 -143 -55 43 36 10 4 39 83 vhcurveto
            hintmask 0100000001001000
            146 hlineto
            20 143 0 -50 hvcurveto
            hintmask 0000110000000000
            return
          </CharString>
          <CharString index="17">
            -9 callsubr
            hintmask 01010001
            720 71 callsubr
            352 vlineto
            hintmask 10100011
            -75 callsubr
            hintmask 00010010
            341 vlineto
            hintmask 10100010
            -66 callgsubr
            return
          </CharString>
          <CharString index="18">
            rmoveto
            55 -29 43 -45 -38 -24 -28 -34 -35 24 -28 39 15 14 6 3 4 vhcurveto
            -3 -38 -18 -45 -50 -37 rrcurveto
            return
          </CharString>
          <CharString index="19">
            -8 rlineto
            -60 vlineto
            62 -42 callgsubr
            return
          </CharString>
          <CharString index="20">
            47 -37 37 -46 -47 -36 -39 -44 -47 37 -37 46 return
          </CharString>
          <CharString index="21">
            rmoveto
            -34 38 rlineto
            hintmask 00100000
            -27 -28 -35 -23 -39 hhcurveto
            -17 -18 2 26 -47 hvcurveto
            hintmask 00010000
            -81 callsubr
          </CharString>
          <CharString index="22">
            hstemhm
            35 135 -4 135 hintmask 00010000
            686 384 rmoveto
            60 vlineto
            hintmask 00100000
            -5 -49 -4 -37 hhcurveto
            hintmask 00010000
            0 -76 1 -29 3 vhcurveto
            -60 vlineto
            hintmask 00100000
            26 3 -1 -3 16 hvcurveto
            -132 -252 rlineto
            hintmask 00010001
            -147 256 rlineto
            45 60 hlineto
            hintmask 00100001
            -1 -19 -67 -3 -49 hhcurveto
            hintmask 11010010
            -39 -65 3 1 -17 hvcurveto
            -60 69 vlineto
            222 -384 -30 -56 rlineto
            -25 -12 -37 -69 -95 hhcurveto
            -6 -3 0 2 -5 hvcurveto
            20 17 2 21 13 vvcurveto
            44 -33 23 -34 -35 -33 -22 -46 -56 52 -47 74 56 105 23 108 57 vhcurveto
            230 438 7 12 1 1 13 2 rlinecurve
            1 12 12 0 11 hhcurveto
            return
          </CharString>
          <CharString index="23">
            hintmask 00100000
            988 626 rmoveto
            60 vlineto
            hintmask 01000000
            -2 -30 -69 -2 -32 hhcurveto
            hintmask 00100000
            -150 4 rlineto
            -60 vlineto
            hintmask 01000000
            33 2 0 -4 29 hvcurveto
            -216 -257 rlineto
            hintmask 00100000
            -221 261 rlineto
            68 130 callgsubr
            -4 -52 -85 0 -54 hhcurveto
            hintmask 10100100
            -172 4 rlineto
            -60 104 vlineto
            298 -352 rlineto
            -214 0 callsubr
            215 vlineto
            285 338 9 10 1 0 23 2 rlinecurve
            1 12 18 0 12 hhcurveto
            return
          </CharString>
          <CharString index="24">
            992 136 callsubr
            vlineto
            -182 -4 rlineto
            -5 -134 1 3 -44 hvcurveto
            -60 106 -239 -403 239 106 60 vlineto
            -182 -4 rlineto
            -5 -134 1 3 -44 hvcurveto
            -60 106 -566 -12 callgsubr
            267 403 -267 -47 callgsubr
            return
          </CharString>
          <CharString index="25">
            26 callgsubr
            hintmask 10000000
            -78 callgsubr
            hintmask 01000000
            -92 callsubr
            hintmask 10000000
            34 -38 rlineto
            hintmask 01000000
            -79 callsubr
            hintmask 10000000
            -94 callgsubr
          </CharString>
          <CharString index="26">
            -92 callsubr
            hintmask 00100000
            34 -38 rlineto
            hintmask 00010000
            -79 callsubr
            hintmask 00100000
            -94 callgsubr
          </CharString>
          <CharString index="27">
            -65 callsubr
            -223 vlineto
            -111 102 -17 105 33 82 0 65 60 vhcurveto
            -65 return
          </CharString>
          <CharString index="28">
            27 28 35 23 39 hhcurveto
            17 18 -2 -26 47 hvcurveto
            return
          </CharString>
          <CharString index="29">
            571 113 rmoveto
            21 -20 0 -16 -19 -8 0 -13 -6 vhcurveto
            -21 -11 -24 -51 -97 hhcurveto
            -153 -19 108 68 89 23 85 135 25 16 0 -4 28 hvcurveto
            -9 -13 -4 -16 -16 vvcurveto
            -45 36 -27 36 33 39 24 49 102 -138 2 -65 -244 -55 -147 -86 -112 86 -117 206 31 64 2 26 51 vhcurveto
            55 29 24 51 12 vvcurveto
            return
          </CharString>
          <CharString index="30">
            102 vlineto
            -184 -88 callsubr
            -284 -90 callgsubr
            return
          </CharString>
          <CharString index="31">
            rmoveto
            -100 callsubr
            323 hmoveto
            -100 callsubr
            endchar
          </CharString>
          <CharString index="32">
            -65 callsubr
            -184 vlineto
            -87 -78 -29 -72 -95 0 22 44 vhcurveto
            return
          </CharString>
          <CharString index="33">
            -60 42 vlineto
            12 17 0 -1 12 hvcurveto
            22 -2 43 callsubr
            return
          </CharString>
          <CharString index="34">
            -13 callgsubr
            566 133 60 hlineto
            -4 -48 -105 0 -53 hhcurveto
            -6 -135 1 3 -45 hvcurveto
            -60 106 48 callsubr
            651 vlineto
            return
          </CharString>
          <CharString index="35">
            -60 -15 -34 -31 -41 vvcurveto
            -66 84 -64 216 180 120 46 87 40 -19 62 -72 29 vhcurveto
            28 -68 -57 0 -115 hhcurveto
            -56 hlineto
            -42 -10 0 15 -19 hvcurveto
            -13 10 -9 18 17 vvcurveto
            14 2 3 3 5 vhcurveto
            return
          </CharString>
          <CharString index="36">
            205 rmoveto
            49 -11 60 -63 49 vhcurveto
            38 -49 -46 21 -96 hhcurveto
            -74 -45 -43 -33 -26 hvcurveto
            93 12 49 26 41 vhcurveto
            52 35 65 27 65 hhcurveto
            26 26 -6 -13 19 hvcurveto
            -8 -4 -34 -19 -44 vvcurveto
            -45 35 -27 37 32 40 21 53 63 -43 71 -131 vhcurveto
            hintmask 11000101
            -194 -160 -115 -225 -202 85 -130 201 169 107 88 131 hvcurveto
            -152 1 rmoveto
            -86 0 -79 -125 -126 -4 113 59 95 57 62 81 117 0 -77 -87 vhcurveto
            endchar
          </CharString>
          <CharString index="37">
            -95 callsubr
            -25 265 rmoveto
            -26 -65 -185 41 -29 7 -21 17 -4 26 rlinecurve
            41 -12 31 42 43 hhcurveto
            10 12 -3 -8 15 hvcurveto
            endchar
          </CharString>
          <CharString index="38">
            -20 hstemhm
            141 callsubr
            455 83 7 133 hintmask 0010100110000000
            -24 callgsubr
            hintmask 0100000000000000
            -3 -14 -14 -1 -14 hhcurveto
            hintmask 1010001100000000
            -55 callsubr
            hintmask 0100000000000000
            -182 -4 rlineto
            hintmask 1010001110000000
            -50 callsubr
            return
          </CharString>
          <CharString index="39">
            -19 35 57 -12 83 hhcurveto
            125 18 90 24 hvcurveto
            -332 398 rmoveto
            -66 -20 -63 -166 vhcurveto
            -161 257 162 hlineto
            159 26 -56 -72 hvcurveto
            return
          </CharString>
          <CharString index="40">
            651 492 rmoveto
            44 -26 42 -41 -44 -22 -34 -33 -30 17 -29 35 -6 vhcurveto
            -10 -16 -16 -11 -18 -5 rrcurveto
            30 -54 -64 11 -63 hhcurveto
            -78 -78 -17 -48 -61 hvcurveto
            -52 -42 -29 -64 -67 vvcurveto
            -64 30 -60 51 -39 vhcurveto
            -46 62 78 -15 77 hhcurveto
            77 78 15 46 62 hvcurveto
            return
          </CharString>
          <CharString index="41">
            -4 callsubr
            29 125 0 125 21 -20 hstemhm
            46 102 -69 122 0 107 -49 122 -72 107 0 122 6 102 -89 107 hintmask 0000100000000000
            366 542 rmoveto
            35 -24 28 -39 -15 -14 -6 -3 -4 vhcurveto
            3 38 18 45 50 37 rrcurveto
            hintmask 0000011000000000
            5 3 4 3 8 vvcurveto
            9 -11 12 -9 -15 -85 -66 -107 vhcurveto
            hintmask 0001100010010000
            -55 29 -43 45 38 24 28 34 vhcurveto
            298 -155 rmoveto
            32 -26 39 -55 -26 -48 -6 -32 -50 vhcurveto
            29 -57 -60 2 -33 hhcurveto
            -179 -51 -90 -62 -57 37 -32 16 -14 hvcurveto
            -28 -34 -3 -35 -16 vvcurveto
            -25 9 -41 30 -30 vhcurveto
            hintmask 1100000100100100
            -72 callsubr
            hintmask 0010000001001010
            -24 55 57 -1 25 hhcurveto
            179 51 90 62 47 -27 32 -12 12 hvcurveto
            8 3 18 8 34 4 rrcurveto
            -1 -5 -1 -13 0 vvcurveto
            -29 20 -25 33 32 22 23 31 vhcurveto
            -248 -88 rmoveto
            hintmask 0010000010010000
            -37 -1 -63 -106 -106 -2 61 39 vhcurveto
            hintmask 1101000101001000
            37 1 63 106 106 2 -61 -39 vhcurveto
            128 -371 rmoveto
            -31 -49 -47 -149 -143 -55 43 36 10 4 39 83 vhcurveto
            hintmask 0100000000100100
            146 hlineto
            20 143 0 -50 hvcurveto
            endchar
          </CharString>
          <CharString index="42">
            -199 -88 callsubr
            return
          </CharString>
          <CharString index="43">
            766 265 rmoveto
            -71 hlineto
            -171 -16 -101 -29 -123 hhcurveto
            -174 hlineto
            466 559 rlineto
            11 13 0 4 13 vvcurveto
            32 -15 0 -21 vhcurveto
            -605 hlineto
            -14 -227 rlineto
            71 hlineto
            167 12 171 0 46 hhcurveto
            159 hlineto
            -468 -562 rlineto
            -10 -12 0 -3 -16 vvcurveto
            -32 12 -1 24 vhcurveto
            624 hlineto
            return
          </CharString>
          <CharString index="44">
            -566 0 callsubr
            258 150 vlineto
            41 38 -10 -18 26 hvcurveto
            42 -31 0 -23 -61 vvcurveto
            -76 0 -46 64 -36 vhcurveto
            return
          </CharString>
          <CharString index="45">
            77 -44 55 -59 -50 -33 -38 -45 -46 33 -38 51 18 18 4 11 14 vhcurveto
            -2 -17 -9 -84 -87 -60 rrcurveto
            return
          </CharString>
          <CharString index="46">
            21 15 0 31 32 -7 88 -71 53 hvcurveto
            47 -62 -85 0 -26 hhcurveto
            return
          </CharString>
          <CharString index="47">
            rmoveto
            -177 185 -177 -185 18 -22 158 99 158 -99 rlineto
            return
          </CharString>
          <CharString index="48">
            123 -15 140 0 140 hintmask 0100000000000000
            523 359 rmoveto
            59 -60 33 -61 vhcurveto
            hintmask 0010000100000000
            -85 -50 -63 -48 -23 hvcurveto
            -1 hlineto
            hintmask 0100000100000000
            111 vlineto
            hintmask 1001001000000000
            -45 callsubr
            return
          </CharString>
          <CharString index="49">
            458 121 rmoveto
            49 -71 -46 vlineto
            -67 -45 -8 -20 -61 0 45 26 vhcurveto
            264 175 60 -175 191 -71 vlineto
            -2 -102 -54 -95 -100 -3 rrcurveto
            -51 vlineto
            return
          </CharString>
          <CharString index="50">
            hstemhm
            149 -53 callsubr
            return
          </CharString>
          <CharString index="51">
            983 339 rmoveto
            99 -44 126 -129 71 vhcurveto
            67 82 -43 36 -75 -92 rlineto
            31 -81 -78 8 -66 hhcurveto
            -320 -130 -184 -177 -121 59 -103 112 -66 hvcurveto
            -65 -80 43 -36 74 91 rlineto
            -34 90 86 -4 50 hhcurveto
            314 136 173 180 hvcurveto
            -269 269 rmoveto
            -407 -496 rlineto
            -68 63 -2 114 50 vvcurveto
            89 0 221 296 24 85 0 -41 72 vhcurveto
            116 -269 rmoveto
            -92 -2 -210 -294 -82 -61 18 22 -39 vhcurveto
            406 496 rlineto
            72 -63 0 -131 -40 vvcurveto
            return
          </CharString>
          <CharString index="52">
            -49 -49 1 3 -50 hvcurveto
            -60 vlineto
            80 -1 rlineto
            11 -1 16 -3 0 vvcurveto
            -392 vlineto
            -54 -22 -49 -39 -30 vhcurveto
            -36 -47 -63 -14 -74 hhcurveto
            -68 -56 14 35 -40 hvcurveto
            -32 29 -14 47 58 vvcurveto
            121 callsubr
            return
          </CharString>
          <CharString index="53">
            992 626 rmoveto
            60 vlineto
            -7 -85 -4 -53 -53 -84 4 -8 hhcurveto
            -74 callsubr
            return
          </CharString>
          <CharString index="54">
            123 -55 callgsubr
            return
          </CharString>
          <CharString index="55">
            rmoveto
            123 -3 -109 67 -101 hhcurveto
            -101 -109 -67 -123 -3 hvcurveto
            51 hlineto
            86 3 97 27 62 hhcurveto
            62 97 -27 -86 3 hvcurveto
            endchar
          </CharString>
          <CharString index="56">
            rmoveto
            -239 hlineto
            -202 5 -24 1 -3 16 -1 6 rlinecurve
            -70 hlineto
            -41 -250 rlineto
            71 hlineto
            1 6 10 69 22 4 rrcurveto
            4 21 54 0 37 hhcurveto
            167 hlineto
            -85 -85 rlineto
            -68 -73 -77 -135 -147 vvcurveto
            -77 63 -2 9 19 20 6 14 13 vhcurveto
            20 22 0 18 24 vvcurveto
            1 196 28 81 75 75 return
          </CharString>
          <CharString index="57">
            -183 4 rlineto
            -60 106 -397 vlineto
            -73 41 -66 62 -40 vhcurveto
            -47 73 88 -17 99 hhcurveto
            90 80 18 46 65 hvcurveto
            58 42 35 66 71 vvcurveto
            367 vlineto
            76 14 64 50 73 vvcurveto
            return
          </CharString>
          <CharString index="58">
            113 rmoveto
            23 -22 0 -14 -23 -4 -1 -19 -8 vhcurveto
            -40 -19 -44 -27 -62 hhcurveto
            -39 -55 7 34 -43 hvcurveto
            -31 25 -16 36 -4 53 rrcurveto
            348 hlineto
            22 14 0 32 33 -6 75 -53 53 hvcurveto
            52 -53 -75 6 -44 hhcurveto
            return
          </CharString>
          <CharString index="59">
            -38 callsubr
            130 4 rlineto
            38 69 -2 -2 24 hvcurveto
            return
          </CharString>
          <CharString index="60">
            612 626 rmoveto
            60 vlineto
            -160 -4 rlineto
            -52 -105 0 4 -47 hvcurveto
            -60 138 -475 vlineto
            -75 -39 -39 -76 -5 -42 0 14 -36 vhcurveto
            4 3 23 22 38 vvcurveto
            58 -46 26 -37 -41 -43 -28 -56 -128 189 0 37 159 99 61 104 vhcurveto
            475 vlineto
            return
          </CharString>
          <CharString index="61">
            634 -7 56 155 47 153 51 -47 47 return
          </CharString>
          <CharString index="62">
            -54 callgsubr
            hintmask 0010000010000000
            1 callgsubr
            return
          </CharString>
          <CharString index="63">
            141 callgsubr
            -56 60 558 60 -56 60 hstemhm
            hintmask 10010000
            971 hmoveto
            60 -105 vlineto
            -288 324 205 229 9 10 2 0 25 2 rlinecurve
            1 13 20 0 13 hhcurveto
            49 60 hlineto
            hintmask 00100000
            -1 -19 -69 -3 -56 hhcurveto
            hintmask 00010000
            -165 4 rlineto
            -60 vlineto
            hintmask 00100000
            45 21 -3 -1 9 hvcurveto
            -157 -174 rlineto
            hintmask 00010000
            -159 178 rlineto
            66 60 hlineto
            hintmask 00100000
            -4 -52 -81 0 -54 hhcurveto
            hintmask 10010000
            -168 4 rlineto
            -60 105 vlineto
            250 -282 -243 -270 -10 -10 -1 -1 -24 -2 rlinecurve
            -1 -13 -20 0 -13 hhcurveto
            -50 -60 hlineto
            hintmask 01000000
            145 4 rlineto
            hintmask 10000000
            165 -4 rlineto
            60 vlineto
            hintmask 01000000
            -45 -21 3 1 -9 hvcurveto
            194 217 rlineto
            hintmask 10000000
            197 -221 rlineto
            -66 -60 hlineto
            hintmask 01000000
            4 55 76 0 56 hhcurveto
            hintmask 10000000
            endchar
          </CharString>
          <CharString index="64">
            963 337 rmoveto
            209 -164 140 -240 vhcurveto
            -486 -60 106 48 callsubr
            487 hlineto
            238 165 134 203 hvcurveto
            -160 2 rmoveto
            -89 0 -190 -284 vhcurveto
            -194 566 192 hlineto
            286 0 -199 -88 hvcurveto
            return
          </CharString>
          <CharString index="65">
            731 -34 callsubr
            42 60 -56 60 316 60 -56 60 128 callgsubr
            135 123 hintmask 0001001000000000
            698 0 callgsubr
            hintmask 0000010000000000
            -1 -10 -44 -3 -40 hhcurveto
            hintmask 0000001000000000
            -44 -80 3 1 -12 hvcurveto
            -60 vlineto
            hintmask 0000010011000000
            11 3 -1 -3 5 hvcurveto
            -199 -136 rlineto
            450 vlineto
            hintmask 0001000101000000
            -38 callsubr
            hintmask 0000100000000000
            1 19 65 3 42 hhcurveto
            hintmask 0001000000000000
            117 callgsubr
            hintmask 0000100000000000
            142 -144 rlineto
            hintmask 0001000000000000
            -4 -6 -2 0 -12 hhcurveto
            -60 vlineto
            hintmask 0000100000000000
            1 17 69 3 47 hhcurveto
            return
          </CharString>
          <CharString index="66">
            1236 0 60 240 60 266 60 hstemhm
            570 145 201 71 92 71 -33 71 hintmask 11111010
            1188 254 rmoveto
            -71 hlineto
            -137 -29 -47 -57 -155 hhcurveto
            -171 240 82 hlineto
            71 48 -10 -90 hvcurveto
            71 260 -71 hlineto
            -90 -48 -10 -71 vhcurveto
            -82 266 159 hlineto
            hintmask 11110100
            121 63 -28 -139 21 hvcurveto
            71 hlineto
            -36 227 rlineto
            -749 -60 56 hlineto
            -254 -550 -6 -12 -1 -1 -20 -2 rlinecurve
            -1 -11 -20 0 -11 hhcurveto
            -39 -60 hlineto
            1 22 64 3 46 49 88 -4 10 hhcurveto
            60 -21 vlineto
            -7 -56 0 6 0 1 3 4 8 hvcurveto
            103 223 rlineto
            208 -240 -80 -60 644 hlineto
            hintmask 01110010
            -564 360 rmoveto
            -180 hlineto
            123 266 rlineto
            57 hlineto
            endchar
          </CharString>
          <CharString index="67">
            285 -1 callgsubr
            return
          </CharString>
          <CharString index="68">
            1066 0 116 callgsubr
            hintmask 10010000
            999 hmoveto
            60 -50 vlineto
            -41 -2 3 7 -7 hvcurveto
            -321 343 287 202 rlineto
            8 11 5 3 60 hhcurveto
            39 60 hlineto
            hintmask 00100000
            -4 -39 -38 0 -39 hhcurveto
            hintmask 00010000
            -165 4 rlineto
            -60 vlineto
            hintmask 00101000
            23 3 0 -4 25 hvcurveto
            -420 -296 rlineto
            hintmask 00011000
            300 106 60 vlineto
            hintmask 00100000
            -182 -4 rlineto
            hintmask 10011000
            37 callsubr
            hintmask 01000000
            182 4 rlineto
            hintmask 10001000
            78 callgsubr
            179 vlineto
            140 98 rlineto
            hintmask 01000000
            255 -273 rlineto
            hintmask 10000000
            -4 -22 -2 0 -18 hhcurveto
            -17 -60 hlineto
            hintmask 01000000
            4 55 72 0 56 hhcurveto
            hintmask 10000000
            endchar
          </CharString>
          <CharString index="69">
            -192 -88 callsubr
            -527 -69 -60 vlineto
            return
          </CharString>
          <CharString index="70">
            201 rmoveto
            101 -77 110 -186 -38 -57 -5 -28 -50 vhcurveto
            114 vlineto
            -3 23 47 -2 9 hhcurveto
            49 67 11 37 63 hvcurveto
            18 11 79 53 32 vvcurveto
            18 -9 8 -12 vhcurveto
            0 -4 0 -14 -5 vhcurveto
            hintmask 0000100000100000
            -19 -63 -60 -8 -57 hhcurveto
            hintmask 0000010001000000
            -68 -58 11 17 -56 hvcurveto
            -12 4 -4 0 0 vvcurveto
            hintmask 0000000100000000
            -21 0 -20 -14 hvcurveto
            -298 vlineto
            hintmask 0011001000110000
            -26 2 -10 32 20 1 1 12 11 vhcurveto
            43 39 57 15 61 hhcurveto
            115 0 -91 -63 hvcurveto
            hintmask 1100000010000000
            -64 0 -102 -151 -42 -56 12 33 -34 vhcurveto
            hintmask 0010000000000000
            40 15 8 37 18 vvcurveto
            hintmask 1100001001010000
            40 -29 36 -47 -42 -34 -29 -48 -96 97 -73 142 204 97 103 112 vhcurveto
            endchar
          </CharString>
          <CharString index="71">
            -116 -59 -35 -44 -81 0 92 58 60 0 91 81 48 55 -41 -109 vhcurveto
            return
          </CharString>
          <CharString index="72">
            2 0 2 -1 1 vhcurveto
            -18 72 -30 68 -42 61 42 61 30 68 18 71 rrcurveto
            1 2 0 2 2 vvcurveto
            11 -9 10 -12 vhcurveto
            -9 hlineto
            -8 -8 -5 -7 -3 hvcurveto
            -37 -80 -58 -68 -72 -50 rrcurveto
            -5 -4 -4 -6 -7 vvcurveto
            -7 4 -7 5 -3 vhcurveto
            72 -50 58 -69 37 -79 rrcurveto
            -7 3 8 -5 8 hhcurveto
            9 hlineto
            12 9 9 12 hvcurveto
            return
          </CharString>
          <CharString index="73">
            -292 -21 21 125 0 125 return
          </CharString>
          <CharString index="74">
            694 -91 -21 105 51 360 51 102 -20 hstemhm
            46 130 -86 130 296 130 hintmask 00111000
            646 218 rmoveto
            43 -13 97 -111 60 vhcurveto
            80 109 -42 30 -87 -119 rlineto
            6 -21 -47 11 -59 hhcurveto
            -216 -84 -124 -113 -81 45 -72 80 -37 hvcurveto
            hintmask 11000110
            -81 -110 42 -30 88 121 rlineto
            -14 51 46 -2 29 hhcurveto
            212 88 112 113 hvcurveto
            -210 171 rmoveto
            -223 -304 rlineto
            hintmask 01101010
            -36 32 -1 55 47 vvcurveto
            73 0 112 170 25 33 -2 -13 32 vhcurveto
            80 -170 rmoveto
            -74 0 -101 -170 -11 -43 0 13 -36 vhcurveto
            223 303 rlineto
            36 -37 1 -58 -46 vvcurveto
            endchar
          </CharString>
          <CharString index="75">
            47 36 39 44 return
          </CharString>
          <CharString index="76">
            16 callsubr
            148 71 -33 71 return
          </CharString>
          <CharString index="77">
            -28 callsubr
            hintmask 00110000
            return
          </CharString>
          <CharString index="78">
            994 0 115 534 51 hstem
            84 167 490 167 vstem
            923 198 rmoveto
            -71 hlineto
            -80 -16 -1 -3 -71 hhcurveto
            -76 hlineto
            11 20 15 25 75 76 rrcurveto
            79 79 40 66 75 vvcurveto
            109 -101 135 -311 -312 -100 -136 -108 -86 54 -69 69 -70 vhcurveto
            71 -71 15 -27 11 -18 rrcurveto
            -76 hlineto
            -71 -1 3 80 -16 hvcurveto
            -71 hlineto
            43 -198 rlineto
            234 hlineto
            20 16 0 30 75 -38 82 -31 67 hvcurveto
            -31 66 -31 66 71 vvcurveto
            144 116 48 129 139 106 -55 -137 -71 -31 -66 -30 -66 vhcurveto
            -32 -68 -38 -81 -75 vvcurveto
            -30 16 0 20 vhcurveto
            234 hlineto
            endchar
          </CharString>
          <CharString index="79">
            hintmask 11000000
            -49 callgsubr
            return
          </CharString>
          <CharString index="80">
            181 rmoveto
            65 -46 74 -126 32 vhcurveto
            67 25 67 53 84 vvcurveto
            78 -84 66 -168 vhcurveto
            hintmask 0000000100000000
            -145 -89 -66 -89 hvcurveto
            hintmask 0000010010000000
            -53 40 -26 38 vhcurveto
            hintmask 0001000100000000
            40 38 29 49 hvcurveto
            hintmask 0010011001000000
            49 -38 20 -8 3 vhcurveto
            12 16 42 22 61 hhcurveto
            89 18 -46 -46 -79 -57 -57 -57 -3 hvcurveto
            hintmask 0000100000000000
            -61 -3 rlineto
            -20 -1 -10 -6 -19 vvcurveto
            hintmask 1110000000000000
            -30 callgsubr
          </CharString>
          <CharString index="81">
            769 -7 -3 callsubr
            return
          </CharString>
          <CharString index="82">
            -13 rmoveto
            65 -46 74 -126 32 vhcurveto
            67 25 67 53 84 vvcurveto
            78 -84 66 -168 vhcurveto
            hintmask 0000001000000000
            -145 -89 -66 -89 hvcurveto
            hintmask 0001000100000000
            -53 40 -26 38 vhcurveto
            hintmask 0010101010000000
            40 38 29 49 49 -38 20 -8 3 hvcurveto
            12 16 42 22 61 hhcurveto
            89 18 -46 -46 -79 -57 -57 -57 -3 hvcurveto
            hintmask 0001000000000000
            -61 -3 rlineto
            -20 -1 -10 -6 -19 vvcurveto
            hintmask 1110010001000000
            -30 callgsubr
          </CharString>
          <CharString index="83">
            1032 -14 59 599 56 return
          </CharString>
          <CharString index="84">
            130 -78 72 -99 -112 -86 -76 -125 -130 89 -72 109 103 74 76 125 vhcurveto
            return
          </CharString>
          <CharString index="85">
            974 0 60 271 51 244 60 hstemhm
            183 138 190 152 36 152 -123 160 hintmask 10111100
            888 188 rmoveto
            85 -82 70 -143 16 vhcurveto
            131 25 57 63 65 vvcurveto
            96 -108 78 -181 vhcurveto
            -485 -60 106 48 callsubr
            521 hlineto
            hintmask 01111010
            187 103 87 101 hvcurveto
            -189 323 rmoveto
            -48 -36 -81 -152 vhcurveto
            -190 244 229 hlineto
            hintmask 11010100
            114 35 -65 -50 hvcurveto
            29 -321 rmoveto
            -79 -67 -51 -109 vhcurveto
            -231 271 249 hlineto
            hintmask 00000010
            105 53 -64 -77 hvcurveto
            endchar
          </CharString>
          <CharString index="86">
            -192 -88 callsubr
            -178 vlineto
            18 -29 -54 24 -78 hhcurveto
            -194 -100 -106 -124 -119 93 -109 187 73 57 23 25 38 hvcurveto
            -48 vlineto
            return
          </CharString>
          <CharString index="87">
            -101 callgsubr
            12 161 25 callsubr
            hintmask 01010000
            -79 callsubr
            hintmask 00100000
            -94 callgsubr
          </CharString>
          <CharString index="88">
            hstemhm
            -22 callgsubr
            return
          </CharString>
          <CharString index="89">
            431 72 callsubr
            hstemhm
            150 123 -7 123 -10 141 hintmask 11110000
            520 605 rmoveto
            47 -42 49 -91 -108 -129 -40 -126 vhcurveto
            -91 -90 -60 90 50 callgsubr
            324 137 60 vlineto
            hintmask 01101000
            -144 90 hlineto
            17 0 42 30 28 vhcurveto
            23 26 35 6 23 hhcurveto
            11 0 -2 0 0 0 -2 -2 -4 hvcurveto
            hintmask 00000100
            -7 38 callgsubr
            endchar
          </CharString>
          <CharString index="90">
            -5 -3 -4 -3 -8 vvcurveto
            return
          </CharString>
          <CharString index="91">
            -27 -29 -20 -36 -32 -76 callgsubr
            -39 -31 37 42 15 hvcurveto
            5 16 9 14 12 11 rrcurveto
            269 14 123 163 174 vvcurveto
            -167 17 rmoveto
            -65 -7 -92 -53 -66 vhcurveto
            -67 -55 -81 -20 -68 hhcurveto
            -79 -71 26 51 -45 hvcurveto
            -60 66 -9 95 72 vvcurveto
            33 0 113 64 67 vhcurveto
            65 63 81 11 56 hhcurveto
            71 71 -18 -55 55 hvcurveto
            65 -66 2 -106 -44 vvcurveto
            return
          </CharString>
          <CharString index="92">
            23 14 14 20 30 vvcurveto
            45 -35 27 -37 -32 -40 -21 -53 -134 165 0 26 184 153 115 227 vhcurveto
            -154 99 rmoveto
            -58 -36 -94 -103 vhcurveto
            return
          </CharString>
          <CharString index="93">
            646 218 rmoveto
            114 -85 123 -215 -216 -84 -124 -113 -103 73 -100 168 -19 vhcurveto
            -31 -30 -25 -39 -36 -76 callgsubr
            -38 -31 37 42 14 hvcurveto
            7 19 12 17 15 12 rrcurveto
            191 10 80 106 108 vvcurveto
            -144 12 rmoveto
            -84 0 -97 -156 -156 0 97 84 79 0 95 156 156 0 -95 -79 vhcurveto
            return
          </CharString>
          <CharString index="94">
            -324 -9 callgsubr
            return
          </CharString>
          <CharString index="95">
            225 rmoveto
            68 -17 70 -52 43 vhcurveto
            50 -59 -80 8 -77 hhcurveto
            -77 -80 -8 -50 -59 hvcurveto
            -52 -43 -17 -70 -68 vvcurveto
            -68 17 -70 52 -43 vhcurveto
            -50 59 80 -8 77 hhcurveto
            77 80 8 50 59 hvcurveto
            52 43 17 70 68 vvcurveto
            -144 hmoveto
            -50 -4 -52 -30 -41 vhcurveto
            -32 -25 -41 -13 -41 hhcurveto
            -41 -41 13 32 -25 hvcurveto
            -30 41 -4 52 50 vvcurveto
            50 4 52 30 41 vhcurveto
            32 25 41 13 41 hhcurveto
            41 41 -13 -32 25 hvcurveto
            30 -41 4 -52 -50 vvcurveto
            endchar
          </CharString>
          <CharString index="96">
            694 -7 56 355 51 return
          </CharString>
          <CharString index="97">
            222 rmoveto
            -71 hlineto
            -2 -12 -9 -64 -22 -3 rrcurveto
            -4 -20 -47 0 -34 hhcurveto
            -138 hlineto
            10 7 24 16 9 7 167 113 -18 -22 56 41 rrcurveto
            55 41 40 47 69 vvcurveto
            123 -115 77 -174 -156 -95 -55 -93 -60 48 -21 31 38 42 26 54 24 -9 26 -24 15 vhcurveto
            24 40 47 0 11 hhcurveto
            100 63 -61 -80 -79 -63 -66 -63 -51 hvcurveto
            -247 -200 rlineto
            -14 -11 0 -5 -20 vvcurveto
            -25 504 vlineto
            endchar
          </CharString>
          <CharString index="98">
            hstemhm
            -28 callgsubr
            return
          </CharString>
          <CharString index="99">
            1049 0 60 253 60 253 60 hstem
            80 callgsubr
            478 160 cntrmask 11100000
            963 337 rmoveto
            209 -164 140 -240 vhcurveto
            -486 -60 106 -253 -106 -60 106 -253 -106 -60 487 hlineto
            238 165 134 203 hvcurveto
            -160 2 rmoveto
            -89 0 -190 -284 vhcurveto
            -194 253 199 60 -199 253 126 callgsubr
          </CharString>
          <CharString index="100">
            318 rmoveto
            144 -25 196 -260 -261 -24 -198 -142 -144 26 -188 259 260 25 190 142 vhcurveto
            -144 13 rmoveto
            hintmask 10001100
            -61 0 -77 -10 -54 vhcurveto
            -91 -17 -76 -11 -38 hhcurveto
            -34 -81 10 92 -16 hvcurveto
            hintmask 01110100
            -10 54 0 70 68 vvcurveto
            63 0 79 11 47 vhcurveto
            74 19 70 13 41 hhcurveto
            36 79 -10 -84 16 hvcurveto
            hintmask 01000010
            10 -52 0 -64 -66 vvcurveto
            endchar
          </CharString>
          <CharString index="101">
            936 0 60 228 55 283 60 hstem
            80 callgsubr
            358 167 vstem
            850 485 rmoveto
            110 -112 91 -196 vhcurveto
            -469 -60 106 48 callsubr
            hlineto
            71 callgsubr
            228 222 vlineto
            156 140 73 124 hvcurveto
            -167 hmoveto
            -62 -2 -80 -171 vhcurveto
            -185 283 186 hlineto
            169 3 -78 -63 hvcurveto
            endchar
          </CharString>
          <CharString index="102">
            260 569 rmoveto
            -100 callsubr
            323 hmoveto
            -100 callsubr
            return
          </CharString>
          <CharString index="103">
            694 -202 52 128 112 57 52 200 52 return
          </CharString>
          <CharString index="104">
            51 -44 -20 callgsubr
            return
          </CharString>
          <CharString index="105">
            186 rmoveto
            -100 callsubr
            323 hmoveto
            -100 callsubr
            return
          </CharString>
          <CharString index="106">
            424 305 rmoveto
            36 -119 338 vlineto
            18 -3 3 -23 vhcurveto
            -12 hlineto
            -38 -59 -91 0 -15 hhcurveto
            -18 -36 18 hlineto
            15 44 1 12 49 hvcurveto
            -298 -121 -36 vlineto
            return
          </CharString>
          <CharString index="107">
            -106 -60 vlineto
            179 4 179 -4 rlineto
            60 -106 return
          </CharString>
          <CharString index="108">
            768 -7 67 -63 47 311 68 -40 68 -28 68 -48 68 0 67 return
          </CharString>
          <CharString index="109">
            97 -264 hlineto
            -103 90 -24 83 75 79 36 92 vhcurveto
            return
          </CharString>
          <CharString index="110">
            394 50 callsubr
            94 14 callsubr
            endchar
          </CharString>
          <CharString index="111">
            666 rmoveto
            22 -18 17 -21 -12 -11 -5 -8 -7 vhcurveto
            -555 -647 rlineto
            -5 -6 -4 -9 -10 vvcurveto
            -22 return
          </CharString>
          <CharString index="112">
            -60 106 69 callsubr
            return
          </CharString>
          <CharString index="113">
            hmoveto
            60 -69 -11 callgsubr
            return
          </CharString>
          <CharString index="114">
            hmoveto
            60 -118 95 118 60 -118 414 vlineto
            30 -5 6 -31 vhcurveto
            -37 hlineto
            -27 -1 -2 -15 -13 hvcurveto
            -368 -433 rlineto
            -60 343 -95 -131 -60 vlineto
            4 49 97 0 53 hhcurveto
            57 76 0 -4 56 hvcurveto
            -242 215 rmoveto
            -281 hlineto
            281 331 rlineto
            endchar
          </CharString>
          <CharString index="115">
            1047 -14 60 580 return
          </CharString>
          <CharString index="116">
            rmoveto
            -26 callgsubr
            return
          </CharString>
          <CharString index="117">
            720 6 callsubr
            return
          </CharString>
          <CharString index="118">
            51 67 -3 -1 16 hvcurveto
            60 -69 171 vlineto
            -20 31 52 -24 71 hhcurveto
            188 106 103 127 hvcurveto
            -144 -1 rmoveto
            -117 -71 -61 -91 -66 -49 36 40 -27 vhcurveto
            194 vlineto
            20 1 1 16 14 vhcurveto
            43 53 63 3 21 hhcurveto
            93 57 -67 -106 hvcurveto
            endchar
          </CharString>
          <CharString index="119">
            84 167 528 167 return
          </CharString>
          <CharString index="120">
            1 vlineto
            5 -4 5 -2 4 vhcurveto
            -18 33 rlineto
            43 -23 -18 64 -52 hhcurveto
            -6 hlineto
            -34 -5 -32 -32 -34 vvcurveto
            -27 21 -18 20 -15 vhcurveto
            80 -60 rlineto
            -3 4 5 -6 6 hhcurveto
            1 hlineto
            5 1 4 5 4 3 28 24 rcurveline
            4 3 6 4 1 5 rrcurveto
            return
          </CharString>
          <CharString index="121">
            186 hintmask 01110000
            280 416 rmoveto
            46 -33 38 -51 -18 -18 -4 -11 -14 vhcurveto
            2 17 9 84 87 60 rrcurveto
            9 6 5 3 12 vvcurveto
            12 -15 15 -12 -20 -117 -86 -143 vhcurveto
            hintmask 10010000
            -77 44 -55 59 50 33 38 45 vhcurveto
            return
          </CharString>
          <CharString index="122">
            37 -35 34 -37 vhcurveto
            -7 hlineto
            -33 -7 -13 -23 -13 -26 rrcurveto
            -14 -27 -37 -55 -15 vvcurveto
            -1 vlineto
            -5 5 -4 4 -3 vhcurveto
            30 -26 rlineto
            -3 4 4 -5 5 hhcurveto
            1 hlineto
            4 5 4 3 3 hvcurveto
            83 62 rlineto
            20 14 21 18 28 vvcurveto
            return
          </CharString>
          <CharString index="123">
            -19 callsubr
            194 71 return
          </CharString>
          <CharString index="124">
            -65 65 -37 98 91 120 44 121 vhcurveto
            return
          </CharString>
          <CharString index="125">
            -46 37 -24 33 33 37 24 46 vhcurveto
            return
          </CharString>
          <CharString index="126">
            rmoveto
            39 -40 0 -11 vhcurveto
            -797 hlineto
            -11 -40 0 -39 -40 40 0 11 hvcurveto
            797 hlineto
            12 39 0 40 hvcurveto
            return
          </CharString>
          <CharString index="127">
            121 81 -20 -147 23 hvcurveto
            71 hlineto
            -36 227 rlineto
            -707 5 callsubr
            525 hlineto
            -40 -32 -20 -34 91 callsubr
            rrcurveto
            return
          </CharString>
          <CharString index="128">
            30 callgsubr
            -563 403 rmoveto
            return
          </CharString>
          <CharString index="129">
            hvcurveto
            -92 -90 -60 90 -13 callsubr
            60 -69 324 270 -13 callsubr
            60 -69 324 return
          </CharString>
          <CharString index="130">
            60 229 162 -111 60 -17 60 return
          </CharString>
          <CharString index="131">
            -44 -4 -40 3 -43 -3 rrcurveto
            -51 vlineto
            return
          </CharString>
          <CharString index="132">
            -32 callgsubr
            hintmask 00010000
            -92 callsubr
            hintmask 00100000
            34 -38 rlineto
            return
          </CharString>
          <CharString index="133">
            41 callsubr
            -52 vlineto
            return
          </CharString>
          <CharString index="134">
            341 55 callgsubr
            return
          </CharString>
          <CharString index="135">
            44 callgsubr
            36 callgsubr
            return
          </CharString>
          <CharString index="136">
            149 124 149 return
          </CharString>
          <CharString index="137">
            71 vlineto
            12 18 18 26 8 10 rrcurveto
            -42 50 59 -19 65 hhcurveto
            192 103 105 125 hvcurveto
            -144 1 rmoveto
            -56 0 -124 -161 -84 -45 56 21 -14 vhcurveto
            214 vlineto
            return
          </CharString>
          <CharString index="138">
            130 4 rlineto
            return
          </CharString>
          <CharString index="139">
            -20 -10 -20 -11 -17 -14 -54 -44 rcurveline
            hintmask 10010000
            14 -17 rlineto
            41 49 53 30 51 hhcurveto
            40 29 -17 -20 35 hvcurveto
            -17 29 31 -17 40 hhcurveto
            hintmask 01000000
            25 26 8 10 22 hvcurveto
            return
          </CharString>
          <CharString index="140">
            -69 -60 vlineto
            31 callsubr
            return
          </CharString>
          <CharString index="141">
            82 108 callsubr
            return
          </CharString>
          <CharString index="142">
            vlineto
            -14 0 -30 30 31 0 29 15 vhcurveto
            return
          </CharString>
          <CharString index="143">
            rmoveto
            -36 callsubr
            return
          </CharString>
          <CharString index="144">
            -5 -134 1 3 -44 hvcurveto
            -60 106 62 callsubr
            return
          </CharString>
          <CharString index="145">
            58 callgsubr
            175 60 -60 68 return
          </CharString>
          <CharString index="146">
            rmoveto
            42 -33 28 -40 -37 -37 -25 -43 -12 3 -11 1 -12 vhcurveto
            9 -51 35 -200 rlineto
            51 hlineto
            39 226 rlineto
            3 18 6 20 20 vvcurveto
            endchar
          </CharString>
          <CharString index="147">
            rmoveto
            36 5 -32 29 -38 hhcurveto
            -38 -32 -29 -36 5 hvcurveto
            29 -215 rlineto
            72 hlineto
            return
          </CharString>
          <CharString index="148">
            36 callgsubr
            -82 3 rlineto
            return
          </CharString>
          <CharString index="149">
            506 43 callgsubr
            return
          </CharString>
          <CharString index="150">
            1 -1 -18 vvcurveto
            return
          </CharString>
          <CharString index="151">
            -26 callgsubr
            endchar
          </CharString>
          <CharString index="152">
            18 callgsubr
            79 callgsubr
            return
          </CharString>
          <CharString index="153">
            72 -21 165 -20 hstemhm
            return
          </CharString>
          <CharString index="154">
            167 0 167 return
          </CharString>
          <CharString index="155">
            -566 -106 -60 return
          </CharString>
          <CharString index="156">
            946 338 rmoveto
            189 -136 173 -295 -294 -137 -173 -189 -171 118 -161 263 -18 vhcurveto
            return
          </CharString>
          <CharString index="157">
            333 47 callsubr
            27 -20 hstemhm
            return
          </CharString>
          <CharString index="158">
            rmoveto
            -14 17 rlineto
            -41 -49 -53 -30 -51 hhcurveto
            -40 -29 17 20 -35 hvcurveto
            17 -29 -31 17 -40 hhcurveto
            hintmask 00100000
            -25 -26 -8 -10 -22 hvcurveto
            return
          </CharString>
          <CharString index="159">
            1077 -34 callsubr
            28 111 callsubr
            503 153 return
          </CharString>
          <CharString index="160">
            108 -70 93 300 93 -70 108 hintmask 01011000
            return
          </CharString>
          <CharString index="161">
            -199 -8 rlineto
            -60 vlineto
            return
          </CharString>
          <CharString index="162">
            -152 rmoveto
            60 callsubr
            return
          </CharString>
          <CharString index="163">
            -103 -113 -13 -88 -69 78 -33 78 hvcurveto
            hintmask 0100000000000000
            118 135 0 69 39 hvcurveto
            -41 93 91 -45 100 hhcurveto
            return
          </CharString>
          <CharString index="164">
            551 -7 51 66 46 253 46 return
          </CharString>
          <CharString index="165">
            994 -14 60 594 60 return
          </CharString>
          <CharString index="166">
            hlineto
            77 213 rlineto
            6 15 0 2 5 vvcurveto
            22 -17 18 -23 -27 -9 -25 -7 -3 vhcurveto
            -88 -243 rlineto
            return
          </CharString>
          <CharString index="167">
            82 callgsubr
            121 callgsubr
            return
          </CharString>
          <CharString index="168">
            469 165 115 hstem
            55 359 vstem
            414 165 rmoveto
            115 -359 -115 vlineto
            endchar
          </CharString>
          <CharString index="169">
            48 callsubr
            vlineto
            return
          </CharString>
          <CharString index="170">
            rmoveto
            -23 callsubr
            return
          </CharString>
          <CharString index="171">
            59 callgsubr
            239 60 return
          </CharString>
          <CharString index="172">
            28 callgsubr
            hstemhm
            146 return
          </CharString>
          <CharString index="173">
            hlineto
            -17 -13 -13 -17 -17 13 -13 17 hvcurveto
            return
          </CharString>
          <CharString index="174">
            354 93 callsubr
            return
          </CharString>
          <CharString index="175">
            60 437 60 102 55 return
          </CharString>
          <CharString index="176">
            -559 -106 -60 return
          </CharString>
          <CharString index="177">
            5 callsubr
            hlineto
            3 46 135 1 5 hhcurveto
            53 105 0 -4 48 hvcurveto
            60 -133 return
          </CharString>
          <CharString index="178">
            hmoveto
            60 vlineto
            -62 -7 0 39 hvcurveto
            return
          </CharString>
          <CharString index="179">
            0 148 callsubr
            206 51 return
          </CharString>
          <CharString index="180">
            957 0 149 callgsubr
            return
          </CharString>
          <CharString index="181">
            111 callgsubr
            -47 76 57 86 hvcurveto
            113 hlineto
            return
          </CharString>
          <CharString index="182">
            -36 callsubr
            endchar
          </CharString>
          <CharString index="183">
            -39 callgsubr
            60 77 return
          </CharString>
          <CharString index="184">
            17 13 13 17 17 -13 13 -17 hvcurveto
            return
          </CharString>
          <CharString index="185">
            hstemhm
            114 166 -131 123 return
          </CharString>
          <CharString index="186">
            131 callsubr
            hintmask 01000000
            return
          </CharString>
          <CharString index="187">
            123 -15 140 0 140 hintmask 01000000
            523 359 rmoveto
            59 -60 33 -61 vhcurveto
            return
          </CharString>
          <CharString index="188">
            761 -95 callsubr
            return
          </CharString>
          <CharString index="189">
            -105 -133 -60 vlineto
            4 49 100 0 53 hhcurveto
            53 100 0 -4 49 hvcurveto
            60 -133 return
          </CharString>
          <CharString index="190">
            vmoveto
            86 callgsubr
          </CharString>
          <CharString index="191">
            -14 55 140 50 91 55 -25 150 -128 50 0 150 34 50 hstemhm
            return
          </CharString>
          <CharString index="192">
            7 12 30 13 44 hhcurveto
            64 13 -27 -28 -47 -41 -35 -41 -1 hvcurveto
            -44 -2 rlineto
            return
          </CharString>
          <CharString index="193">
            122 callgsubr
            102 166 79 167 return
          </CharString>
          <CharString index="194">
            663 718 rlineto
            11 12 4 11 9 vvcurveto
            return
          </CharString>
          <CharString index="195">
            vlineto
            hintmask 10000000
            -60 vlineto
            hintmask 01000000
            return
          </CharString>
          <CharString index="196">
            994 14 -21 391 60 return
          </CharString>
          <CharString index="197">
            619 0 56 337 51 return
          </CharString>
          <CharString index="198">
            -43 98 callsubr
            return
          </CharString>
          <CharString index="199">
            -226 105 callgsubr
            vhcurveto
            return
          </CharString>
          <CharString index="200">
            -21 27 69 callgsubr
            return
          </CharString>
          <CharString index="201">
            156 -78 156 102 150 return
          </CharString>
          <CharString index="202">
            -14 55 277 52 0 52 28 return
          </CharString>
          <CharString index="203">
            177 78 553 78 return
          </CharString>
          <CharString index="204">
            67 -21 207 -20 hstemhm
            return
          </CharString>
          <CharString index="205">
            -40 callgsubr
            7 10 -9 20 -8 8 return
          </CharString>
          <CharString index="206">
            39 -33 33 -39 -40 -32 -33 -39 -40 32 -32 40 39 33 32 40 vhcurveto
            return
          </CharString>
          <CharString index="207">
            hstemhm
            91 callgsubr
            return
          </CharString>
          <CharString index="208">
            144 -144 154 262 154 -144 144 hintmask 11110010
            return
          </CharString>
          <CharString index="209">
            hmoveto
            60 -69 393 vlineto
            -174 -6 rlineto
            -4 -10 0 -2 -4 hvcurveto
            return
          </CharString>
          <CharString index="210">
            68 callgsubr
            403 153 vstem
            992 hmoveto
            60 -106 return
          </CharString>
          <CharString index="211">
            -64 -39 -54 -32 29 -15 27 29 27 17 30 29 -27 12 -6 2 return
          </CharString>
          <CharString index="212">
            hhcurveto
            -41 -16 -30 -25 -29 20 -27 37 21 24 9 10 20 hvcurveto
            return
          </CharString>
          <CharString index="213">
            769 -7 51 -44 60 340 51 return
          </CharString>
          <CharString index="214">
            1065 43 callgsubr
            return
          </CharString>
          <CharString index="215">
            131 callgsubr
            hstemhm
            return
          </CharString>
          <CharString index="216">
            186 93 186 return
          </CharString>
          <CharString index="217">
            -25 -19 -4 -25 -15 vvcurveto
            -42 30 -32 44 41 33 28 47 return
          </CharString>
          <CharString index="218">
            12 callgsubr
            hstemhm
            84 167 return
          </CharString>
          <CharString index="219">
            hstemhm
            46 101 callgsubr
            37 145 -100 100 -31 100 return
          </CharString>
          <CharString index="220">
            769 76 callgsubr
            return
          </CharString>
          <CharString index="221">
            1368 21 -21 22 -21 210 79 210 -20 return
          </CharString>
          <CharString index="222">
            124 callsubr
            hvcurveto
            return
          </CharString>
          <CharString index="223">
            -56 51 301 51 0 51 194 50 57 51 hstemhm
            return
          </CharString>
          <CharString index="224">
            47 74 47 hstem
            -486 80 136 80 vstem
            -270 return
          </CharString>
          <CharString index="225">
            206 97 callgsubr
            return
          </CharString>
          <CharString index="226">
            133 -89 167 return
          </CharString>
          <CharString index="227">
            hstemhm
            131 130 return
          </CharString>
          <CharString index="228">
            397 106 60 vlineto
            return
          </CharString>
          <CharString index="229">
            713 223 rmoveto
            114 -87 114 -193 return
          </CharString>
          <CharString index="230">
            962 148 rmoveto
            -72 hlineto
            -60 -76 -13 -70 vhcurveto
            return
          </CharString>
          <CharString index="231">
            -47 -36 -39 -44 -47 37 -37 46 -32 callsubr
            return
          </CharString>
          <CharString index="232">
            29 81 0 63 38 37 -6 -11 37 vhcurveto
            endchar
          </CharString>
          <CharString index="233">
            81 108 callsubr
            return
          </CharString>
          <CharString index="234">
            -211 77 113 -20 return
          </CharString>
          <CharString index="235">
            21 -21 454 -20 hstem
            return
          </CharString>
          <CharString index="236">
            29 52 333 50 hstemhm
            return
          </CharString>
          <CharString index="237">
            -21 203 -20 return
          </CharString>
          <CharString index="238">
            94 -44 94 hstemhm
            return
          </CharString>
          <CharString index="239">
            -26 -11 -19 -26 -30 vvcurveto
            -39 32 -33 40 vhcurveto
            return
          </CharString>
          <CharString index="240">
            -11 callsubr
            hstem
            46 144 return
          </CharString>
          <CharString index="241">
            58 callsubr
            hstem
            84 167 return
          </CharString>
          <CharString index="242">
            40 32 33 39 124 -133 69 -137 return
          </CharString>
          <CharString index="243">
            hmoveto
            60 -106 566 106 60 return
          </CharString>
          <CharString index="244">
            65 130 callsubr
            hstemhm
            46 return
          </CharString>
          <CharString index="245">
            -420 166 vstem
            -254 return
          </CharString>
          <CharString index="246">
            hstemhm
            96 callsubr
            return
          </CharString>
          <CharString index="247">
            1065 0 60 return
          </CharString>
          <CharString index="248">
            176 153 return
          </CharString>
          <CharString index="249">
            29 -20 27 -37 -21 -24 -9 -10 -20 vhcurveto
            return
          </CharString>
          <CharString index="250">
            544 -7 56 335 60 191 -20 return
          </CharString>
          <CharString index="251">
            4 57 -40 -21 360 60 44 -20 hstemhm
            return
          </CharString>
          <CharString index="252">
            894 -65 -21 673 -20 hstem
            797 return
          </CharString>
          <CharString index="253">
            vvcurveto
            -43 0 -5 36 29 6 3 31 vhcurveto
            return
          </CharString>
          <CharString index="254">
            0 760 -21 207 -20 hstem
            -160 return
          </CharString>
          <CharString index="255">
            60 324 60 return
          </CharString>
          <CharString index="256">
            -21 113 77 return
          </CharString>
        <CharString name=".notdef">
          280 endchar
        </CharString>
        <CharString name="A">
          -39 callgsubr
          hstem
          -107 callsubr
          endchar
        </CharString>
        <CharString name="AE">
          -41 callsubr
        </CharString>
        <CharString name="AE.dup">
          -41 callsubr
        </CharString>
        <CharString name="AEacute">
          1236 0 60 240 60 266 60 34 callsubr
          570 145 201 71 92 71 -33 71 hintmask 1110011010000000
          1188 254 rmoveto
          -71 hlineto
          -137 -29 -47 -57 -155 hhcurveto
          -171 240 82 hlineto
          71 48 -10 -90 hvcurveto
          71 260 -71 hlineto
          -90 -48 -10 -71 vhcurveto
          -82 266 159 hlineto
          hintmask 1110010100000000
          121 63 -28 -139 21 hvcurveto
          71 hlineto
          -36 227 rlineto
          -749 -60 56 hlineto
          -254 -550 -6 -12 -1 -1 -20 -2 rlinecurve
          -1 -11 -20 0 -11 hhcurveto
          -39 -60 hlineto
          1 22 64 3 46 49 88 -4 10 hhcurveto
          60 -21 vlineto
          -7 -56 0 6 0 1 3 4 8 hvcurveto
          103 223 rlineto
          208 -240 -80 -60 644 hlineto
          hintmask 0110010010000000
          -564 360 rmoveto
          -180 hlineto
          123 266 rlineto
          57 hlineto
          hintmask 0001100000000000
          224 212 -103 callsubr
        </CharString>
        <CharString name="Aacute">
          -39 callgsubr
          81 -21 174 -99 callsubr
          212 280 -103 callsubr
        </CharString>
        <CharString name="Abreve">
          76 callsubr
          113 -99 callsubr
          249 379 -87 callgsubr
        </CharString>
        <CharString name="Abreveacute">
          76 callsubr
          322 -99 callsubr
          249 379 -101 callgsubr
          -82 126 -103 callsubr
        </CharString>
        <CharString name="Abrevedotbelow">
          76 callsubr
          113 -20 hstemhm
          432 166 hintmask 11111000
          -107 callsubr
          249 379 -101 callgsubr
          hintmask 00000100
          -130 -1054 -100 callgsubr
        </CharString>
        <CharString name="Abrevegrave">
          76 callsubr
          113 -99 callsubr
          249 379 -101 callgsubr
          -79 100 rmoveto
          -26 -65 -185 41 -29 7 -21 17 -4 26 rlinecurve
          41 -12 31 42 43 hhcurveto
          10 12 -3 -8 15 hvcurveto
          endchar
        </CharString>
        <CharString name="Abrevehookabove">
          76 callsubr
          128 77 113 -98 callsubr
          hintmask 00011100
          249 379 -101 callgsubr
          -81 140 -107 callgsubr
        </CharString>
        <CharString name="Abrevetilde">
          76 callsubr
          113 77 -22 94 -44 94 -103 callgsubr
          hintmask 00011010
          249 379 -101 callgsubr
          12 161 26 callgsubr
          hintmask 00000100
          -78 callgsubr
          hintmask 00000010
          -92 callsubr
          hintmask 00000100
          34 -38 rlineto
          hintmask 00001010
          -79 callsubr
          hintmask 00000100
          -94 callgsubr
        </CharString>
        <CharString name="Acaron">
          -39 callgsubr
          71 -21 165 -69 callgsubr
          320 -59 callgsubr
        </CharString>
        <CharString name="Acircumflex">
          -39 callgsubr
          71 -21 165 -69 callgsubr
          203 -50 callgsubr
        </CharString>
        <CharString name="Acircumflexacute">
          -39 callgsubr
          71 -21 374 -69 callgsubr
          203 -65 callgsubr
        </CharString>
        <CharString name="Acircumflexdotbelow">
          -39 callgsubr
          71 -21 165 -20 hstemhm
          432 166 hintmask 11111000
          -107 callsubr
          211 203 -95 callsubr
          hintmask 00000100
          -76 -854 -100 callgsubr
        </CharString>
        <CharString name="Acircumflexgrave">
          -39 callgsubr
          71 -21 165 -69 callgsubr
          203 -70 callsubr
        </CharString>
        <CharString name="Acircumflexhookabove">
          -39 callgsubr
          71 -21 370 -69 callgsubr
          203 -95 callsubr
          104 305 -107 callgsubr
        </CharString>
        <CharString name="Acircumflextilde">
          -39 callgsubr
          71 -21 220 94 -44 94 -103 callgsubr
          hintmask 00010100
          211 203 60 callgsubr
          hintmask 00001000
          -78 callgsubr
          hintmask 00000100
          -92 callsubr
          hintmask 00001000
          34 -38 rlineto
          hintmask 00000100
          -79 callsubr
          hintmask 00001000
          -94 callgsubr
        </CharString>
        <CharString name="Adblgrave">
          -39 callgsubr
          81 -21 203 -99 callsubr
          176 235 -94 callsubr
        </CharString>
        <CharString name="Adieresis">
          -39 callgsubr
          50 150 hstemhm
          279 34 callgsubr
          hintmask 11100000
          -107 callsubr
          hintmask 00011100
          -51 253 -76 callsubr
        </CharString>
        <CharString name="Adotbelow">
          -39 callgsubr
          hstemhm
          432 166 hintmask 11100000
          -107 callsubr
          hintmask 00010000
          119 -675 -100 callgsubr
        </CharString>
        <CharString name="Agrave">
          -39 callgsubr
          81 -21 174 -99 callsubr
          125 254 -72 callgsubr
        </CharString>
        <CharString name="Ahookabove">
          -39 callgsubr
          85 -21 190 -99 callsubr
          167 318 -107 callgsubr
        </CharString>
        <CharString name="Alpha">
          -39 callgsubr
          hstem
          -107 callsubr
          endchar
        </CharString>
        <CharString name="Amacron">
          -39 callgsubr
          70 67 -103 callgsubr
          hintmask 00010000
          279 199 -25 callgsubr
        </CharString>
        <CharString name="Aogonek">
          113 callgsubr
          hstem
          968 hmoveto
          60 -100 vlineto
          -284 618 rlineto
          29 -13 -15 0 -22 hhcurveto
          -41 hlineto
          -19 -18 0 -28 -13 hvcurveto
          -276 -603 -6 -12 -1 -1 -20 -2 rlinecurve
          -1 -11 -20 0 -11 hhcurveto
          -39 -60 hlineto
          1 22 64 3 46 hhcurveto
          147 -4 rlineto
          60 -21 vlineto
          -7 -56 0 6 hvcurveto
          5 11 57 125 rlineto
          326 hlineto
          66 -142 rlineto
          -88 -60 hlineto
          3 44 54 1 48 hhcurveto
          -40 -32 -20 -38 -43 -76 callgsubr
          -55 -50 79 58 87 hvcurveto
          -238 258 rmoveto
          -272 hlineto
          136 296 rlineto
          endchar
        </CharString>
        <CharString name="Aogonekacute">
          113 callgsubr
          126 callsubr
          hintmask 11110000
          968 hmoveto
          60 -100 vlineto
          -284 618 rlineto
          29 -13 -15 0 -22 hhcurveto
          -41 hlineto
          -19 -18 0 -28 -13 hvcurveto
          -276 -603 -6 -12 -1 -1 -20 -2 rlinecurve
          -1 -11 -20 0 -11 hhcurveto
          -39 -60 hlineto
          1 22 64 3 46 hhcurveto
          147 -4 rlineto
          60 -21 vlineto
          -7 -56 0 6 hvcurveto
          5 11 57 125 rlineto
          326 hlineto
          66 -142 rlineto
          -88 -60 hlineto
          3 44 54 1 48 hhcurveto
          -40 -32 -20 -38 -43 -76 callgsubr
          -55 -50 79 58 87 hvcurveto
          -238 258 rmoveto
          -272 hlineto
          136 296 rlineto
          hintmask 00001100
          212 280 -103 callsubr
        </CharString>
        <CharString name="Aring">
          -37 callgsubr
          47 74 47 hstemhm
          366 80 136 80 hintmask 11100000
          -107 callsubr
          hintmask 00111100
          103 233 -57 callgsubr
        </CharString>
        <CharString name="Aringacute">
          -37 callgsubr
          129 callgsubr
          hstemhm
          366 80 136 80 hintmask 11100000
          -107 callsubr
          hintmask 00111110
          103 233 -80 callgsubr
          -17 211 -103 callsubr
        </CharString>
        <CharString name="Atilde">
          -39 callgsubr
          50 94 -44 94 -103 callgsubr
          hintmask 00001000
          261 285 -92 callgsubr
        </CharString>
        <CharString name="B">
          -22 callsubr
        </CharString>
        <CharString name="Beta">
          -22 callsubr
        </CharString>
        <CharString name="C">
          134 callsubr
          vstem
          -83 callgsubr
          -182 146 -175 319 220 139 111 131 hvcurveto
          endchar
        </CharString>
        <CharString name="Cacute">
          58 callsubr
          68 108 callsubr
          84 167 hintmask 11001000
          -83 callgsubr
          -182 146 -175 319 220 139 111 131 hvcurveto
          hintmask 00110000
          -186 610 -103 callsubr
        </CharString>
        <CharString name="Ccaron">
          58 callsubr
          58 -21 165 -20 hstemhm
          84 167 hintmask 11001000
          -83 callgsubr
          -182 146 -175 319 220 139 111 131 hvcurveto
          hintmask 00110000
          -187 650 -59 callgsubr
        </CharString>
        <CharString name="Ccedilla">
          134 callsubr
          155 167 vstem
          -83 callgsubr
          -176 137 -170 297 -10 hvcurveto
          -50 28 callsubr
          -20 1 rlineto
          202 10 126 106 125 vvcurveto
          endchar
        </CharString>
        <CharString name="Ccircumflex">
          58 callsubr
          58 -21 165 -20 hstemhm
          84 167 hintmask 11001000
          -83 callgsubr
          -182 146 -175 319 220 139 111 131 hvcurveto
          hintmask 00110000
          -187 533 -50 callgsubr
        </CharString>
        <CharString name="Cdotaccent">
          58 callsubr
          51 167 hstemhm
          84 167 212 166 hintmask 11010000
          -83 callgsubr
          -182 146 -175 319 220 139 111 131 hvcurveto
          hintmask 00101000
          -279 606 -100 callgsubr
        </CharString>
        <CharString name="Chi">
          -44 callsubr
        </CharString>
        <CharString name="D">
          1049 43 callgsubr
          hstem
          80 callgsubr
          478 160 vstem
          -43 callsubr
          endchar
        </CharString>
        <CharString name="Dcaron">
          1049 43 callgsubr
          46 callsubr
          179 146 478 160 hintmask 11001100
          -43 callsubr
          hintmask 00110000
          -208 539 -59 callgsubr
        </CharString>
        <CharString name="Dcroat">
          -8 callsubr
        </CharString>
        <CharString name="Ddotbelow">
          1049 43 callgsubr
          122 callgsubr
          12 166 300 160 hintmask 11101000
          -43 callsubr
          hintmask 00010000
          -300 -456 -100 callgsubr
        </CharString>
        <CharString name="Delta">
          1144 0 133 574 -20 hstem
          1064 15 rmoveto
          0 0 5 -5 9 vhcurveto
          -410 650 rlineto
          27 -17 -15 1 -24 hhcurveto
          -44 hlineto
          -24 -15 -1 -27 -17 hvcurveto
          -409 -648 rlineto
          -6 -10 0 -2 -4 vvcurveto
          -15 14 0 15 vhcurveto
          928 hlineto
          15 14 0 15 hvcurveto
          -252 118 rmoveto
          -565 hlineto
          283 449 rlineto
          endchar
        </CharString>
        <CharString name="Dlinebelow">
          1049 -149 67 82 98 callgsubr
          122 callgsubr
          478 160 hintmask 01111000
          -43 callsubr
          hintmask 10000000
          -140 -488 -25 callgsubr
        </CharString>
        <CharString name="E">
          -8 callgsubr
        </CharString>
        <CharString name="Eacute">
          -27 callgsubr
          89 -21 174 -20 -96 callsubr
          hintmask 0001100000000000
          -172 838 -103 callsubr
        </CharString>
        <CharString name="Ebreve">
          -27 callgsubr
          68 77 113 -20 -96 callsubr
          hintmask 0001100000000000
          -135 937 -87 callgsubr
        </CharString>
        <CharString name="Ecaron">
          -27 callgsubr
          79 -21 165 -20 -96 callsubr
          hintmask 0001100000000000
          -173 878 -59 callgsubr
        </CharString>
        <CharString name="Ecircumflex">
          -27 callgsubr
          79 -21 165 -18 callgsubr
          endchar
        </CharString>
        <CharString name="Ecircumflexacute">
          -27 callgsubr
          79 -21 374 -18 callgsubr
          -28 291 rmoveto
          41 12 -31 42 -43 hhcurveto
          -11 -11 -3 -8 -15 hvcurveto
          -166 -98 26 -65 185 41 29 7 21 17 4 26 rlinecurve
          endchar
        </CharString>
        <CharString name="Ecircumflexdotbelow">
          -27 callgsubr
          79 -21 165 -20 57 callgsubr
          hintmask 1110010101000000
          852 254 rmoveto
          -71 hlineto
          -163 -33 -80 -31 -139 hhcurveto
          -199 262 76 hlineto
          70 48 -10 -90 hvcurveto
          71 260 -71 hlineto
          -90 -47 -10 -71 vhcurveto
          -76 237 188 hlineto
          hintmask 1010010010000000
          121 81 -20 -147 23 hvcurveto
          71 hlineto
          -36 227 rlineto
          -707 5 callsubr
          727 hlineto
          hintmask 0001100001000000
          -173 81 callsubr
          hintmask 0000001000000000
          -76 -854 -100 callgsubr
        </CharString>
        <CharString name="Ecircumflexgrave">
          -27 callgsubr
          79 -21 165 -18 callgsubr
          -25 265 rmoveto
          -26 -65 -185 41 -29 7 -21 17 -4 26 rlinecurve
          41 -12 31 42 43 hhcurveto
          10 12 -3 -8 15 hvcurveto
          endchar
        </CharString>
        <CharString name="Ecircumflexhookabove">
          -27 callgsubr
          79 -21 370 -18 callgsubr
          104 305 -107 callgsubr
        </CharString>
        <CharString name="Ecircumflextilde">
          -27 callgsubr
          79 -21 220 94 -44 94 -31 callsubr
          hintmask 1110001101000000
          852 254 rmoveto
          -71 hlineto
          -163 -33 -80 -31 -139 hhcurveto
          -199 262 76 hlineto
          70 48 -10 -90 hvcurveto
          71 260 -71 hlineto
          -90 -47 -10 -71 vhcurveto
          -76 237 188 hlineto
          hintmask 1010001010000000
          121 81 -20 -147 23 hvcurveto
          71 hlineto
          -36 227 rlineto
          -707 5 callsubr
          727 hlineto
          hintmask 0000000001000000
          hintmask 0001010000000000
          -173 761 60 callgsubr
          hintmask 0000100000000000
          -78 callgsubr
          hintmask 0000010000000000
          -92 callsubr
          hintmask 0000100000000000
          34 -38 rlineto
          hintmask 0000010000000000
          -79 callsubr
          hintmask 0000100000000000
          -94 callgsubr
        </CharString>
        <CharString name="Edblgrave">
          -27 callgsubr
          89 130 callsubr
          -96 callsubr
          hintmask 0001100000000000
          -170 793 -94 callsubr
        </CharString>
        <CharString name="Edieresis">
          -27 callgsubr
          58 150 -19 callsubr
          -116 149 161 71 -58 149 57 71 -33 71 hintmask 1110101001000000
          852 254 rmoveto
          -71 hlineto
          -163 -33 -80 -31 -139 hhcurveto
          -199 262 76 hlineto
          70 48 -10 -90 hvcurveto
          71 260 -71 hlineto
          -90 -47 -10 -71 vhcurveto
          -76 237 188 hlineto
          hintmask 1010100010000000
          121 81 -20 -147 23 hvcurveto
          71 hlineto
          -36 227 rlineto
          -707 5 callsubr
          727 hlineto
          hintmask 0000000001000000
          hintmask 0001010100000000
          -435 811 -76 callsubr
        </CharString>
        <CharString name="Edotaccent">
          -27 callgsubr
          72 167 57 callgsubr
          hintmask 1110101010000000
          852 254 rmoveto
          -71 hlineto
          -163 -33 -80 -31 -139 hhcurveto
          -199 262 76 hlineto
          70 48 -10 -90 hvcurveto
          71 260 -71 hlineto
          -90 -47 -10 -71 vhcurveto
          -76 237 188 hlineto
          hintmask 1010100100000000
          121 81 -20 -147 23 hvcurveto
          71 hlineto
          -36 227 rlineto
          -707 5 callsubr
          727 hlineto
          hintmask 0000000010000000
          hintmask 0001010000000000
          -265 834 -100 callgsubr
        </CharString>
        <CharString name="Edotbelow">
          -27 callgsubr
          57 callgsubr
          hintmask 11110101
          852 254 rmoveto
          -71 hlineto
          -163 -33 -80 -31 -139 hhcurveto
          -199 262 76 hlineto
          70 48 -10 -90 hvcurveto
          71 260 -71 hlineto
          -90 -47 -10 -71 vhcurveto
          -76 237 188 hlineto
          hintmask 10110010
          121 81 -20 -147 23 hvcurveto
          71 hlineto
          -36 227 rlineto
          -707 5 callsubr
          727 hlineto
          hintmask 00000001
          hintmask 00001000
          -265 -117 -100 callgsubr
        </CharString>
        <CharString name="Egrave">
          -27 callgsubr
          89 -21 174 -20 -96 callsubr
          hintmask 0001100000000000
          -259 812 -72 callgsubr
        </CharString>
        <CharString name="Ehookabove">
          -27 callgsubr
          93 -21 190 -20 -96 callsubr
          hintmask 0001100000000000
          -217 876 -107 callgsubr
        </CharString>
        <CharString name="Emacron">
          -27 callgsubr
          78 67 -31 callsubr
          hintmask 11101101
          852 254 rmoveto
          -71 hlineto
          -163 -33 -80 -31 -139 hhcurveto
          -199 262 76 hlineto
          70 48 -10 -90 hvcurveto
          71 260 -71 hlineto
          -90 -47 -10 -71 vhcurveto
          -76 237 188 hlineto
          hintmask 10101010
          121 81 -20 -147 23 hvcurveto
          71 hlineto
          -36 227 rlineto
          -707 5 callsubr
          727 hlineto
          hintmask 00000001
          hintmask 00010000
          -105 757 -25 callgsubr
        </CharString>
        <CharString name="Eng">
          1065 -14 72 -72 144 -72 72 hstem
          141 callsubr
          501 166 cntrmask 11100000
          996 343 rmoveto
          208 -193 149 -217 -94 -94 -21 -42 -69 vhcurveto
          49 vlineto
          -3 -25 -26 -1 -25 hhcurveto
          -56 -78 0 4 -55 hvcurveto
          -60 112 -566 -112 -60 vlineto
          4 55 78 0 56 hhcurveto
          56 77 0 -4 55 hvcurveto
          60 -112 495 vlineto
          53 55 103 20 99 hhcurveto
          143 101 -134 -151 -100 -3 -110 -50 -49 hvcurveto
          27 -10 -26 19 -31 hhcurveto
          -40 -32 -32 -40 -40 32 -32 40 172 114 172 185 hvcurveto
          endchar
        </CharString>
        <CharString name="Eogonek">
          900 -224 91 133 3 callgsubr
          16 callsubr
          1 71 -71 153 -6 71 -33 71 hintmask 0111110001000000
          852 254 rmoveto
          -71 hlineto
          -163 -33 -80 -31 -139 hhcurveto
          -199 262 76 hlineto
          70 48 -10 -90 hvcurveto
          71 260 -71 hlineto
          -90 -47 -10 -71 vhcurveto
          -76 237 188 hlineto
          hintmask 1101101010000000
          20 callsubr
          hintmask 1100000101000000
          74 callsubr
          endchar
        </CharString>
        <CharString name="Eogonekacute">
          900 -224 91 133 3 callgsubr
          89 -21 174 -20 16 callsubr
          1 71 -71 153 -6 71 -33 71 hintmask 0111001100010000
          852 254 rmoveto
          -71 hlineto
          -163 -33 -80 -31 -139 hhcurveto
          -199 262 76 hlineto
          70 48 -10 -90 hvcurveto
          71 260 -71 hlineto
          -90 -47 -10 -71 vhcurveto
          -76 237 188 hlineto
          hintmask 1101001010100000
          20 callsubr
          hintmask 1100000001010000
          74 callsubr
          hintmask 0000110000000000
          -172 838 -103 callsubr
        </CharString>
        <CharString name="Epsilon">
          -8 callgsubr
        </CharString>
        <CharString name="Ereversed">
          -27 callgsubr
          hstemhm
          71 71 -33 71 148 71 194 153 hintmask 11101110
          852 hmoveto
          60 -106 559 106 60 -707 vlineto
          -36 -227 rlineto
          71 hlineto
          147 23 81 20 121 hhcurveto
          188 -237 -76 hlineto
          -71 -47 10 90 hvcurveto
          -71 -260 71 hlineto
          90 48 10 70 vhcurveto
          76 -262 -199 hlineto
          hintmask 10010000
          -139 -80 31 163 -33 hvcurveto
          -71 hlineto
          54 -254 rlineto
          endchar
        </CharString>
        <CharString name="Eta">
          1065 0 60 267 60 239 60 hstem
          177 153 403 153 vstem
          -83 callsubr
          endchar
        </CharString>
        <CharString name="Eth">
          -8 callsubr
        </CharString>
        <CharString name="Etilde">
          -27 callgsubr
          58 94 -44 94 -96 callsubr
          hintmask 0000100000000000
          -123 843 26 callgsubr
          hintmask 0001000000000000
          -78 callgsubr
          hintmask 0000100000000000
          -92 callsubr
          hintmask 0001000000000000
          34 -38 rlineto
          hintmask 0000100000000000
          -79 callsubr
          hintmask 0001000000000000
          -94 callgsubr
        </CharString>
        <CharString name="Euro">
          845 -14 60 205 60 32 60 -28 60 205 60 hstemhm
          150 166 hintmask 00011000
          770 553 rmoveto
          126 vlineto
          12 -9 9 -12 vhcurveto
          -13 hlineto
          -3 -4 -1 -2 -3 hvcurveto
          -48 -27 rlineto
          20 -42 -53 10 -52 hhcurveto
          -101 -101 -28 -69 -74 hvcurveto
          -49 -45 -31 -59 -15 -64 rrcurveto
          -61 hlineto
          -9 -7 -5 -9 -3 hvcurveto
          hintmask 00100000
          -7 -18 rlineto
          hintmask 00010000
          -13 -5 10 -15 15 hhcurveto
          58 hlineto
          hintmask 11100100
          -1 -11 0 -10 -11 vvcurveto
          -11 0 -10 1 -11 vhcurveto
          -52 hlineto
          -9 -7 -5 -9 -3 hvcurveto
          -7 -18 rlineto
          -13 -5 10 -15 15 hhcurveto
          67 hlineto
          15 -64 31 -58 49 -46 rrcurveto
          -69 74 101 -28 101 hhcurveto
          52 53 10 21 42 hvcurveto
          48 -28 rlineto
          -2 3 4 -1 3 hhcurveto
          13 hlineto
          12 9 9 12 hvcurveto
          126 vlineto
          12 -9 9 -12 vhcurveto
          -42 hlineto
          -10 -9 -7 -10 -2 hvcurveto
          -58 -9 -59 -33 -62 hhcurveto
          -70 -71 23 54 -45 hvcurveto
          -30 37 -13 44 -6 47 rrcurveto
          283 hlineto
          9 8 5 9 3 hvcurveto
          8 25 rlineto
          11 3 -11 10 -13 hhcurveto
          -295 32 hlineto
          hintmask 00011100
          32 333 vlineto
          9 9 5 9 2 hvcurveto
          8 25 rlineto
          11 4 -11 10 -14 hhcurveto
          -335 hlineto
          6 47 13 44 30 37 rrcurveto
          54 45 71 23 70 hhcurveto
          62 59 -33 -58 9 hvcurveto
          -9 2 9 -8 10 hhcurveto
          42 hlineto
          12 9 9 12 hvcurveto
          endchar
        </CharString>
        <CharString name="F">
          863 0 60 250 60 249 60 -19 callsubr
          0 71 116 71 137 71 hintmask 11110000
          796 452 rmoveto
          -36 227 rlineto
          -689 70 callsubr
          250 vlineto
          hintmask 01101110
          71 hlineto
          72 44 -11 -89 hvcurveto
          71 260 -71 hlineto
          -89 -45 -11 -71 vhcurveto
          -71 249 177 hlineto
          124 71 -25 -142 23 hvcurveto
          endchar
        </CharString>
        <CharString name="G">
          1077 -14 12 callgsubr
          hstem
          84 167 503 153 vstem
          -95 callgsubr
          endchar
        </CharString>
        <CharString name="Gacute">
          1077 -14 12 callgsubr
          68 108 callsubr
          84 167 503 153 hintmask 11110011
          -95 callgsubr
          hintmask 00001100
          -192 625 -103 callsubr
        </CharString>
        <CharString name="Gamma">
          825 0 60 559 68 callgsubr
          vstem
          758 452 rmoveto
          -36 227 rlineto
          -651 70 callsubr
          559 154 vlineto
          121 61 -30 -137 21 hvcurveto
          endchar
        </CharString>
        <CharString name="Gbreve">
          1077 -14 12 callgsubr
          47 77 113 -20 hstemhm
          84 167 503 153 hintmask 11110011
          -95 callgsubr
          hintmask 00001100
          -155 724 -87 callgsubr
        </CharString>
        <CharString name="Gcaron">
          1077 -14 12 callgsubr
          58 -21 165 -20 hstemhm
          84 167 503 153 hintmask 11110011
          -95 callgsubr
          hintmask 00001100
          -193 665 -59 callgsubr
        </CharString>
        <CharString name="Gcedilla">
          52 callsubr
          hintmask 0011111110000000
          -95 callgsubr
          -300 -353 -89 callsubr
          hintmask 0100000000000000
          -17 callsubr
          hintmask 1000000000000000
          -53 callgsubr
        </CharString>
        <CharString name="Gcircumflex">
          1077 -14 12 callgsubr
          58 -21 165 -20 hstemhm
          84 167 503 153 hintmask 11110011
          -95 callgsubr
          hintmask 00001100
          -193 548 -50 callgsubr
        </CharString>
        <CharString name="Gcommaaccent">
          52 callsubr
          hintmask 0001111110000000
          -95 callgsubr
          hintmask 0010000000000000
          -300 -353 -89 callsubr
          hintmask 0100000000000000
          -17 callsubr
          hintmask 1000000000000000
          -53 callgsubr
        </CharString>
        <CharString name="Gdotaccent">
          1077 -14 12 callgsubr
          51 167 hstemhm
          84 167 205 166 132 153 hintmask 11110101
          -95 callgsubr
          hintmask 00001010
          -285 621 -100 callgsubr
        </CharString>
        <CharString name="H">
          1065 0 60 267 60 239 60 hstem
          177 153 403 153 vstem
          -83 callsubr
          endchar
        </CharString>
        <CharString name="H_uni0303">
          64 callsubr
          51 94 -44 94 -19 callsubr
          403 153 hintmask 11100110
          -83 callsubr
          hintmask 00001000
          -234 843 -92 callgsubr
        </CharString>
        <CharString name="Hbar">
          59 callgsubr
          98 60 81 103 callsubr
          425 106 60 -106 81 106 60 vlineto
          -182 -4 rlineto
          -5 -134 1 3 -44 hvcurveto
          -60 106 -81 -403 81 106 60 vlineto
          -182 -4 rlineto
          -5 -134 1 3 -44 hvcurveto
          -60 106 -81 -106 -60 106 -425 -12 callgsubr
          267 403 -267 -47 callgsubr
          -259 387 rmoveto
          -403 98 403 hlineto
          endchar
        </CharString>
        <CharString name="Hbrevebelow">
          1065 127 callsubr
          41 60 267 60 239 60 -19 callsubr
          403 153 hintmask 00111110
          -83 callsubr
          hintmask 11000000
          -246 -21 -87 callgsubr
        </CharString>
        <CharString name="Hcircumflex">
          64 callsubr
          46 callsubr
          177 153 403 153 hintmask 11100110
          -83 callsubr
          hintmask 00011000
          -284 75 callgsubr
        </CharString>
        <CharString name="Hdieresis">
          64 callsubr
          51 150 -19 callsubr
          -33 34 callgsubr
          -36 153 hintmask 11101001
          -83 callsubr
          hintmask 00010110
          -546 811 -76 callsubr
        </CharString>
        <CharString name="Hdotbelow">
          64 callsubr
          -19 callsubr
          120 166 117 153 hintmask 11110100
          -83 callsubr
          hintmask 00001000
          -376 -117 -100 callgsubr
        </CharString>
        <CharString name="I">
          42 callsubr
          hstem
          141 callsubr
          vstem
          -91 callgsubr
          endchar
        </CharString>
        <CharString name="I_J">
          1167 -14 51 -37 51 -51 98 callgsubr
          hstemhm
          141 callsubr
          175 108 callgsubr
          hintmask 00111010
          -91 callgsubr
          627 626 rmoveto
          60 vlineto
          -160 -4 rlineto
          -52 -105 0 4 -47 hvcurveto
          -60 138 -475 vlineto
          hintmask 10000000
          -75 -39 -39 -76 vhcurveto
          hintmask 01000100
          -5 -42 0 14 -36 hvcurveto
          4 3 23 22 38 vvcurveto
          58 -46 26 -37 -41 -43 -28 -56 vhcurveto
          hintmask 10010010
          -128 189 0 37 159 99 61 104 vhcurveto
          475 vlineto
          endchar
        </CharString>
        <CharString name="Iacute">
          42 callsubr
          82 -21 174 -20 -73 callgsubr
          hintmask 00110000
          -12 838 -103 callsubr
        </CharString>
        <CharString name="Ibreve">
          42 callsubr
          61 77 113 -20 -73 callgsubr
          hintmask 00110000
          25 937 -87 callgsubr
        </CharString>
        <CharString name="Icaron">
          42 callsubr
          72 -21 165 -20 -73 callgsubr
          hintmask 00110000
          -13 878 -59 callgsubr
        </CharString>
        <CharString name="Icircumflex">
          42 callsubr
          72 -21 165 -20 -73 callgsubr
          hintmask 00110000
          -13 75 callgsubr
        </CharString>
        <CharString name="Idblgrave">
          42 callsubr
          82 130 callsubr
          -73 callgsubr
          hintmask 00110000
          -10 793 -94 callsubr
        </CharString>
        <CharString name="Idieresis">
          42 callsubr
          51 150 hstemhm
          17 149 10 153 11 149 hintmask 11001000
          -91 callgsubr
          hintmask 00110100
          -275 811 -76 callsubr
        </CharString>
        <CharString name="Idieresisacute">
          42 callsubr
          51 150 126 callsubr
          17 149 10 153 11 149 hintmask 11000010
          -91 callgsubr
          hintmask 00111101
          -275 811 rmoveto
          -100 callsubr
          323 hmoveto
          -100 callsubr
          -60 227 -103 callsubr
        </CharString>
        <CharString name="Idotaccent">
          42 callsubr
          65 167 hstemhm
          170 166 -160 -71 callgsubr
          hintmask 00110000
          -105 834 -100 callgsubr
        </CharString>
        <CharString name="Idotbelow">
          42 callsubr
          hstemhm
          170 166 -160 153 hintmask 11010000
          -91 callgsubr
          hintmask 00100000
          -105 -117 -100 callgsubr
        </CharString>
        <CharString name="Igrave">
          42 callsubr
          82 -21 174 -20 -73 callgsubr
          hintmask 00111000
          -99 812 -72 callgsubr
        </CharString>
        <CharString name="Ihookabove">
          42 callsubr
          86 -21 190 -20 -73 callgsubr
          hintmask 00110000
          -57 876 -107 callgsubr
        </CharString>
        <CharString name="Imacron">
          42 callsubr
          71 67 hstemhm
          141 callsubr
          hintmask 11010000
          -91 callgsubr
          hintmask 00100000
          55 757 -25 callgsubr
        </CharString>
        <CharString name="Imacron.alt">
          42 callsubr
          71 67 hstemhm
          141 callsubr
          hintmask 11010000
          -91 callgsubr
          hintmask 00100000
          -61 757 37 callgsubr
        </CharString>
        <CharString name="Iogonek">
          506 119 callgsubr
          54 98 callgsubr
          hstem
          141 callsubr
          vstem
          441 hmoveto
          60 -112 566 112 60 vlineto
          -4 -55 -77 0 -56 hhcurveto
          -56 -78 0 4 -55 hvcurveto
          -60 112 -566 -112 -60 vlineto
          4 53 74 0 56 hhcurveto
          -35 -31 -30 -43 -39 -76 callgsubr
          -38 -31 37 42 14 hvcurveto
          9 25 18 21 23 12 rrcurveto
          endchar
        </CharString>
        <CharString name="Iogonekacute">
          506 119 callgsubr
          54 98 callgsubr
          34 callsubr
          141 callsubr
          hintmask 11110010
          441 hmoveto
          60 -112 566 112 60 vlineto
          -4 -55 -77 0 -56 hhcurveto
          -56 -78 0 4 -55 hvcurveto
          -60 112 -566 -112 -60 vlineto
          4 53 74 0 56 hhcurveto
          -35 -31 -30 -43 -39 -76 callgsubr
          -38 -31 37 42 14 hvcurveto
          9 25 18 21 23 12 rrcurveto
          hintmask 00001100
          87 834 -103 callsubr
        </CharString>
        <CharString name="Iota">
          42 callsubr
          hstem
          141 callsubr
          vstem
          -91 callgsubr
          endchar
        </CharString>
        <CharString name="Itilde">
          42 callsubr
          51 94 -44 94 -73 callgsubr
          hintmask 00010000
          37 843 -86 callsubr
        </CharString>
        <CharString name="J">
          137 callgsubr
          hstem
          48 108 callgsubr
          vstem
          -47 callsubr
          endchar
        </CharString>
        <CharString name="J_uni030C.cap">
          711.11111 -14 51 399 -21 21 125 65 60 hstemhm
          48 108 callgsubr
          hintmask 10111100
          -47 callsubr
          266 -38 -89 callsubr
          -17 callsubr
          hintmask 01000000
          -53 callgsubr
        </CharString>
        <CharString name="Jacute">
          137 callgsubr
          34 callsubr
          48 108 callgsubr
          hintmask 11001100
          -47 callsubr
          hintmask 00110000
          74 212 -103 callsubr
        </CharString>
        <CharString name="Jcircumflex">
          137 callgsubr
          46 callsubr
          48 108 callgsubr
          hintmask 11001100
          -47 callsubr
          hintmask 00110000
          73 135 -50 callgsubr
        </CharString>
        <CharString name="K">
          -39 callsubr
        </CharString>
        <CharString name="Kappa">
          -39 callsubr
        </CharString>
        <CharString name="Kcedilla">
          -41 callgsubr
          hintmask 00110000
          -248 -144 -89 callsubr
          hintmask 01000000
          -17 callsubr
          hintmask 10000000
          -53 callgsubr
        </CharString>
        <CharString name="Kcommaaccent">
          -41 callgsubr
          hintmask 00010000
          hintmask 00100000
          -248 -144 -89 callsubr
          hintmask 01000000
          -17 callsubr
          hintmask 10000000
          -53 callgsubr
        </CharString>
        <CharString name="L">
          107 callgsubr
          hstem
          177 153 vstem
          -73 callsubr
          endchar
        </CharString>
        <CharString name="L_uni0303">
          107 callgsubr
          51 94 -44 94 -19 callsubr
          hintmask 11001000
          -73 callsubr
          hintmask 00010000
          -240 843 -86 callsubr
        </CharString>
        <CharString name="Lacute">
          107 callgsubr
          34 callsubr
          177 153 hintmask 11001000
          -73 callsubr
          hintmask 00110000
          -289 838 -103 callsubr
        </CharString>
        <CharString name="Lambda">
          954 0 60 -56 60 643 -20 hstemhm
          hintmask 10100000
          894 hmoveto
          60 -88 vlineto
          -261 616 rlineto
          22 -9 -4 9 -36 hhcurveto
          -40 hlineto
          -19 -18 0 -28 -12 hvcurveto
          -254 -602 -6 -13 -1 -1 -16 -2 rlinecurve
          -72 -1 rlineto
          -60 vlineto
          hintmask 01000000
          2 22 65 2 35 hhcurveto
          hintmask 10000000
          145 -4 rlineto
          60 -21 vlineto
          hintmask 01000000
          -37 -2 0 4 -27 hvcurveto
          200 474 rlineto
          hintmask 10000000
          202 -478 rlineto
          -89 -60 hlineto
          hintmask 01000000
          4 55 72 0 56 hhcurveto
          hintmask 10000000
          endchar
        </CharString>
        <CharString name="Lcaron">
          825 0 60 376 -21 21 125 65 60 -19 callsubr
          hintmask 10111000
          -73 callsubr
          -48 588 -89 callsubr
          -17 callsubr
          hintmask 01000000
          -53 callgsubr
        </CharString>
        <CharString name="Lcedilla">
          825 -34 callsubr
          42 98 callgsubr
          -19 callsubr
          hintmask 00111100
          -73 callsubr
          -241 -140 -89 callsubr
          hintmask 01000000
          -17 callsubr
          hintmask 10000000
          -53 callgsubr
        </CharString>
        <CharString name="Lcommaaccent">
          825 -34 callsubr
          42 98 callgsubr
          -19 callsubr
          hintmask 00011100
          -73 callsubr
          hintmask 00100000
          -241 -140 -89 callsubr
          hintmask 01000000
          -17 callsubr
          hintmask 10000000
          -53 callgsubr
        </CharString>
        <CharString name="Ldot">
          825 0 60 287 167 112 68 callgsubr
          253 166 vstem
          -73 callsubr
          27 430 -100 callgsubr
        </CharString>
        <CharString name="Ldotbelow">
          107 callgsubr
          -19 callsubr
          0 166 hintmask 11100000
          -73 callsubr
          hintmask 00100000
          92 callsubr
          hintmask 00010000
          -32 callsubr
          hvcurveto
          endchar
        </CharString>
        <CharString name="Ldotbelowmacron">
          107 callgsubr
          71 67 -19 callsubr
          0 166 hintmask 11010000
          -73 callsubr
          92 callsubr
          hintmask 00001000
          -32 callsubr
          hvcurveto
          hintmask 00100000
          14 874 -25 callgsubr
        </CharString>
        <CharString name="Lslash">
          825 0 60 224 60 282 68 callgsubr
          vstem
          -13 callgsubr
          305 hlineto
          225 139 -34 52 -191 -118 rlineto
          188 133 60 vlineto
          -4 -48 -105 0 -53 hhcurveto
          -6 -135 1 3 -45 hvcurveto
          -60 106 -282 vlineto
          -96 -60 34 -53 62 39 rlineto
          -210 -106 -60 651 vlineto
          endchar
        </CharString>
        <CharString name="M">
          1290 43 callgsubr
          hstem
          186 78 707 131 vstem
          -52 callgsubr
          endchar
        </CharString>
        <CharString name="Mdotbelow">
          1290 43 callgsubr
          hstemhm
          186 78 298 166 243 131 hintmask 11101000
          -52 callgsubr
          hintmask 00010000
          -308 -121 -100 callgsubr
        </CharString>
        <CharString name="Mu">
          1290 43 callgsubr
          hstem
          186 78 707 131 vstem
          -52 callgsubr
          endchar
        </CharString>
        <CharString name="N">
          107 callsubr
          hstem
          96 callsubr
          vstem
          -96 callgsubr
          endchar
        </CharString>
        <CharString name="Nacute">
          107 callsubr
          82 -21 174 -20 139 callsubr
          hintmask 11001100
          -96 callgsubr
          hintmask 00110000
          -198 213 -103 callsubr
        </CharString>
        <CharString name="Ncaron">
          107 callsubr
          72 -21 165 -20 139 callsubr
          hintmask 11001100
          -96 callgsubr
          hintmask 00110000
          -199 253 -59 callgsubr
        </CharString>
        <CharString name="Ncedilla">
          1065 -34 callsubr
          42 98 callgsubr
          139 callsubr
          hintmask 00111110
          -96 callgsubr
          -306 -765 -89 callsubr
          hintmask 01000000
          -17 callsubr
          hintmask 10000000
          -53 callgsubr
        </CharString>
        <CharString name="Ncommaaccent">
          1065 -34 callsubr
          42 98 callgsubr
          139 callsubr
          hintmask 00011110
          -96 callgsubr
          hintmask 00100000
          -306 -765 -89 callsubr
          hintmask 01000000
          -17 callsubr
          hintmask 10000000
          -53 callgsubr
        </CharString>
        <CharString name="Ndotaccent">
          107 callsubr
          51 167 134 callgsubr
          hintmask 11010100
          -96 callgsubr
          hintmask 00101000
          -291 195 -100 callgsubr
        </CharString>
        <CharString name="Ndotbelow">
          107 callsubr
          134 callgsubr
          hintmask 11101000
          -96 callgsubr
          hintmask 00010000
          -291 -742 -100 callgsubr
        </CharString>
        <CharString name="Ntilde">
          107 callsubr
          51 94 -44 94 139 callsubr
          hintmask 11001100
          -96 callgsubr
          hintmask 00010000
          -149 218 -86 callsubr
        </CharString>
        <CharString name="Nu">
          107 callsubr
          hstem
          96 callsubr
          vstem
          -96 callgsubr
          endchar
        </CharString>
        <CharString name="O">
          -24 callsubr
          hstem
          12 callsubr
          vstem
          -106 callgsubr
          endchar
        </CharString>
        <CharString name="OE">
          -45 callgsubr
        </CharString>
        <CharString name="OE.dup">
          -45 callgsubr
        </CharString>
        <CharString name="Oacute">
          -24 callsubr
          68 -21 174 -20 14 callgsubr
          hintmask 11001100
          -106 callgsubr
          hintmask 00110000
          -87 483 -103 callsubr
        </CharString>
        <CharString name="Obreve">
          -24 callsubr
          47 77 113 -20 14 callgsubr
          hintmask 11001100
          -106 callgsubr
          hintmask 00110000
          -50 582 -87 callgsubr
        </CharString>
        <CharString name="Ocaron">
          -24 callsubr
          58 -21 165 -20 14 callgsubr
          hintmask 11001100
          -106 callgsubr
          hintmask 00110000
          -88 523 -59 callgsubr
        </CharString>
        <CharString name="Ocircumflex">
          -24 callsubr
          58 -21 165 -20 14 callgsubr
          hintmask 11001100
          -106 callgsubr
          hintmask 00110000
          -88 406 -50 callgsubr
        </CharString>
        <CharString name="Ocircumflexacute">
          -24 callsubr
          58 -21 374 -20 14 callgsubr
          hintmask 11001100
          -106 callgsubr
          hintmask 00110000
          -88 406 -65 callgsubr
        </CharString>
        <CharString name="Ocircumflexdotbelow">
          -24 callsubr
          58 -21 165 -20 124 callgsubr
          hintmask 11111010
          -106 callgsubr
          -88 406 -95 callsubr
          hintmask 00000100
          -76 -854 -100 callgsubr
        </CharString>
        <CharString name="Ocircumflexgrave">
          -24 callsubr
          58 -21 165 -20 14 callgsubr
          hintmask 11001100
          -106 callgsubr
          hintmask 00110000
          -88 406 -70 callsubr
        </CharString>
        <CharString name="Ocircumflexhookabove">
          -24 callsubr
          58 -21 370 -20 14 callgsubr
          hintmask 11001100
          -106 callgsubr
          hintmask 00110100
          -88 406 -95 callsubr
          104 305 -107 callgsubr
        </CharString>
        <CharString name="Ocircumflextilde">
          -24 callsubr
          58 -21 220 94 -44 94 14 callgsubr
          hintmask 11000110
          -106 callgsubr
          hintmask 00101000
          -88 406 rmoveto
          -175 141 -175 -141 14 -24 160 58 160 -58 rlineto
          66 326 -92 callgsubr
        </CharString>
        <CharString name="Odblgrave">
          -24 callsubr
          68 130 callsubr
          14 callgsubr
          hintmask 11001100
          -106 callgsubr
          hintmask 00110000
          -85 438 -94 callsubr
        </CharString>
        <CharString name="Odieresis">
          -24 callsubr
          37 150 hstemhm
          84 167 29 34 callgsubr
          27 167 hintmask 11010010
          -106 callgsubr
          hintmask 00101100
          -350 456 -76 callsubr
        </CharString>
        <CharString name="Odotbelow">
          -24 callsubr
          124 callgsubr
          hintmask 11101000
          -106 callgsubr
          hintmask 00010000
          -180 -472 -100 callgsubr
        </CharString>
        <CharString name="Ograve">
          -24 callsubr
          68 -21 174 -20 14 callgsubr
          hintmask 11001100
          -106 callgsubr
          hintmask 00110000
          -174 457 -72 callgsubr
        </CharString>
        <CharString name="Ohookabove">
          -24 callsubr
          72 -21 190 -20 14 callgsubr
          hintmask 11001100
          -106 callgsubr
          hintmask 00110000
          -132 521 -107 callgsubr
        </CharString>
        <CharString name="Ohorn">
          -24 callsubr
          119 54 callgsubr
          hintmask 11111000
          -79 callgsubr
          hintmask 11010100
          -63 callgsubr
          endchar
        </CharString>
        <CharString name="Ohornacute">
          -24 callsubr
          68 -21 72 -20 122 54 callgsubr
          hintmask 11010110
          -79 callgsubr
          hintmask 11000101
          -63 callgsubr
          hintmask 00101000
          -123 481 -103 callsubr
        </CharString>
        <CharString name="Ohorndotbelow">
          -24 callsubr
          119 -20 hstemhm
          84 167 182 166 135 119 callsubr
          hintmask 11110100
          -79 callgsubr
          hintmask 11010010
          -63 callgsubr
          hintmask 00001000
          -179 -474 -100 callgsubr
        </CharString>
        <CharString name="Ohorngrave">
          -24 callsubr
          68 -21 72 -20 122 54 callgsubr
          hintmask 11010110
          -79 callgsubr
          hintmask 11000101
          -63 callgsubr
          hintmask 00101000
          -173 455 -72 callgsubr
        </CharString>
        <CharString name="Ohornhookabove">
          -24 callsubr
          72 -21 68 -20 142 54 callgsubr
          hintmask 11010110
          -79 callgsubr
          hintmask 11000101
          -63 callgsubr
          hintmask 00111000
          -131 519 -107 callgsubr
        </CharString>
        <CharString name="Ohorntilde">
          -24 callsubr
          37 131 callsubr
          84 167 483 119 callsubr
          hintmask 11001100
          -79 callgsubr
          hintmask 11001010
          -63 callgsubr
          hintmask 00010000
          -37 486 -86 callsubr
        </CharString>
        <CharString name="Ohungarumlaut">
          -24 callsubr
          68 130 callsubr
          14 callgsubr
          hintmask 11001100
          -106 callgsubr
          hintmask 00110000
          -250 525 -75 callgsubr
        </CharString>
        <CharString name="Omacron">
          -24 callsubr
          57 67 14 callgsubr
          hintmask 11011000
          -106 callgsubr
          hintmask 00100000
          -20 402 -25 callgsubr
        </CharString>
        <CharString name="Omega">
          -29 callsubr
        </CharString>
        <CharString name="Omicron">
          -24 callsubr
          hstem
          12 callsubr
          vstem
          -106 callgsubr
          endchar
        </CharString>
        <CharString name="Oogonek">
          -24 callsubr
          hstemhm
          84 47 callsubr
          361 167 hintmask 01100000
          49 callsubr
          hintmask 11011000
          -16 callsubr
          endchar
        </CharString>
        <CharString name="Oogonekacute">
          -24 callsubr
          68 108 callsubr
          84 47 callsubr
          361 167 hintmask 01001000
          49 callsubr
          hintmask 11000110
          -16 callsubr
          hintmask 00110000
          -87 483 -103 callsubr
        </CharString>
        <CharString name="Orogate">
          1032 84 167 239 50 239 167 vstem
          946 338 rmoveto
          184 -128 168 -278 10 vhcurveto
          181 -50 -181 vlineto
          -277 -10 -129 -168 -184 vvcurveto
          -176 126 -166 280 -10 vhcurveto
          -180 50 180 vlineto
          279 10 127 165 177 vvcurveto
          -167 17 rmoveto
          -65 -7 -92 -53 -66 vhcurveto
          -67 -55 -81 -20 -68 hhcurveto
          -79 -71 26 51 -45 hvcurveto
          -60 66 -9 95 72 vvcurveto
          33 0 113 64 67 vhcurveto
          65 63 81 11 56 hhcurveto
          71 71 -18 -55 55 hvcurveto
          65 -66 2 -106 -44 vvcurveto
          endchar
        </CharString>
        <CharString name="Oslash">
          87 callgsubr
          hstem
          84 153 593 153 vstem
          -56 callsubr
          endchar
        </CharString>
        <CharString name="Oslash.dup">
          87 callgsubr
          hstem
          84 153 593 153 vstem
          -56 callsubr
          endchar
        </CharString>
        <CharString name="Oslashacute">
          87 callgsubr
          35 108 callsubr
          84 153 593 153 hintmask 11110011
          -56 callsubr
          hintmask 00001100
          -119 499 -103 callsubr
        </CharString>
        <CharString name="Otilde">
          -24 callsubr
          37 94 -44 94 14 callgsubr
          hintmask 11001100
          -106 callgsubr
          hintmask 00010000
          -38 488 -86 callsubr
        </CharString>
        <CharString name="P">
          -6 callsubr
        </CharString>
        <CharString name="Phi">
          994 0 60 104 51 -50 51 254 51 -50 51 104 60 hstemhm
          84 160 176 138 190 160 hintmask 0000110100000000
          908 343 rmoveto
          91 -121 77 -229 11 vhcurveto
          104 85 callgsubr
          vlineto
          hintmask 1011001100000000
          -105 vlineto
          -195 -10 -141 -68 -100 vvcurveto
          -100 142 -68 194 -10 vhcurveto
          82 callsubr
          vlineto
          hintmask 0101001110000000
          104 vlineto
          229 11 121 76 92 vvcurveto
          -488 -127 rmoveto
          -99 5 -77 30 92 vvcurveto
          93 79 29 97 5 vhcurveto
          hintmask 0010000100000000
          328 -127 rmoveto
          hintmask 0100100110000000
          -96 -82 -28 -108 -4 vhcurveto
          256 vlineto
          109 -4 81 -29 -95 vvcurveto
          endchar
        </CharString>
        <CharString name="Pi">
          140 callsubr
          559 103 callsubr
          559 106 60 -921 -60 106 -559 -12 callgsubr
          559 403 -559 -47 callgsubr
          endchar
        </CharString>
        <CharString name="Psi">
          1069 0 60 427 55 84 60 hstem
          165 138 154 138 169 138 vstem
          983 516 rmoveto
          26 -19 0 -17 vhcurveto
          -71 hlineto
          -77 -33 -56 -88 -2 hvcurveto
          -12 -3 -62 -40 -46 vhcurveto
          -15 -17 -34 -32 -77 -10 rrcurveto
          407 85 callgsubr
          -407 vlineto
          -103 17 -49 68 -2 96 rrcurveto
          81 -1 -32 61 -79 hhcurveto
          -71 hlineto
          -16 -20 0 -26 -23 19 -1 5 -1 hvcurveto
          55 -5 1 -61 1 -27 rrcurveto
          -9 3 -99 88 -64 vhcurveto
          66 -47 91 -11 44 -3 rrcurveto
          82 callsubr
          105 vlineto
          74 5 70 13 64 40 86 56 12 94 1 26 1 23 1 63 52 6 rrcurveto
          11 1 16 2 22 vvcurveto
          endchar
        </CharString>
        <CharString name="Q">
          1032 -194 167 13 56 -41 51 60 51 481 56 hstemhm
          84 160 152 51 339 160 hintmask 10101101
          954 -6 rmoveto
          6 0 23 -23 -3 -17 -1 -21 -3 vhcurveto
          -14 -2 -2 -14 -85 hhcurveto
          -40 -18 0 45 -47 hvcurveto
          154 54 78 128 138 vvcurveto
          189 -136 173 -295 -294 -137 -173 -189 vhcurveto
          hintmask 11011111
          -181 133 -171 298 3 54 0 8 53 vhcurveto
          -106 39 30 -82 98 hhcurveto
          107 55 108 80 hvcurveto
          -168 345 rmoveto
          -124 -33 -89 -91 -50 vhcurveto
          68 -56 -46 19 -46 hhcurveto
          -63 -55 -33 -54 -8 0 -2 1 -3 hvcurveto
          -149 54 -4 161 61 vvcurveto
          85 14 70 43 58 vhcurveto
          49 37 72 43 105 hhcurveto
          83 82 -27 -66 50 hvcurveto
          49 -65 7 -86 -61 vvcurveto
          -187 -287 rmoveto
          -10 -40 -29 0 -15 hhcurveto
          -15 -53 0 34 26 40 10 27 hvcurveto
          hintmask 00100000
          27 32 -9 -51 26 hvcurveto
          endchar
        </CharString>
        <CharString name="R">
          1019 -14 45 callsubr
          hintmask 10011100
          -77 callgsubr
          hintmask 01101000
          -63 callsubr
          hintmask 10111100
          -68 callsubr
          endchar
        </CharString>
        <CharString name="Racute">
          21 callgsubr
          82 -21 174 -20 79 callgsubr
          hintmask 10010011
          -77 callgsubr
          hintmask 01100010
          -63 callsubr
          hintmask 10110011
          -68 callsubr
          hintmask 00001100
          14 340 -103 callsubr
        </CharString>
        <CharString name="Rcaron">
          21 callgsubr
          72 -21 165 -20 79 callgsubr
          hintmask 10010011
          -77 callgsubr
          hintmask 01100010
          -63 callsubr
          hintmask 10110011
          -68 callsubr
          hintmask 00001100
          13 380 -59 callgsubr
        </CharString>
        <CharString name="Rcedilla">
          1019 -34 callsubr
          28 45 callsubr
          hintmask 0001001110000000
          -77 callgsubr
          hintmask 0000110100000000
          -63 callsubr
          hintmask 0011011110000000
          -68 callsubr
          -94 -638 -89 callsubr
          hintmask 0100000000000000
          -17 callsubr
          hintmask 1000000000000000
          -53 callgsubr
        </CharString>
        <CharString name="Rcommaaccent">
          1019 -34 callsubr
          28 45 callsubr
          hintmask 0001001110000000
          -77 callgsubr
          hintmask 0000110100000000
          -63 callsubr
          hintmask 0001011110000000
          -68 callsubr
          hintmask 0010000000000000
          -94 -638 -89 callsubr
          hintmask 0100000000000000
          -17 callsubr
          hintmask 1000000000000000
          -53 callgsubr
        </CharString>
        <CharString name="Rdblgrave">
          21 callgsubr
          82 130 callsubr
          79 callgsubr
          hintmask 10010011
          -77 callgsubr
          hintmask 01100010
          -63 callsubr
          hintmask 10110011
          -68 callsubr
          hintmask 00001100
          -22 295 -94 callsubr
        </CharString>
        <CharString name="Rdotaccent">
          21 callgsubr
          65 167 86 callsubr
          hintmask 10010101
          -77 callgsubr
          hintmask 01100100
          -63 callsubr
          hintmask 10110101
          -68 callsubr
          hintmask 00001010
          -79 336 -100 callgsubr
        </CharString>
        <CharString name="Rdotbelow">
          21 callgsubr
          86 callsubr
          hintmask 10011010
          -77 callgsubr
          hintmask 01101000
          -63 callsubr
          hintmask 10111010
          -68 callsubr
          hintmask 00000100
          -79 -615 -100 callgsubr
        </CharString>
        <CharString name="Rdotbelowmacron">
          21 callgsubr
          71 67 86 callsubr
          hintmask 10010101
          -77 callgsubr
          hintmask 01100100
          -63 callsubr
          hintmask 10110111
          -68 callsubr
          -79 -615 -99 callgsubr
          hintmask 00001000
          160 874 -25 callgsubr
        </CharString>
        <CharString name="Rho">
          -6 callsubr
        </CharString>
        <CharString name="S">
          77 callgsubr
          hstem
          84 102 395 102 vstem
          683 201 rmoveto
          -102 callgsubr
          rrcurveto
          -15 26 64 -35 147 hhcurveto
          208 59 127 88 hvcurveto
          endchar
        </CharString>
        <CharString name="S_S">
          1537 89 callgsubr
          hstem
          84 102 395 102 170 102 395 102 vstem
          683 201 rmoveto
          -102 callgsubr
          rrcurveto
          -15 26 64 -35 147 hhcurveto
          208 59 127 88 hvcurveto
          769 hmoveto
          -102 callgsubr
          rrcurveto
          -15 26 64 -35 147 hhcurveto
          208 59 127 88 hvcurveto
          endchar
        </CharString>
        <CharString name="Sacute">
          77 callgsubr
          68 108 callsubr
          84 102 395 102 hintmask 11100110
          683 201 rmoveto
          -102 callgsubr
          rrcurveto
          -15 26 64 -35 147 hhcurveto
          208 59 127 88 hvcurveto
          hintmask 00011000
          -122 637 -103 callsubr
        </CharString>
        <CharString name="Scaron">
          77 callgsubr
          58 -21 165 -20 hstemhm
          84 102 395 102 hintmask 11100110
          683 201 rmoveto
          -102 callgsubr
          rrcurveto
          -15 26 64 -35 147 hhcurveto
          208 59 127 88 hvcurveto
          hintmask 00011000
          -123 677 -59 callgsubr
        </CharString>
        <CharString name="Scedilla">
          769 -210 55 141 68 callsubr
          hstem
          84 102 395 102 vstem
          683 201 rmoveto
          -102 callgsubr
          22 -13 50 -27 105 -8 rrcurveto
          -51 28 callsubr
          rlineto
          -7 hlineto
          196 6 56 123 86 vvcurveto
          endchar
        </CharString>
        <CharString name="Scircumflex">
          77 callgsubr
          58 -21 165 -20 hstemhm
          84 102 395 102 hintmask 11100110
          683 201 rmoveto
          -102 callgsubr
          rrcurveto
          -15 26 64 -35 147 hhcurveto
          208 59 127 88 hvcurveto
          hintmask 00011000
          -123 560 -50 callgsubr
        </CharString>
        <CharString name="Sdotbelow">
          77 callgsubr
          hstemhm
          84 102 115 166 114 102 hintmask 11110100
          683 201 rmoveto
          -102 callgsubr
          rrcurveto
          -15 26 64 -35 147 hhcurveto
          208 59 127 88 hvcurveto
          hintmask 00001000
          -216 -318 -100 callgsubr
        </CharString>
        <CharString name="Sigma">
          994 0 78 548 60 hstem
          908 245 rmoveto
          -71 hlineto
          -12 -78 -46 -45 -39 -19 rrcurveto
          -25 -52 -124 0 -10 hhcurveto
          -285 hlineto
          294 241 rlineto
          12 10 4 3 11 vvcurveto
          3 0 8 -11 11 vhcurveto
          -257 261 rlineto
          236 hlineto
          132 130 -7 -160 28 hvcurveto
          71 hlineto
          -36 227 rlineto
          -752 hlineto
          -20 -16 0 -30 -14 0 -3 13 -13 hvcurveto
          316 -323 -315 -258 rlineto
          -8 -7 -6 -4 -11 vvcurveto
          -23 22 0 14 vhcurveto
          752 hlineto
          endchar
        </CharString>
        <CharString name="T">
          73 callsubr
          hstem
          401 153 vstem
          -82 callgsubr
          endchar
        </CharString>
        <CharString name="T_uni0303">
          73 callsubr
          66 131 callsubr
          401 153 hintmask 11001000
          -82 callgsubr
          hintmask 00010000
          -122 399 -86 callsubr
        </CharString>
        <CharString name="T_uni0308">
          73 callsubr
          66 150 hstemhm
          243 149 9 153 12 149 hintmask 11001000
          -82 callgsubr
          hintmask 00110100
          -434 367 -76 callsubr
        </CharString>
        <CharString name="Tau">
          73 callsubr
          hstem
          401 153 vstem
          -82 callgsubr
          endchar
        </CharString>
        <CharString name="Tcaron">
          73 callsubr
          87 -21 165 -20 hstemhm
          401 153 hintmask 11001000
          -82 callgsubr
          hintmask 00110000
          -172 434 -59 callgsubr
        </CharString>
        <CharString name="Tcedilla">
          957 -210 51 -47 51 92 52 11 149 callgsubr
          hstemhm
          401 153 -141 130 -18 130 hintmask 00011100
          -82 callgsubr
          -171 -553 rmoveto
          hintmask 00100010
          26 callsubr
          hintmask 01000001
          17 callgsubr
          hintmask 10000000
          24 callsubr
          hintmask 01000001
          -4 callgsubr
          endchar
        </CharString>
        <CharString name="Tdotbelow">
          73 callsubr
          hstemhm
          396 166 -161 153 hintmask 11010000
          -82 callgsubr
          hintmask 00100000
          -264 -561 -100 callgsubr
        </CharString>
        <CharString name="Theta">
          1069 -14 54 238 133 238 51 hstem
          84 152 76 71 301 71 76 152 vstem
          983 339 rmoveto
          180 -134 181 -315 -320 -130 -184 -177 -182 139 -171 310 314 136 173 180 vhcurveto
          -152 hmoveto
          -96 -23 -72 -54 -54 vhcurveto
          -59 -59 -86 -18 -75 hhcurveto
          -75 -82 18 51 -57 hvcurveto
          -67 62 -17 84 84 vvcurveto
          88 20 85 55 56 vhcurveto
          64 64 87 17 71 hhcurveto
          68 93 -15 -69 65 hvcurveto
          60 -65 12 -93 -68 vvcurveto
          -76 -95 rmoveto
          201 -71 -34 -301 34 -71 -201 71 34 301 -34 vlineto
          endchar
        </CharString>
        <CharString name="Thorn">
          863 1 59 118 60 272 60 56 59 hstem
          182 138 295 160 vstem
          775 374 rmoveto
          55 -33 141 -258 vhcurveto
          -164 56 106 59 hlineto
          -175 -3 -175 3 rlineto
          -59 106 -566 -106 -59 vlineto
          175 3 175 -3 rlineto
          59 -106 118 168 vlineto
          238 49 126 70 hvcurveto
          -160 1 rmoveto
          -37 -12 -39 -35 -27 vhcurveto
          -31 -40 -47 -3 -35 hhcurveto
          -126 272 141 hlineto
          26 128 0 -135 hvcurveto
          endchar
        </CharString>
        <CharString name="Tlinebelow">
          957 -149 67 82 149 callgsubr
          hstemhm
          401 153 hintmask 01110000
          -82 callgsubr
          hintmask 10000000
          -104 -593 -25 callgsubr
        </CharString>
        <CharString name="U">
          11 callgsubr
          hstem
          177 153 349 83 23 83 vstem
          -106 callsubr
          endchar
        </CharString>
        <CharString name="U_uni032F">
          1047 -190 149 callsubr
          7 60 580 60 -19 callsubr
          349 83 23 83 hintmask 00111110
          -106 callsubr
          hintmask 11000000
          -121 -836 -52 callsubr
        </CharString>
        <CharString name="Uacute">
          11 callgsubr
          34 callsubr
          177 153 349 83 23 83 hintmask 11001110
          -106 callsubr
          hintmask 00110000
          -158 213 -103 callsubr
        </CharString>
        <CharString name="Ubreve">
          11 callgsubr
          61 77 113 -20 -19 callsubr
          349 83 23 83 hintmask 11001110
          -106 callsubr
          hintmask 00110000
          -121 312 -87 callgsubr
        </CharString>
        <CharString name="Ucaron">
          11 callgsubr
          46 callsubr
          177 153 349 83 23 83 hintmask 11001110
          -106 callsubr
          hintmask 00110000
          -159 253 -59 callgsubr
        </CharString>
        <CharString name="Ucircumflex">
          11 callgsubr
          46 callsubr
          177 153 349 83 23 83 hintmask 11001110
          -106 callsubr
          hintmask 00110000
          -159 136 -50 callgsubr
        </CharString>
        <CharString name="Udblgrave">
          11 callgsubr
          82 130 callsubr
          -19 callsubr
          349 83 23 83 hintmask 11001110
          -106 callsubr
          hintmask 00110000
          -156 168 -94 callsubr
        </CharString>
        <CharString name="Udieresis">
          11 callgsubr
          51 150 -19 callsubr
          -11 34 callgsubr
          -112 83 23 83 hintmask 11010011
          -106 callsubr
          hintmask 00101100
          -21 callgsubr
          endchar
        </CharString>
        <CharString name="Udieresisacute">
          11 callgsubr
          51 150 126 callsubr
          177 153 -11 34 callgsubr
          -112 83 23 83 hintmask 1100010011000000
          -106 callsubr
          hintmask 0011101100000000
          -21 callgsubr
          -60 227 -103 callsubr
        </CharString>
        <CharString name="Udieresiscaron">
          11 callgsubr
          51 150 71 -21 165 -20 -19 callsubr
          -11 34 callgsubr
          -112 83 23 83 hintmask 1100010011000000
          -106 callsubr
          hintmask 0011101100000000
          -21 callgsubr
          -61 267 -59 callgsubr
        </CharString>
        <CharString name="Udieresisgrave">
          11 callgsubr
          51 150 126 callsubr
          177 153 -11 34 callgsubr
          -112 83 23 83 hintmask 1100010011000000
          -106 callsubr
          hintmask 0011101100000000
          -21 callgsubr
          -147 201 -72 callgsubr
        </CharString>
        <CharString name="Udotbelow">
          11 callgsubr
          -19 callsubr
          142 166 41 83 23 83 hintmask 11101100
          -106 callsubr
          hintmask 00010000
          -251 -742 -100 callgsubr
        </CharString>
        <CharString name="Ugrave">
          11 callgsubr
          34 callsubr
          177 153 349 83 23 83 hintmask 11001110
          -106 callsubr
          hintmask 00110000
          -245 187 -72 callgsubr
        </CharString>
        <CharString name="Uhookabove">
          11 callgsubr
          86 -21 190 -20 -19 callsubr
          349 83 23 83 hintmask 11001110
          -106 callsubr
          hintmask 00110000
          -203 251 -107 callgsubr
        </CharString>
        <CharString name="Uhorn">
          8 callsubr
          56 -56 60 133 -20 hstemhm
          141 callsubr
          455 83 7 133 hintmask 00110110
          -24 callgsubr
          hintmask 01000000
          -3 -14 -14 -1 -14 hhcurveto
          hintmask 10101100
          -55 callsubr
          hintmask 01000000
          -182 -4 rlineto
          hintmask 10101110
          -50 callsubr
          endchar
        </CharString>
        <CharString name="Uhornacute">
          8 callsubr
          56 -56 60 82 -21 72 -20 122 -69 callsubr
          hintmask 0001010000000000
          -313 105 -103 callsubr
        </CharString>
        <CharString name="Uhorndotbelow">
          8 callsubr
          56 -56 60 133 -20 hstemhm
          141 callsubr
          111 166 178 83 7 133 hintmask 00110011
          -24 callgsubr
          hintmask 01000000
          -3 -14 -14 -1 -14 hhcurveto
          hintmask 10101010
          -55 callsubr
          hintmask 01000000
          -182 -4 rlineto
          hintmask 10101011
          -50 callsubr
          hintmask 00000100
          -401 -850 -100 callgsubr
        </CharString>
        <CharString name="Uhorngrave">
          8 callsubr
          56 -56 60 82 -21 72 -20 122 -69 callsubr
          hintmask 0001010000000000
          -363 79 -72 callgsubr
        </CharString>
        <CharString name="Uhornhookabove">
          8 callsubr
          56 -56 60 86 -21 68 -20 142 -69 callsubr
          hintmask 0001110000000000
          -321 143 -107 callgsubr
        </CharString>
        <CharString name="Uhorntilde">
          8 callsubr
          56 -56 60 51 131 callsubr
          141 callsubr
          455 83 7 133 hintmask 00100011
          -24 callgsubr
          hintmask 01000000
          -3 -14 -14 -1 -14 hhcurveto
          hintmask 10100110
          -55 callsubr
          hintmask 01000000
          -182 -4 rlineto
          hintmask 10100111
          -50 callsubr
          hintmask 00001000
          -227 110 -92 callgsubr
        </CharString>
        <CharString name="Uhungarumlaut">
          11 callgsubr
          82 130 callsubr
          -19 callsubr
          349 83 23 83 hintmask 11001110
          -106 callsubr
          hintmask 00110000
          -321 255 -75 callgsubr
        </CharString>
        <CharString name="Umacron">
          11 callgsubr
          71 67 -19 callsubr
          349 83 23 83 hintmask 11011100
          -106 callsubr
          hintmask 00100000
          -91 132 -25 callgsubr
        </CharString>
        <CharString name="Uogonek">
          1047 119 callgsubr
          40 60 580 68 callgsubr
          349 83 23 83 vstem
          974 626 rmoveto
          60 vlineto
          -5 -87 -4 -55 hhcurveto
          -56 -78 3 1 -14 hvcurveto
          -74 callsubr
          -371 vlineto
          -139 -113 -48 -131 -182 -29 94 89 vhcurveto
          121 callsubr
          -182 -4 rlineto
          -5 -134 1 3 -44 hvcurveto
          -60 106 -394 vlineto
          -124 105 -114 231 -8 vhcurveto
          -27 -28 -20 -35 -32 -76 callgsubr
          -38 -32 37 42 15 hvcurveto
          6 17 10 15 13 12 rrcurveto
          190 21 73 114 106 vvcurveto
          373 vlineto
          18 1 1 20 2 vhcurveto
          endchar
        </CharString>
        <CharString name="Upsilon">
          1069 0 60 406 60 49 125 hstem
          84 85 288 153 288 85 cntrmask 00011100
          983 553 rmoveto
          79 -84 68 -109 -143 -85 -123 -111 -28 vhcurveto
          -1 hlineto
          129 -35 -89 105 -132 hhcurveto
          -109 -84 -68 -79 -27 18 0 17 hvcurveto
          13 hlineto
          16 15 0 19 4 hvcurveto
          16 3 3 14 93 hhcurveto
          156 35 -158 -74 hvcurveto
          -283 -133 -60 vlineto
          4 48 108 0 53 hhcurveto
          53 109 0 -4 48 hvcurveto
          60 -133 283 vlineto
          76 36 156 155 94 3 -15 -13 2 vhcurveto
          -21 4 14 0 17 hhcurveto
          13 hlineto
          17 18 0 27 hvcurveto
          endchar
        </CharString>
        <CharString name="Uring">
          11 callgsubr
          21 47 74 47 -19 callsubr
          77 80 136 80 -24 83 23 83 hintmask 1100100110000000
          -106 callsubr
          hintmask 0011011000000000
          -266 166 -57 callgsubr
        </CharString>
        <CharString name="Utilde">
          11 callgsubr
          51 94 -44 94 -19 callsubr
          349 83 23 83 hintmask 11001110
          -106 callsubr
          hintmask 00010000
          -109 218 -32 callgsubr
          hintmask 00011000
          -81 callsubr
        </CharString>
        <CharString name="V">
          1029 7 -21 636 60 -56 60 hstemhm
          hintmask 00100000
          985 626 rmoveto
          60 vlineto
          hintmask 01000000
          -3 -35 -77 -1 -15 hhcurveto
          hintmask 00100000
          -147 4 rlineto
          -60 20 vlineto
          hintmask 01000000
          37 2 0 -4 25 hvcurveto
          -247 -496 rlineto
          hintmask 00100000
          -248 500 rlineto
          85 130 callgsubr
          -4 -53 -74 0 -54 hhcurveto
          hintmask 10100000
          -162 4 rlineto
          -60 95 vlineto
          304 -611 rlineto
          -29 14 17 0 21 hhcurveto
          41 hlineto
          22 15 0 28 14 hvcurveto
          296 596 6 12 1 1 20 2 rlinecurve
          1 11 19 0 11 hhcurveto
          endchar
        </CharString>
        <CharString name="W">
          94 callgsubr
          hstem
          -84 callgsubr
          endchar
        </CharString>
        <CharString name="Wacute">
          94 callgsubr
          34 callsubr
          hintmask 11000000
          -84 callgsubr
          hintmask 00110000
          -413 213 -103 callsubr
        </CharString>
        <CharString name="Wcircumflex">
          94 callgsubr
          46 callsubr
          hintmask 11000000
          -84 callgsubr
          hintmask 00110000
          -414 136 -50 callgsubr
        </CharString>
        <CharString name="Wdieresis">
          94 callgsubr
          51 150 hstemhm
          466 34 callgsubr
          hintmask 11000000
          -84 callgsubr
          hintmask 00111000
          -676 -2 callsubr
          endchar
        </CharString>
        <CharString name="Wgrave">
          94 callgsubr
          34 callsubr
          hintmask 11000000
          -84 callgsubr
          hintmask 00110000
          -500 187 -72 callgsubr
        </CharString>
        <CharString name="X">
          -44 callsubr
        </CharString>
        <CharString name="Xi">
          919 0 122 -122 128 77 -20 103 122 86 -21 68 128 -122 122 hstemhm
          65 71 -63 71 52 71 383 71 52 71 -63 71 hintmask 0000110010000000
          844 475 rmoveto
          -11 196 rlineto
          -749 hlineto
          -11 -196 rlineto
          71 hlineto
          1 17 3 44 14 8 rrcurveto
          hintmask 0000001000000000
          4 8 60 1 13 hhcurveto
          431 hlineto
          hintmask 0000110000010000
          12 61 0 -6 8 hvcurveto
          16 -10 2 -47 -11 vvcurveto
          79 -270 rmoveto
          hintmask 0110000000001000
          -71 hlineto
          -1 -13 -2 -56 -15 -8 rrcurveto
          hintmask 1000000000000000
          -6 -12 -60 0 -15 hhcurveto
          -435 hlineto
          hintmask 0111000101101000
          -15 -60 0 6 -12 hvcurveto
          -15 8 -2 56 -1 13 rrcurveto
          -71 hlineto
          11 -205 rlineto
          765 hlineto
          -120 245 rmoveto
          208 -71 -43 -383 43 -71 -208 71 43 383 -43 vlineto
          endchar
        </CharString>
        <CharString name="Y">
          25 callgsubr
          hstemhm
          441 13 callgsubr
          hintmask 10110000
          -172 4 rlineto
          -60 104 vlineto
          298 -352 rlineto
          -214 0 callsubr
          215 vlineto
          285 338 9 10 1 0 23 2 rlinecurve
          1 12 18 0 12 hhcurveto
          endchar
        </CharString>
        <CharString name="Yacute">
          25 callgsubr
          34 callsubr
          441 146 -84 callsubr
          hintmask 00011000
          -256 212 -103 callsubr
        </CharString>
        <CharString name="Ycircumflex">
          25 callgsubr
          46 callsubr
          441 146 -84 callsubr
          hintmask 00011000
          -257 135 -50 callgsubr
        </CharString>
        <CharString name="Ydieresis">
          25 callgsubr
          51 150 hstemhm
          279 149 13 146 15 149 -84 callsubr
          hintmask 00011010
          -519 185 -76 callsubr
        </CharString>
        <CharString name="Ydotbelow">
          25 callgsubr
          hstemhm
          432 166 -157 13 callgsubr
          hintmask 10101000
          -172 4 rlineto
          -60 104 vlineto
          298 -352 rlineto
          -214 0 callsubr
          215 vlineto
          285 338 9 10 1 0 23 2 rlinecurve
          1 12 18 0 12 hhcurveto
          hintmask 00010000
          -349 -743 -100 callgsubr
        </CharString>
        <CharString name="Ygrave">
          25 callgsubr
          34 callsubr
          441 146 -84 callsubr
          hintmask 00011000
          -343 186 -72 callgsubr
        </CharString>
        <CharString name="Yhookabove">
          25 callgsubr
          86 -21 190 -20 hstemhm
          441 146 -84 callsubr
          hintmask 00011000
          -301 250 -107 callgsubr
        </CharString>
        <CharString name="Ytilde">
          25 callgsubr
          51 131 callsubr
          441 146 -84 callsubr
          hintmask 00001000
          -207 217 -92 callgsubr
        </CharString>
        <CharString name="Z">
          73 callgsubr
          hstem
          -64 callsubr
          endchar
        </CharString>
        <CharString name="Zacute">
          73 callgsubr
          34 callsubr
          -35 callgsubr
          -146 838 -103 callsubr
        </CharString>
        <CharString name="Zcaron">
          73 callgsubr
          46 callsubr
          -35 callgsubr
          -147 878 -59 callgsubr
        </CharString>
        <CharString name="Zdotaccent">
          73 callgsubr
          65 167 hstemhm
          339 166 -35 callgsubr
          -239 834 -100 callgsubr
        </CharString>
        <CharString name="Zdotbelow">
          73 callgsubr
          hstemhm
          339 166 -33 callgsubr
          hintmask 00100000
          -239 -117 -100 callgsubr
        </CharString>
        <CharString name="Zeta">
          73 callgsubr
          hstem
          -64 callsubr
          endchar
        </CharString>
        <CharString name="a">
          -19 callgsubr
          7 callgsubr
          hintmask 01011000
          -105 callsubr
          hintmask 10101000
          -104 callgsubr
          endchar
        </CharString>
        <CharString name="aacute">
          -19 callgsubr
          65 -21 203 -102 callsubr
          83 406 -89 callgsubr
        </CharString>
        <CharString name="abreve">
          -19 callgsubr
          51 77 113 -102 callsubr
          125 471 -87 callgsubr
        </CharString>
        <CharString name="abreveacute">
          -19 callgsubr
          51 77 322 -102 callsubr
          125 471 -101 callgsubr
          -82 126 -103 callsubr
        </CharString>
        <CharString name="abrevedotbelow">
          -19 callgsubr
          51 77 113 -20 42 callgsubr
          36 166 5 130 hintmask 01000101
          -105 callsubr
          hintmask 10111001
          -104 callgsubr
          125 471 -101 callgsubr
          hintmask 00000010
          -130 -813 -100 callgsubr
        </CharString>
        <CharString name="abrevegrave">
          -19 callgsubr
          51 77 113 -102 callsubr
          125 471 -101 callgsubr
          -79 100 rmoveto
          -26 -65 -185 41 -29 7 -21 17 -4 26 rlinecurve
          41 -12 31 42 43 hhcurveto
          10 12 -3 -8 15 hvcurveto
          endchar
        </CharString>
        <CharString name="abrevehookabove">
          -19 callgsubr
          51 77 128 77 113 -20 7 callgsubr
          hintmask 01000011
          -105 callsubr
          hintmask 10000101
          -104 callgsubr
          hintmask 00111001
          125 471 -101 callgsubr
          -81 140 -107 callgsubr
        </CharString>
        <CharString name="abrevetilde">
          -19 callgsubr
          51 77 113 77 -22 94 -44 94 7 callgsubr
          hintmask 0100000110000000
          -105 callsubr
          hintmask 1000001010000000
          -104 callgsubr
          hintmask 0011010000000000
          125 471 -101 callgsubr
          12 161 26 callgsubr
          hintmask 0000100000000000
          -78 callgsubr
          hintmask 0000010000000000
          -92 callsubr
          hintmask 0000100000000000
          34 -38 rlineto
          hintmask 0001010000000000
          -79 callsubr
          hintmask 0000100000000000
          -94 callgsubr
        </CharString>
        <CharString name="acaron">
          -19 callgsubr
          63 -21 207 -102 callsubr
          89 457 -51 callgsubr
        </CharString>
        <CharString name="acircumflex">
          -19 callgsubr
          63 -21 207 -102 callsubr
          89 294 -60 callsubr
          endchar
        </CharString>
        <CharString name="acircumflexacute">
          -19 callgsubr
          63 -21 374 -102 callsubr
          87 296 -65 callgsubr
        </CharString>
        <CharString name="acircumflexdotbelow">
          -19 callgsubr
          63 -21 207 -20 42 callgsubr
          36 166 5 130 hintmask 01000101
          -105 callsubr
          hintmask 10111001
          -104 callgsubr
          89 294 -60 callsubr
          hintmask 00000010
          -74 -614 -100 callgsubr
        </CharString>
        <CharString name="acircumflexgrave">
          -19 callgsubr
          63 -21 165 -102 callsubr
          87 296 -70 callsubr
        </CharString>
        <CharString name="acircumflexhookabove">
          -19 callgsubr
          63 -21 370 -104 callsubr
          hintmask 00110010
          87 296 -95 callsubr
          104 305 -107 callgsubr
        </CharString>
        <CharString name="acircumflextilde">
          -19 callgsubr
          63 -21 220 94 -44 94 7 callgsubr
          hintmask 01000011
          -105 callsubr
          hintmask 10000101
          -104 callgsubr
          hintmask 00101000
          87 296 rmoveto
          -175 141 -175 -141 14 -24 160 58 160 -58 rlineto
          66 326 -92 callgsubr
        </CharString>
        <CharString name="acute">
          694 520 51 callgsubr
          518 631 -89 callgsubr
        </CharString>
        <CharString name="acute.cap">
          132 callgsubr
          131 callgsubr
          hstem
          523 596 -103 callsubr
        </CharString>
        <CharString name="acute.dup">
          694 520 51 callgsubr
          518 631 -89 callgsubr
        </CharString>
        <CharString name="acute.ts1">
          693 523 -21 201 -20 hstem
          542 632 rmoveto
          35 -29 36 -36 -24 -17 -15 -14 -17 vhcurveto
          -133 -112 8 -15 10 -14 9 -15 rlinecurve
          2 -4 4 -10 5 -2 rrcurveto
          2 hlineto
          10 25 13 7 16 hvcurveto
          108 46 rlineto
          28 12 29 12 40 vvcurveto
          endchar
        </CharString>
        <CharString name="adblgrave">
          -19 callgsubr
          65 -21 203 -104 callsubr
          hintmask 00111000
          90 320 -94 callsubr
        </CharString>
        <CharString name="adieresis">
          -19 callgsubr
          71 150 42 callgsubr
          -92 29 callsubr
          -123 130 hintmask 01001001
          -105 callsubr
          hintmask 10010001
          -104 callgsubr
          hintmask 00100110
          -150 375 -60 callgsubr
        </CharString>
        <CharString name="adotbelow">
          -19 callgsubr
          42 callgsubr
          36 166 5 130 hintmask 01010100
          -105 callsubr
          hintmask 10100100
          -104 callgsubr
          hintmask 00001000
          -5 -342 -100 callgsubr
        </CharString>
        <CharString name="ae">
          -56 callgsubr
        </CharString>
        <CharString name="ae.dup">
          -56 callgsubr
        </CharString>
        <CharString name="aeacute">
          994 -7 51 -51 56 152 47 -44 47 99 47 7 51 65 130 callsubr
          hstemhm
          94 144 -52 101 14 131 -1 131 283 101 hintmask 0101110010011000
          946 -49 callsubr
          -51 -84 -8 -51 -65 hvcurveto
          59 -71 -99 0 -43 hhcurveto
          -65 -143 0 -104 -49 39 -24 33 36 36 27 45 15 -4 14 -8 13 hvcurveto
          -2 4 rlineto
          hintmask 0000010000100000
          6 69 2 8 vhcurveto
          hintmask 0110000000011000
          82 48 -34 -79 hvcurveto
          -43 -21 vlineto
          -52 -82 -7 -12 -58 hvcurveto
          -86 -19 -75 -28 -71 vvcurveto
          -118 174 0 49 104 87 11 50 46 vhcurveto
          -52 72 85 -9 58 hhcurveto
          180 34 108 12 hvcurveto
          -101 138 rmoveto
          hintmask 1001010001011000
          -283 hlineto
          66 2 26 87 125 hhcurveto
          93 35 -66 -87 2 hvcurveto
          -394 -126 rmoveto
          -78 -134 -3 -23 -64 -44 29 39 45 71 20 30 7 vhcurveto
          hintmask 0010000000100000
          8 2 51 13 86 2 3 -23 8 -23 5 -13 rrcurveto
          3 -6 0 -11 0 vvcurveto
          hintmask 0000001100000000
          217 506 -89 callgsubr
        </CharString>
        <CharString name="agrave">
          -19 callgsubr
          65 -21 203 -102 callsubr
          -2 334 -62 callgsubr
        </CharString>
        <CharString name="ahookabove">
          -19 callgsubr
          72 -21 190 -102 callsubr
          43 406 -107 callgsubr
        </CharString>
        <CharString name="amacron">
          -19 callgsubr
          112 67 7 callgsubr
          hintmask 01001100
          -105 callsubr
          hintmask 10010100
          -104 callgsubr
          hintmask 00100000
          155 342 -25 callgsubr
        </CharString>
        <CharString name="ampersand">
          1069 -14 60 338 60 213 51 hstemhm
          65 144 214 144 -71 71 345 71 hintmask 11110110
          991 384 rmoveto
          60 vlineto
          -3 -34 -41 -1 -34 hhcurveto
          -50 -70 3 1 -16 hvcurveto
          -60 vlineto
          5 57 0 -5 0 -67 -84 -33 -37 hvcurveto
          -49 -53 -35 -31 -42 -32 rrcurveto
          0 -137 112 -59 110 vhcurveto
          113 79 68 61 62 vvcurveto
          67 -54 75 -91 -95 -115 -64 -127 -64 18 -59 19 -47 vhcurveto
          4 -7 0 -3 0 vvcurveto
          -9 -8 -113 -77 rlineto
          -65 -44 -1 -48 -17 vvcurveto
          -101 108 -56 136 96 82 32 24 47 vhcurveto
          -37 82 86 -19 88 hhcurveto
          97 93 39 88 3 hvcurveto
          -71 hlineto
          -67 -5 -94 0 -17 hhcurveto
          -58 -53 21 36 -53 hvcurveto
          96 73 62 77 52 63 13 16 38 46 2 1 rrcurveto
          5 8 42 0 11 hhcurveto
          -460 181 rmoveto
          -48 -58 -53 -74 -53 vhcurveto
          -33 72 0 61 14 vvcurveto
          hintmask 00101000
          76 60 23 32 vhcurveto
          hintmask 10010100
          49 24 -53 -39 hvcurveto
          -25 -487 rmoveto
          -20 -46 -50 -12 -50 hhcurveto
          -79 -37 70 56 49 21 41 47 28 hvcurveto
          47 -75 62 -80 85 -57 rrcurveto
          endchar
        </CharString>
        <CharString name="anglearc">
          1069 -178 -21 900 -20 hstem
          744 78 vstem
          983 39 rmoveto
          18 -12 15 -17 5 vhcurveto
          -145 37 rlineto
          8 45 5 46 46 vvcurveto
          46 -5 46 -8 45 vhcurveto
          145 37 rlineto
          17 5 12 15 18 vvcurveto
          26 -24 18 -25 -6 vhcurveto
          -145 -38 -26 81 -40 75 -53 67 rlinecurve
          9 -7 -11 6 -12 hhcurveto
          -22 -17 -17 -22 -9 3 -9 5 -6 hvcurveto
          46 -59 36 -65 22 -70 -600 -155 rcurveline
          -17 -5 -12 -15 -18 vvcurveto
          -18 12 -15 17 -5 vhcurveto
          600 -155 -22 -70 -36 -65 -46 -59 rlinecurve
          -5 -6 -3 -9 -9 vvcurveto
          -22 17 -17 22 12 11 6 9 7 vhcurveto
          53 67 40 75 26 81 145 -38 rcurveline
          25 -6 24 18 26 vvcurveto
          -239 212 rmoveto
          -40 -4 -39 -7 -38 vhcurveto
          -454 117 454 117 rlineto
          7 -38 4 -39 -40 vvcurveto
          endchar
        </CharString>
        <CharString name="angleleft">
          543 -229 -21 1000 -20 21 -20 hstemhm
          hintmask 00100000
          457 -210 rmoveto
          23 -20 28 -11 22 vhcurveto
          -146 305 -27 57 rlineto
          -4 7 -7 12 7 vvcurveto
          8 10 14 4 10 vhcurveto
          55 106 49 109 51 108 30 63 rcurveline
          6 12 9 13 1 14 rrcurveto
          3 vlineto
          22 -19 18 -21 vhcurveto
          hintmask 11000000
          -6 -1 -24 -3 -8 -24 -9 -19 rlinecurve
          -201 -419 rlineto
          -6 -11 -6 -12 -13 vvcurveto
          2 -26 23 -34 13 -28 61 -119 54 -124 59 -120 10 -21 9 -25 27 -2 rrcurveto
          26 16 18 22 hvcurveto
          endchar
        </CharString>
        <CharString name="angleright">
          543 -229 -21 1001 -20 hstem
          384 251 rmoveto
          13 -7 12 -6 11 vhcurveto
          -27 57 -173 361 -10 19 -7 23 -25 4 rlinecurve
          -4 -4 0 -1 -4 hvcurveto
          -19 -2 -14 -18 -18 vvcurveto
          -22 19 -26 10 -23 vhcurveto
          175 -364 rlineto
          3 -8 8 -11 -8 vvcurveto
          -8 -10 -14 -4 -10 vhcurveto
          -66 -125 -56 -130 -61 -127 -7 -13 -9 -14 -2 -14 rrcurveto
          -5 vlineto
          -22 18 -18 22 28 8 25 19 10 vhcurveto
          201 420 rlineto
          6 12 7 12 13 vvcurveto
          endchar
        </CharString>
        <CharString name="aogonek">
          115 callgsubr
          7 callgsubr
          hintmask 00110110
          -105 callsubr
          hintmask 11001000
          -51 -4 -232 -19 -125 vvcurveto
          -125 190 0 32 100 57 34 34 24 vhcurveto
          2 -23 12 -15 16 -9 rrcurveto
          -40 -32 -36 -48 -43 -76 callgsubr
          hintmask 00100000
          -55 -40 76 57 86 hvcurveto
          66 hlineto
          20 16 0 30 hvcurveto
          -233 105 rmoveto
          -22 0 -27 -43 -21 vhcurveto
          hintmask 01001010
          -21 -40 -47 0 -9 hhcurveto
          -64 -50 30 45 58 83 23 23 6 hvcurveto
          21 6 34 9 92 4 rrcurveto
          endchar
        </CharString>
        <CharString name="aogonekacute">
          115 callgsubr
          65 130 callsubr
          7 callgsubr
          hintmask 0011000110000000
          -105 callsubr
          hintmask 1100001000000000
          -51 -4 -232 -19 -125 vvcurveto
          -125 190 0 32 100 57 34 34 24 vhcurveto
          2 -23 12 -15 16 -9 rrcurveto
          -40 -32 -36 -48 -43 -76 callgsubr
          hintmask 0010000000000000
          -55 -40 76 57 86 hvcurveto
          66 hlineto
          20 16 0 30 hvcurveto
          -233 105 rmoveto
          -22 0 -27 -43 -21 vhcurveto
          hintmask 0100001010000000
          -21 -40 -47 0 -9 hhcurveto
          -64 -50 30 45 58 83 23 23 6 hvcurveto
          21 6 34 9 92 4 rrcurveto
          hintmask 0000110000000000
          83 406 -89 callgsubr
        </CharString>
        <CharString name="aring">
          -19 callgsubr
          75 47 74 47 42 callgsubr
          -30 80 136 80 -59 130 hintmask 0100010010000000
          -105 callsubr
          hintmask 1000100010000000
          -104 callgsubr
          hintmask 0011001100000000
          -21 389 -57 callgsubr
        </CharString>
        <CharString name="aringacute">
          -19 callgsubr
          75 129 callgsubr
          42 callgsubr
          -30 80 136 80 -59 130 hintmask 0100001001000000
          -105 callsubr
          hintmask 1000010001000000
          -104 callgsubr
          hintmask 0011100110000000
          -21 389 -80 callgsubr
          -17 211 -103 callsubr
        </CharString>
        <CharString name="asciicircum">
          556 583 -21 123 59 hstem
          -5 566 vstem
          561 584 rmoveto
          -283 160 -283 -160 11 -22 271 123 272 -123 rlineto
          endchar
        </CharString>
        <CharString name="asciitilde">
          556 193 43 -25 43 -8 43 -25 43 hstemhm
          hintmask 10010000
          555 290 51 callsubr
          hintmask 01000000
          32 callsubr
          hintmask 00100000
          20 10 20 11 17 14 rrcurveto
          endchar
        </CharString>
        <CharString name="asciitilde.low">
          556 0 43 -25 43 -8 43 -25 43 hstemhm
          0 555 hintmask 10010000
          555 97 51 callsubr
          hintmask 01001000
          32 callsubr
          hintmask 00101000
          20 10 20 11 17 14 rrcurveto
          endchar
        </CharString>
        <CharString name="asterisk">
          694 327 -21 444 -20 hstem
          293 106 vstem
          595 441 rmoveto
          36 -27 8 -12 3 vhcurveto
          -136 40 136 40 rlineto
          12 3 27 8 36 vvcurveto
          27 -21 29 -31 -13 -4 -3 -16 -25 vhcurveto
          -126 -80 22 120 rlineto
          1 3 1 7 3 vvcurveto
          24 -24 21 -29 -29 -24 -21 -24 -3 2 -8 1 -7 vhcurveto
          21 -116 -139 89 rlineto
          9 -14 -3 2 -12 hhcurveto
          -31 -21 -29 -27 -36 27 -8 12 -3 hvcurveto
          136 -40 -136 -40 rlineto
          -12 -3 -27 -8 -36 vvcurveto
          -27 21 -29 31 13 4 3 16 25 vhcurveto
          126 80 -22 -120 rlineto
          -1 -3 -1 -7 -3 vvcurveto
          -24 24 -21 29 29 24 21 24 3 -2 8 -1 7 vhcurveto
          -21 116 139 -89 rlineto
          -9 14 3 -2 12 hhcurveto
          31 21 29 27 hvcurveto
          endchar
        </CharString>
        <CharString name="asterisk.math">
          693 50 -21 444 -20 hstem
          270 105 -82 105 -82 105 cntrmask 00111000
          594 166 rmoveto
          37 -33 8 -30 7 vhcurveto
          -37 11 -37 9 -36 13 36 13 37 9 37 11 rrcurveto
          30 7 33 8 37 vvcurveto
          28 -23 30 -30 vhcurveto
          -5 hlineto
          -17 -2 -19 -16 -15 -10 -110 -71 rcurveline
          1 12 3 13 2 12 12 62 rcurveline
          2 11 3 10 11 vvcurveto
          31 -27 16 -26 -26 -26 -16 -31 -11 4 -12 2 -11 vhcurveto
          6 -32 7 -33 4 -32 -45 30 -47 28 -45 30 -7 5 -8 5 -9 1 rrcurveto
          -5 hlineto
          -30 -23 -30 -28 -37 33 -8 30 -7 hvcurveto
          37 -11 37 -9 36 -13 -36 -13 -37 -9 -37 -11 rrcurveto
          -30 -7 -33 -8 -37 vvcurveto
          -28 23 -30 30 vhcurveto
          5 hlineto
          17 2 19 16 15 10 110 71 rcurveline
          -1 -12 -3 -13 -2 -12 -12 -62 rcurveline
          -2 -11 -3 -10 -11 vvcurveto
          -31 26 -16 26 26 27 17 30 11 -4 12 -2 11 vhcurveto
          -6 32 -7 33 -4 32 45 -30 47 -28 45 -30 7 -5 8 -5 9 -1 rrcurveto
          5 hlineto
          30 23 30 28 hvcurveto
          endchar
        </CharString>
        <CharString name="at">
          1069 -7 51 80 51 0 51 293 51 80 51 hstemhm
          84 71 109 130 279 130 109 71 hintmask 1011111110000000
          983 84 rmoveto
          21 -20 0 -14 vhcurveto
          -29 hlineto
          -15 -2 0 -9 -26 hvcurveto
          -32 -100 -123 -20 -116 hhcurveto
          -289 -94 165 138 160 120 143 258 246 133 -130 -177 -39 -5 -129 -73 -31 0 39 12 hvcurveto
          226 vlineto
          29 -3 6 -34 vhcurveto
          -39 hlineto
          55 -42 -70 28 -83 hhcurveto
          -177 -91 -104 -119 hvcurveto
          hintmask 1101111110000000
          -120 93 -103 175 39 60 5 40 58 vhcurveto
          -45 36 81 0 17 hhcurveto
          124 36 135 87 182 -139 173 -310 -320 -130 -182 -172 -158 113 -196 341 242 191 72 2 2 hvcurveto
          10 6 0 11 0 vvcurveto
          -310 156 rmoveto
          -53 -38 -61 -12 -39 hhcurveto
          -82 -59 60 112 113 61 59 80 50 55 -18 -47 33 hvcurveto
          endchar
        </CharString>
        <CharString name="atilde">
          -19 callgsubr
          74 94 -44 94 -105 callgsubr
          hintmask 00010000
          137 410 -86 callsubr
        </CharString>
        <CharString name="b">
          769 -7 51 356 51 175 68 hstem
          91 callgsubr
          311 144 vstem
          122 callsubr
          -104 -65 -40 -4 -6 vhcurveto
          287 vlineto
          -192 -88 callsubr
          -587 30 callsubr
          106 callgsubr
        </CharString>
        <CharString name="backslash">
          575 750 -20 hstem
          510 -219 rmoveto
          6 -1 1 -5 13 vhcurveto
          -377 919 rlineto
          17 -7 -5 13 -21 hhcurveto
          -14 -16 -11 -20 -6 1 -1 5 -13 hvcurveto
          377 -919 rlineto
          -15 6 6 -15 21 hhcurveto
          14 16 11 20 hvcurveto
          endchar
        </CharString>
        <CharString name="baht">
          974 -60 60 0 60 271 51 244 60 0 60 hstemhm
          183 138 128 60 2 152 36 152 -123 160 hintmask 0000101110000000
          888 188 rmoveto
          85 -82 70 -143 16 vhcurveto
          131 25 57 63 65 vvcurveto
          96 -108 78 -181 vhcurveto
          -53 60 143 callgsubr
          -60 -372 vlineto
          hintmask 0101011000000000
          -60 106 48 callsubr
          372 vlineto
          hintmask 1011001101000000
          -60 vlineto
          -17 13 -13 17 16 14 13 17 vhcurveto
          60 89 vlineto
          187 103 87 101 hvcurveto
          -189 323 rmoveto
          -48 -36 -81 -152 vhcurveto
          -2 244 41 hlineto
          hintmask 0111011010000000
          114 35 -65 -50 hvcurveto
          -250 -129 rmoveto
          -128 244 128 hlineto
          279 -436 rmoveto
          -79 -67 -51 -109 vhcurveto
          -43 271 61 hlineto
          hintmask 0110011001000000
          105 53 -64 -77 hvcurveto
          -279 -130 rmoveto
          -128 271 128 hlineto
          endchar
        </CharString>
        <CharString name="bar">
          319 750 -20 hstem
          129 61 vstem
          190 -206 rmoveto
          23 callgsubr
          endchar
        </CharString>
        <CharString name="bigcircle">
          66 callgsubr
          530 78 vstem
          -64 callgsubr
          endchar
        </CharString>
        <CharString name="blanksymbol">
          769 -7 51 356 51 -44 68 151 68 100 callsubr
          311 144 hintmask 01000000
          122 callsubr
          vhcurveto
          hintmask 10111100
          -104 -65 -40 -4 -6 hvcurveto
          115 vlineto
          141 95 rlineto
          8 6 5 9 10 vvcurveto
          24 -27 14 -20 -13 vhcurveto
          -107 -72 rlineto
          99 vlineto
          -192 -88 callsubr
          -75 vlineto
          -56 -37 rlineto
          -8 -6 -5 -9 -10 vvcurveto
          -24 27 -14 20 13 vhcurveto
          22 15 rlineto
          -440 30 callsubr
          hintmask 01000100
          106 callgsubr
        </CharString>
        <CharString name="braceleft">
          81 callgsubr
          -232 rmoveto
          13 -5 4 -12 1 vhcurveto
          -84 5 -37 35 -12 36 rrcurveto
          -3 10 0 8 17 vvcurveto
          237 vlineto
          -1 42 -32 51 -86 23 rrcurveto
          119 32 0 69 45 vvcurveto
          210 vlineto
          22 0 29 39 29 vhcurveto
          11 7 29 18 52 3 rrcurveto
          14 1 8 0 17 vvcurveto
          18 -9 0 -22 -142 -90 -50 -77 -1 vhcurveto
          -206 vlineto
          -62 0 -21 -33 -29 vhcurveto
          -23 -21 -35 -14 -41 -2 rrcurveto
          -14 -1 -8 0 -17 vvcurveto
          -13 5 -4 12 -1 vhcurveto
          90 -5 36 -45 9 -36 rrcurveto
          2 -8 0 -2 -37 vvcurveto
          -210 vlineto
          -128 166 -11 67 22 9 0 18 vhcurveto
          endchar
        </CharString>
        <CharString name="braceright">
          81 callgsubr
          250 rmoveto
          13 -5 4 -12 1 vhcurveto
          -64 3 -52 26 -17 55 rrcurveto
          -3 8 0 2 39 vvcurveto
          210 vlineto
          123 -152 16 -82 -21 -10 0 -18 -13 5 -4 12 -1 vhcurveto
          81 -4 41 -33 12 -39 rrcurveto
          3 -10 0 -8 -17 vvcurveto
          -237 vlineto
          1 -42 31 -50 87 -24 rrcurveto
          -119 -32 0 -68 -46 vvcurveto
          -210 vlineto
          -23 0 -26 -37 -29 vhcurveto
          -10 -7 -31 -20 -54 -3 rrcurveto
          -14 -1 -8 0 -17 vvcurveto
          -18 10 0 21 150 83 54 73 1 vhcurveto
          206 vlineto
          65 0 17 34 31 vhcurveto
          11 11 33 22 53 3 rrcurveto
          14 1 8 0 17 vvcurveto
          endchar
        </CharString>
        <CharString name="bracketleft">
          395 -250 79 842 79 hstem
          156 79 vstem
          355 -250 rmoveto
          79 -120 842 120 79 -199 -1000 vlineto
          endchar
        </CharString>
        <CharString name="bracketright">
          395 -250 79 842 79 hstem
          158 79 vstem
          237 -250 rmoveto
          1000 -199 -79 120 -842 -120 -79 vlineto
          endchar
        </CharString>
        <CharString name="breve">
          694 506 77 113 -20 hstem
          560 696 -87 callgsubr
        </CharString>
        <CharString name="breve.cap">
          694 505 77 113 -20 hstem
          560 695 -87 callgsubr
        </CharString>
        <CharString name="breve.ts1">
          843 505 77 113 -20 hstem
          133 51 473 51 vstem
          708 695 rmoveto
          -51 hlineto
          -107 -151 -6 -86 -85 -151 5 108 vhcurveto
          -51 hlineto
          -142 168 -48 117 118 172 44 146 vhcurveto
          endchar
        </CharString>
        <CharString name="brokenbar">
          319 750 -20 hstem
          129 61 vstem
          190 341 rmoveto
          365 vlineto
          14 0 30 -30 -31 0 -29 -15 vhcurveto
          -365 vlineto
          -16 14 -14 17 16 14 14 16 vhcurveto
          -547 vmoveto
          365 vlineto
          16 -14 14 -16 -17 -14 -14 -16 vhcurveto
          -365 35 callsubr
          endchar
        </CharString>
        <CharString name="bullet">
          1069 65 304 hstem
          382 304 70 callgsubr
          endchar
        </CharString>
        <CharString name="c">
          24 callgsubr
          hstem
          74 callgsubr
          vstem
          -78 callsubr
          endchar
        </CharString>
        <CharString name="cacute">
          24 callgsubr
          65 130 callsubr
          hstemhm
          74 callgsubr
          hintmask 11100110
          -78 callsubr
          hintmask 00011000
          -60 518 -89 callgsubr
        </CharString>
        <CharString name="caron">
          694 90 callgsubr
          524 682 -51 callgsubr
        </CharString>
        <CharString name="caron.cap">
          109 callgsubr
          165 -20 hstem
          522 636 -59 callgsubr
        </CharString>
        <CharString name="caron.ts1">
          843 568 -21 181 -20 hstem
          676 663 rmoveto
          -25 65 -231 -84 -207 76 -23 8 -25 -65 8 -6 247 -110 58 24 183 83 rlineto
          endchar
        </CharString>
        <CharString name="ccaron">
          24 callgsubr
          63 -21 207 -20 hstemhm
          74 callgsubr
          hintmask 11100110
          -78 callsubr
          hintmask 00011000
          -54 569 -51 callgsubr
        </CharString>
        <CharString name="ccedilla">
          619 -63 56 0 56 173 56 121 56 hstemhm
          74 callgsubr
          hintmask 01111100
          -78 callsubr
          -17 -222 rmoveto
          41 callsubr
          hintmask 10000000
          -52 44 callgsubr
          endchar
        </CharString>
        <CharString name="ccircumflex">
          24 callgsubr
          63 -21 207 -20 hstemhm
          74 callgsubr
          hintmask 11100110
          -78 callsubr
          hintmask 00011000
          -54 406 -60 callsubr
          endchar
        </CharString>
        <CharString name="cdotaccent">
          24 callgsubr
          62 167 hstemhm
          54 144 59 166 -11 144 hintmask 11101010
          -78 callsubr
          hintmask 00010100
          -148 487 -100 callgsubr
        </CharString>
        <CharString name="cedilla">
          -3 callgsubr
        </CharString>
        <CharString name="cedilla.dup">
          -3 callgsubr
        </CharString>
        <CharString name="cent">
          24 callgsubr
          hstemhm
          54 144 112 60 -30 144 -72 144 hintmask 10101010
          571 113 rmoveto
          21 -20 0 -16 -19 -8 0 -13 -6 vhcurveto
          -21 -11 -24 -51 -97 hhcurveto
          350 vlineto
          18 15 -1 -3 22 hvcurveto
          -9 -13 -4 -16 -16 vvcurveto
          hintmask 01000100
          -45 36 -27 36 vhcurveto
          hintmask 00101010
          33 39 24 49 94 -116 9 -70 1 hvcurveto
          49 vlineto
          hintmask 00000100
          17 -13 13 -17 vhcurveto
          hintmask 01011000
          -16 -14 -13 -17 hvcurveto
          -51 vlineto
          -208 -16 -48 -134 -81 vvcurveto
          -105 76 -110 180 -13 vhcurveto
          -54 vlineto
          hintmask 00000100
          -17 14 -13 16 vhcurveto
          hintmask 10011000
          17 13 13 17 hvcurveto
          53 vlineto
          34 2 48 6 40 20 rrcurveto
          55 29 24 51 12 vvcurveto
          -261 -57 rmoveto
          -98 24 -14 87 58 vvcurveto
          78 18 75 94 17 vhcurveto
          endchar
        </CharString>
        <CharString name="cent.oldstyle">
          24 callgsubr
          hstem
          74 callgsubr
          vstem
          571 113 rmoveto
          21 -20 0 -16 -19 -8 0 -13 -6 vhcurveto
          -21 -11 -24 -51 -97 hhcurveto
          -24 -21 3 4 -17 hvcurveto
          85 342 rlineto
          10 10 -1 -2 12 hvcurveto
          -9 -13 -4 -16 -16 vvcurveto
          -45 36 -27 36 33 39 24 49 78 -82 20 -67 4 vhcurveto
          11 44 rlineto
          19 5 -14 18 -20 hhcurveto
          -14 -12 -9 -13 -3 hvcurveto
          -14 -57 rlineto
          -238 -3 -54 -145 -85 vvcurveto
          -89 54 -92 125 -34 vhcurveto
          -15 -60 rlineto
          -19 -4 14 -18 19 hhcurveto
          14 12 10 13 3 hvcurveto
          16 63 rlineto
          -2 17 18 -1 19 hhcurveto
          31 64 2 26 51 hvcurveto
          55 29 24 51 12 vvcurveto
          -240 285 rmoveto
          -79 -315 rlineto
          -46 38 -8 60 44 vvcurveto
          83 20 80 113 10 vhcurveto
          endchar
        </CharString>
        <CharString name="centigrade">
          1293 451 79 0 79 0 79 hstem
          384 167 cntrmask 11100000
          1207 227 rmoveto
          18 -7 11 -20 vhcurveto
          -27 hlineto
          -23 -6 7 -20 -4 -17 rrcurveto
          -123 -15 -148 -42 -101 hhcurveto
          -23 hlineto
          -79 3 -82 21 -59 55 rrcurveto
          -60 56 -15 88 77 vvcurveto
          53 8 59 26 48 vhcurveto
          105 58 126 28 108 hhcurveto
          108 119 -78 -113 17 hvcurveto
          -20 5 3 -10 23 hhcurveto
          32 hlineto
          21 2 17 14 hvcurveto
          219 vlineto
          14 -1 18 -26 -17 -8 -10 -9 -11 vhcurveto
          -36 -31 rlineto
          -6 -7 -9 -11 -7 hhcurveto
          -7 -10 10 3 -7 hvcurveto
          37 -67 -74 17 -76 -8 -8 -1 -8 hhcurveto
          -24 -3 -24 0 -24 -3 rrcurveto
          -175 -24 -189 -109 -217 vvcurveto
          -15 vlineto
          4 -85 37 -83 63 -58 rrcurveto
          -87 96 136 -30 127 hhcurveto
          137 174 49 139 40 hvcurveto
          5 17 4 18 17 vvcurveto
          -897 311 rmoveto
          86 -64 64 -86 vhcurveto
          -5 -5 -1 -5 hhcurveto
          -87 -10 -48 -62 -78 vvcurveto
          -86 63 -64 85 91 61 68 83 vhcurveto
          -80 -1 rmoveto
          -42 -28 -29 -42 -40 -25 24 40 -6 vhcurveto
          8 vlineto
          42 28 29 42 40 25 -24 -40 6 vhcurveto
          endchar
        </CharString>
        <CharString name="circumflex">
          694 90 callgsubr
          524 519 -60 callsubr
          endchar
        </CharString>
        <CharString name="circumflex.cap">
          109 callgsubr
          165 -20 hstem
          522 519 -50 callgsubr
        </CharString>
        <CharString name="circumflex.dup">
          694 90 callgsubr
          524 519 -60 callsubr
          endchar
        </CharString>
        <CharString name="colon">
          394 0 167 110 167 hstem
          113 167 vstem
          280 360 9 callsubr
          -277 vmoveto
          44 callsubr
        </CharString>
        <CharString name="colonmonetary">
          134 callsubr
          265 60 vstem
          908 228 rmoveto
          27 -14 0 -22 -17 -17 0 -21 -1 vhcurveto
          -7 -144 -154 -43 -100 -1 rrcurveto
          594 vlineto
          84 -2 135 -40 31 -162 rrcurveto
          -17 3 16 0 14 hhcurveto
          15 hlineto
          29 5 4 30 hvcurveto
          213 vlineto
          19 0 15 -27 -13 -2 0 -11 -12 vhcurveto
          -67 -57 -45 30 -69 32 -97 5 rlinecurve
          47 vlineto
          17 -13 13 -17 -16 -14 -13 -17 vhcurveto
          -47 vlineto
          -289 -10 -143 -165 -181 vvcurveto
          -176 136 -169 296 -11 vhcurveto
          -47 vlineto
          -17 14 -13 16 17 13 13 17 vhcurveto
          47 vlineto
          204 8 128 108 125 vvcurveto
          -392 -179 rmoveto
          -61 6 -71 19 -56 51 rrcurveto
          -63 55 -14 91 72 vvcurveto
          113 31 60 44 45 vhcurveto
          33 33 64 34 93 9 rrcurveto
          endchar
        </CharString>
        <CharString name="comma">
          133 callgsubr
          hstemhm
          113 182 hintmask 00110000
          295 36 rmoveto
          74 -39 57 -60 -50 -33 -38 -45 -46 33 -38 51 21 18 8 4 6 vhcurveto
          -5 -51 -23 -60 -67 -49 rrcurveto
          hintmask 11010000
          -7 -4 -5 -4 -11 vvcurveto
          -12 15 -15 12 20 113 87 143 vhcurveto
          endchar
        </CharString>
        <CharString name="copyleft">
          66 callgsubr
          180 78 272 78 vstem
          -64 callgsubr
          -96 hmoveto
          68 -55 61 -112 -41 -29 -12 -12 -17 vhcurveto
          -25 20 rlineto
          4 -4 -1 0 -4 hhcurveto
          -10 0 -5 -7 hvcurveto
          -77 vlineto
          -11 2 -1 10 vhcurveto
          6 hlineto
          5 5 0 6 1 hvcurveto
          60 12 51 14 30 hhcurveto
          44 31 -15 -14 14 hvcurveto
          16 -16 11 -22 -41 vvcurveto
          -26 -5 -33 -23 -20 vhcurveto
          -25 -27 -36 -4 -26 hhcurveto
          -36 -57 16 53 -3 hvcurveto
          7 -6 0 -6 -8 -5 0 -10 -47 50 -40 80 115 53 63 66 vhcurveto
          endchar
        </CharString>
        <CharString name="copyright">
          66 callgsubr
          273 78 179 78 vstem
          -64 callgsubr
          -136 -42 rmoveto
          10 -5 0 -8 -6 -6 0 -7 vhcurveto
          -53 -3 -57 -16 -36 hhcurveto
          -25 -37 4 25 -27 hvcurveto
          -23 20 -5 33 26 vvcurveto
          41 12 22 15 16 vhcurveto
          14 15 30 15 44 hhcurveto
          30 51 -14 -60 12 hvcurveto
          -6 1 6 0 5 hhcurveto
          5 hlineto
          11 1 1 11 hvcurveto
          77 vlineto
          7 0 5 -9 -5 -1 0 -4 -4 vhcurveto
          -24 -20 rlineto
          12 -18 -29 12 -40 hhcurveto
          -113 -55 -61 -68 -66 53 -63 115 80 50 40 47 hvcurveto
          endchar
        </CharString>
        <CharString name="copyright.alt">
          905 -230 78 749 78 hstem
          0 78 545 78 126 78 vstem
          905 222 rmoveto
          278 -175 175 -278 -277 -175 -175 -278 -277 175 -175 277 278 175 175 277 vhcurveto
          -78 hmoveto
          -229 -145 -145 -230 -229 -145 145 229 230 145 145 229 230 145 -145 -230 vhcurveto
          -126 -74 rmoveto
          17 -9 0 -14 -11 -11 0 -13 -1 vhcurveto
          -95 -4 -103 -27 -64 hhcurveto
          -45 -65 7 44 -49 hvcurveto
          -40 36 -9 59 46 vvcurveto
          73 20 39 28 29 vhcurveto
          26 25 54 26 79 hhcurveto
          54 91 -25 -108 21 hvcurveto
          -11 2 10 0 9 hhcurveto
          10 hlineto
          19 3 3 19 hvcurveto
          138 vlineto
          13 0 9 -17 -9 -1 0 -7 -8 vhcurveto
          -43 -37 rlineto
          22 -32 -51 22 -73 hhcurveto
          -201 -99 -110 -121 -118 95 -113 207 142 90 72 85 hvcurveto
          endchar
        </CharString>
        <CharString name="currency">
          1069 -59 -20 37 78 390 78 -40 78 -60 78 hstemhm
          224 78 -59 78 -41 78 390 78 hintmask 0000100000000000
          852 568 rmoveto
          -29 28 -27 -27 -9 -9 -77 -77 rcurveline
          hintmask 0001000000000000
          37 -49 -61 22 -66 hhcurveto
          hintmask 0000100100000000
          -66 -61 -22 -38 -49 hvcurveto
          -78 78 -7 7 -29 29 -28 -27 rlinecurve
          hintmask 0010010000000000
          -28 -29 28 -28 8 -8 78 -78 rcurveline
          hintmask 0000001000000000
          -37 -49 -22 -61 -66 vvcurveto
          -66 21 -61 37 -49 vhcurveto
          hintmask 0000010000000000
          -77 -77 -8 -8 -28 -28 27 -28 rlinecurve
          hintmask 1110000110000000
          29 -28 27 27 9 9 77 77 rcurveline
          -37 49 62 -23 66 hhcurveto
          66 62 22 38 49 hvcurveto
          76 -77 7 -7 29 -29 28 27 rlinecurve
          28 29 -28 28 -8 8 -77 76 rcurveline
          38 49 22 62 66 vvcurveto
          67 -22 61 -38 49 vhcurveto
          77 77 8 8 28 28 -27 28 rlinecurve
          -104 -318 rmoveto
          -118 -96 -96 -118 vhcurveto
          hintmask 0001001010000000
          -118 -95 96 118 118 95 96 118 118 96 -96 -118 hvcurveto
          endchar
        </CharString>
        <CharString name="cwm">
          0 endchar
        </CharString>
        <CharString name="cwmascender">
          0 endchar
        </CharString>
        <CharString name="cwmcapital">
          0 endchar
        </CharString>
        <CharString name="d">
          106 callsubr
          175 39 callgsubr
          hintmask 01001001
          46 callgsubr
          hintmask 10110101
          -21 callsubr
          hintmask 01000000
          131 vmoveto
          hintmask 10100110
          -17 callgsubr
          endchar
        </CharString>
        <CharString name="dagger">
          511 388 111 203 -20 hstemhm
          200 111 -32 111 hintmask 10010000
          447 443 rmoveto
          142 callsubr
          -33 -16 -9 -2 -13 -3 3 28 7 23 9 27 rrcurveto
          hintmask 11100000
          11 36 11 37 33 vvcurveto
          49 -37 10 -18 -22 -34 -13 -46 -33 11 -36 10 -32 vhcurveto
          10 -33 7 -23 3 -27 -10 2 -11 3 -19 9 rrcurveto
          12 -24 -29 14 -27 105 callsubr
          33 16 9 2 13 3 -3 -27 -10 -28 -7 -20 rrcurveto
          -21 -64 0 -15 -43 vvcurveto
          -129 10 -130 16 -128 vhcurveto
          2 -16 4 -28 3 -4 rrcurveto
          -7 3 8 0 9 hhcurveto
          hintmask 00010000
          11 10 0 11 3 hvcurveto
          hintmask 00100000
          2 12 30 208 211 vvcurveto
          46 0 12 -23 70 vhcurveto
          -7 21 -8 25 -3 23 10 -2 11 -3 19 -9 rrcurveto
          hintmask 10010000
          -12 24 29 -14 27 hhcurveto
          41 16 30 25 hvcurveto
          endchar
        </CharString>
        <CharString name="daggerdbl">
          511 -32 111 323 111 -92 110 171 -20 hstemhm
          200 111 hintmask 00100000
          447 476 rmoveto
          28 -19 27 -37 vhcurveto
          hintmask 01011000
          -18 -23 -6 -12 -24 hvcurveto
          -32 -15 -6 -2 -17 -4 3 18 1 8 13 33 rrcurveto
          13 34 10 31 28 vvcurveto
          44 -34 14 -21 -26 -30 -16 -42 -31 14 -36 10 -27 vhcurveto
          12 -33 1 -6 3 -19 -15 4 -6 1 -19 9 rrcurveto
          hintmask 00101000
          12 -24 -28 13 -28 hhcurveto
          -37 -19 -27 -28 -13 6 -42 51 13 16 0 24 49 hvcurveto
          20 10 5 1 16 4 -3 -18 -1 -8 -13 -33 rrcurveto
          -13 -34 -10 -31 -28 vvcurveto
          -44 34 -14 21 26 30 16 42 vhcurveto
          hintmask 01001000
          31 -14 36 -10 27 vhcurveto
          -12 33 -1 6 -3 19 15 -4 6 -1 19 -9 rrcurveto
          hintmask 10101000
          -21 42 17 -4 20 hhcurveto
          51 6 42 13 hvcurveto
          -453 vmoveto
          142 callsubr
          -28 -13 -12 -4 -14 -4 3 20 1 6 16 44 rrcurveto
          14 36 6 25 21 vvcurveto
          44 -34 14 -21 -26 -30 -16 -42 -28 11 -31 11 -30 vhcurveto
          14 -37 1 -7 3 -19 -13 3 -11 4 -15 8 rrcurveto
          12 -26 -28 13 -26 105 callsubr
          22 10 16 7 16 4 -3 -20 -1 -6 -16 -44 rrcurveto
          -14 -36 -6 -25 -21 vvcurveto
          -44 34 -14 21 26 30 16 42 28 -11 31 -11 30 vhcurveto
          -14 37 -1 7 -3 19 18 -5 15 -7 23 -10 rrcurveto
          -9 18 24 -9 21 hhcurveto
          41 16 30 25 hvcurveto
          endchar
        </CharString>
        <CharString name="dblbracketleft">
          562 -249 79 842 79 hstem
          155 79 90 79 vstem
          522 -249 rmoveto
          79 -119 842 119 79 -367 -1000 vlineto
          169 79 rmoveto
          -90 842 90 hlineto
          endchar
        </CharString>
        <CharString name="dblbracketright">
          562 -249 79 842 79 hstem
          157 79 90 79 vstem
          405 -249 rmoveto
          1000 -366 -79 118 -842 -118 -79 vlineto
          287 79 rmoveto
          -90 842 90 hlineto
          endchar
        </CharString>
        <CharString name="dblgrave.ts1">
          693 531 -21 200 -20 hstem
          296 555 rmoveto
          13 callsubr
          224 hmoveto
          13 callsubr
          endchar
        </CharString>
        <CharString name="dblverticalbar">
          553 750 -20 hstem
          129 61 173 61 vstem
          190 -206 rmoveto
          23 callgsubr
          234 hmoveto
          23 callgsubr
          endchar
        </CharString>
        <CharString name="dcaron">
          106 callsubr
          -7 125 0 125 -68 39 callgsubr
          hintmask 0100001001000000
          46 callgsubr
          hintmask 1010010101000000
          -21 callsubr
          hintmask 0100000000000000
          131 vmoveto
          hintmask 1010001110000000
          -17 callgsubr
          316 277 rmoveto
          55 -29 43 -45 -38 -24 -28 -34 vhcurveto
          hintmask 0000100000000000
          -35 24 -28 39 15 14 6 3 4 vhcurveto
          -3 -38 -18 -45 -50 -37 rrcurveto
          hintmask 0001000000000000
          -17 callsubr
          -53 callgsubr
        </CharString>
        <CharString name="dcroat">
          106 callsubr
          58 60 57 39 callgsubr
          hintmask 0101010010000000
          701 71 callsubr
          410 69 60 -69 125 vlineto
          hintmask 1011101010000000
          -192 -88 callsubr
          -18 -202 -60 202 -100 vlineto
          18 -29 -54 24 -78 hhcurveto
          -194 -100 -106 -124 -119 93 -109 187 73 57 23 25 38 hvcurveto
          -48 vlineto
          hintmask 0100000000000000
          131 vmoveto
          hintmask 1010001100000000
          -17 callgsubr
          endchar
        </CharString>
        <CharString name="ddotbelow">
          106 callsubr
          175 60 -60 68 hstemhm
          54 144 103 166 -122 144 20 123 hintmask 0100100010000000
          46 callgsubr
          hintmask 1011010010000000
          -21 callsubr
          hintmask 0100000000000000
          131 vmoveto
          hintmask 1010010100000000
          -17 callgsubr
          hintmask 0000001000000000
          -35 -436 -100 callgsubr
        </CharString>
        <CharString name="degree">
          520 311 78 219 78 hstem
          73 78 219 78 vstem
          448 499 rmoveto
          103 -84 84 -104 -103 -84 -84 -103 -104 84 -84 103 104 84 84 104 vhcurveto
          -78 hmoveto
          -61 -49 -49 -61 -60 -49 49 61 60 49 49 60 61 49 -49 -60 vhcurveto
          endchar
        </CharString>
        <CharString name="diameter">
          1069 -185 78 716 78 hstem
          98 78 716 78 vstem
          983 661 rmoveto
          22 -17 17 -22 -11 -10 -4 -7 -7 vhcurveto
          -103 -103 rlineto
          63 -75 -98 38 -106 hhcurveto
          -241 -195 -195 -241 -106 38 -98 63 -75 hvcurveto
          -104 -104 rlineto
          -7 -7 -4 -10 -11 vvcurveto
          -22 17 -17 22 11 10 4 7 7 vhcurveto
          104 104 rlineto
          -63 75 98 -38 106 hhcurveto
          241 195 195 241 106 -38 98 -63 75 hvcurveto
          103 103 rlineto
          7 7 4 10 11 vvcurveto
          -91 -410 rmoveto
          -198 -160 -160 -198 -85 -78 29 50 -61 vhcurveto
          503 503 rlineto
          50 -61 29 -78 -85 vvcurveto
          -134 279 rmoveto
          -503 -503 rlineto
          -50 61 -29 78 85 vvcurveto
          198 160 160 198 85 78 -29 -50 61 vhcurveto
          endchar
        </CharString>
        <CharString name="died">
          693 -3 -21 356 90 -80 71 195 -20 hstemhm
          61 97 139 97 -83 97 hintmask 00110010
          639 365 rmoveto
          25 vlineto
          16 -4 17 -21 -16 -19 -2 -2 -17 vhcurveto
          -4 -56 -57 -2 -56 hhcurveto
          53 6 53 9 52 vhcurveto
          1 5 2 4 5 vvcurveto
          12 -10 10 -12 1 vhcurveto
          -78 hlineto
          -13 -18 -4 -19 -5 2 -4 1 -5 hvcurveto
          9 -52 6 -53 -53 vvcurveto
          hintmask 01001000
          -68 5 -67 -2 -68 6 rrcurveto
          -4 -3 1 -3 hhcurveto
          -17 -7 -13 -15 hvcurveto
          -6 vlineto
          -6 -1 -7 -8 vvcurveto
          -19 4 -17 24 23 24 4 1 23 vhcurveto
          hintmask 10100100
          47 3 47 -1 46 3 rrcurveto
          -1 -5 0 -6 -5 vvcurveto
          -16 vlineto
          -99 -6 -103 -10 -97 vhcurveto
          -8 vlineto
          -14 5 -13 22 vhcurveto
          83 hlineto
          12 3 8 9 14 vvcurveto
          hintmask 00000010
          8 -2 9 -1 7 vhcurveto
          hintmask 00100100
          -8 94 -6 95 94 vvcurveto
          16 vlineto
          5 0 6 -1 6 vhcurveto
          66 66 -4 -4 66 hvcurveto
          hintmask 01000000
          -1 7 7 -1 7 hhcurveto
          24 3 16 17 hvcurveto
          endchar
        </CharString>
        <CharString name="dieresis">
          132 callgsubr
          150 hstem
          136 29 callsubr
          vstem
          -40 callsubr
          endchar
        </CharString>
        <CharString name="dieresis.cap">
          694 495 150 hstem
          111 34 callgsubr
          vstem
          -5 callsubr
          endchar
        </CharString>
        <CharString name="dieresis.dup">
          132 callgsubr
          150 hstem
          136 29 callsubr
          vstem
          -40 callsubr
          endchar
        </CharString>
        <CharString name="dieresis.ts1">
          693 544 152 hstem
          139 151 111 151 vstem
          290 621 rmoveto
          36 -27 39 -50 vhcurveto
          -7 hlineto
          -36 -7 -31 -26 -43 vvcurveto
          -41 32 -35 45 vhcurveto
          7 hlineto
          44 8 23 33 36 vvcurveto
          262 -1 rmoveto
          41 -32 35 -45 vhcurveto
          -7 hlineto
          -44 -8 -23 -33 -36 vvcurveto
          -36 27 -39 50 vhcurveto
          7 hlineto
          36 7 31 26 43 vvcurveto
          endchar
        </CharString>
        <CharString name="discount">
          693 22 -21 23 200 305 199 22 -20 21 -20 hstemhm
          147 199 0 199 hintmask 00001000
          607 712 rmoveto
          21 -18 18 -21 vhcurveto
          hintmask 11110010
          -7 -1 -21 -3 -9 -19 -11 -16 rlinecurve
          -70 -106 -165 -249 -176 -266 rlineto
          -10 -15 -15 -17 -18 vvcurveto
          -21 18 -19 22 23 11 19 17 11 vhcurveto
          378 571 39 60 rlineto
          10 14 11 13 17 vvcurveto
          -62 -588 rmoveto
          -52 -41 -42 -50 -6 vhcurveto
          -9 hlineto
          -60 -41 49 51 52 41 42 50 6 hvcurveto
          9 hlineto
          60 41 -49 -51 hvcurveto
          -199 504 rmoveto
          -56 -44 -39 -53 -4 vhcurveto
          -6 hlineto
          hintmask 00100100
          -56 -40 49 51 56 44 39 53 4 hvcurveto
          6 hlineto
          56 40 -49 -51 hvcurveto
          endchar
        </CharString>
        <CharString name="divide">
          1069 -109 167 153 79 153 167 hstem
          450 167 cntrmask 11100000
          983 251 19 callsubr
          -366 275 9 callsubr
          -552 vmoveto
          44 callsubr
        </CharString>
        <CharString name="divorced">
          693 -92 -21 141 92 -91 91 0 92 -54 92 3 92 -91 91 37 91 141 -20 21 -20 hstemhm
          -261 90 335 78 -57 127 -29 127 -112 101 10 101 -61 78 173 127 33 92 hintmask 010000010010100000000000
          242 250 rmoveto
          56 -19 55 -38 41 vhcurveto
          54 -51 -77 17 -71 hhcurveto
          -13 hlineto
          -69 -8 -69 -16 -46 -57 rrcurveto
          -33 -39 -17 -51 -50 vvcurveto
          -58 22 -59 43 -41 vhcurveto
          -47 49 71 -19 68 hhcurveto
          hintmask 000010010001000010000000
          123 127 71 151 hvcurveto
          710 1 rmoveto
          154 -130 68 -132 vhcurveto
          -13 hlineto
          -107 -13 -121 -53 -155 vvcurveto
          hintmask 001001000000001100100000
          -57 20 -58 41 -41 vhcurveto
          -48 49 71 -19 68 hhcurveto
          128 126 71 151 hvcurveto
          -542 -335 rmoveto
          57 -11 55 56 43 -5 44 43 vvcurveto
          39 vlineto
          -1 19 0 18 19 vvcurveto
          91 3 91 13 90 vhcurveto
          hintmask 000000000100010000000000
          4 1 4 3 vvcurveto
          20 -17 3 -12 vhcurveto
          hintmask 000000000100100000000000
          -69 hlineto
          hintmask 000000001000001000000000
          -5 -5 0 -1 -4 hvcurveto
          -12 -5 -15 -10 hvcurveto
          hintmask 000000000000010000000000
          -7 1 -8 1 -7 vhcurveto
          hintmask 000101000000001000000000
          10 -85 5 -87 -86 -19 -1 -19 -18 vvcurveto
          -41 vlineto
          hintmask 000000000000010000000000
          -14 -272 rlineto
          -1 -7 -1 -9 -9 vvcurveto
          hintmask 100000000000100000000000
          -26 15 -2 16 vhcurveto
          67 hlineto
          hintmask 001010110011010011100000
          26 5 11 18 hvcurveto
          451 339 rmoveto
          -6 0 -5 -1 -6 vhcurveto
          -96 -7 -78 -22 -75 hhcurveto
          -72 -101 13 121 hvcurveto
          11 vlineto
          104 13 85 13 72 hhcurveto
          42 54 -4 -33 34 hvcurveto
          24 -23 10 -34 -33 vvcurveto
          -697 -1 rmoveto
          -112 -91 -22 -82 -42 -53 6 32 -33 vhcurveto
          -22 22 -8 29 -3 30 rrcurveto
          4 -1 5 4 vvcurveto
          98 76 32 89 71 84 -12 -105 15 vhcurveto
          endchar
        </CharString>
        <CharString name="dlinebelow">
          769 -149 67 75 51 -44 60 340 51 175 39 callgsubr
          hintmask 0010010010000000
          46 callgsubr
          hintmask 0101101010000000
          -21 callsubr
          hintmask 0010000000000000
          131 vmoveto
          hintmask 0101001100000000
          -17 callgsubr
          hintmask 1000000000000000
          126 -468 -25 callgsubr
        </CharString>
        <CharString name="dollar">
          694 -35 -21 179 141 180 140 166 -20 hstem
          84 93 139 60 139 93 cntrmask 00001110
          608 212 rmoveto
          61 -26 50 -44 41 vhcurveto
          -56 50 -66 12 -40 7 rrcurveto
          207 vlineto
          25 -2 76 -6 38 -47 rrcurveto
          -25 -7 -26 -23 -39 vvcurveto
          -45 35 -27 37 29 43 18 57 156 -166 22 -66 3 vhcurveto
          50 -60 -50 vlineto
          -192 -14 -40 -124 -66 vvcurveto
          -63 31 -45 36 -31 vhcurveto
          54 -48 55 -10 56 -10 rrcurveto
          -235 vlineto
          -30 2 -76 9 -36 57 rrcurveto
          30 8 24 25 37 vvcurveto
          45 -35 27 -37 -25 -47 -15 -61 -95 66 -90 166 -9 vhcurveto
          -50 60 50 vlineto
          164 12 68 106 100 vvcurveto
          -292 232 rmoveto
          -109 18 -30 43 37 vvcurveto
          48 46 43 93 7 vhcurveto
          199 -474 rmoveto
          -64 -59 -42 -80 -6 vhcurveto
          223 vlineto
          94 -14 45 -48 -49 vvcurveto
          endchar
        </CharString>
        <CharString name="dollar.oldstyle">
          843 -6 59 -58 60 -58 59 hstemhm
          84 93 -93 144 76 60 113 60 76 144 -94 94 cntrmask 1110000000000000
          hintmask 1110001010000000
          757 212 rmoveto
          94 -63 73 -157 39 vhcurveto
          217 vlineto
          23 -3 18 -2 6 -2 30 -7 27 -13 22 -22 rrcurveto
          hintmask 1110111100000000
          -30 -11 -20 -25 -34 vvcurveto
          -44 36 -27 37 45 26 38 38 106 -73 52 -147 17 vhcurveto
          55 -60 -50 vlineto
          1 -18 -20 0 -20 hhcurveto
          -18 -18 -1 -1 -19 hvcurveto
          51 -60 -59 vlineto
          -112 -21 -108 -56 -119 vvcurveto
          -89 71 -67 149 -37 vhcurveto
          -242 vlineto
          -31 6 -35 9 -43 15 -19 33 rlinecurve
          33 5 19 35 28 vvcurveto
          40 -31 33 -40 -41 -32 -30 -47 -116 90 -51 105 -17 vhcurveto
          9 -2 8 -1 8 -1 rrcurveto
          -55 60 50 vlineto
          -1 16 18 0 20 hhcurveto
          19 20 1 2 20 hvcurveto
          -52 60 61 vlineto
          113 23 107 60 123 vvcurveto
          -280 219 rmoveto
          -17 3 -19 3 -19 2 -58 7 rcurveline
          194 vlineto
          2 18 18 1 18 hhcurveto
          19 20 -1 -1 20 hvcurveto
          -173 -184 rmoveto
          hintmask 1111011010000000
          -66 14 -61 24 49 vvcurveto
          41 54 31 73 16 vhcurveto
          359 -466 rmoveto
          -54 -58 -31 -68 -16 vhcurveto
          199 vlineto
          84 -21 42 -32 -45 vvcurveto
          -186 -110 rmoveto
          -2 -20 -20 -1 -18 hhcurveto
          -19 -18 1 1 -18 hvcurveto
          237 vlineto
          18 -3 18 -3 20 -2 20 -2 19 -3 18 -3 rrcurveto
          endchar
        </CharString>
        <CharString name="dong">
          769 -60 60 hstem
          666 35 rmoveto
          57 vlineto
          -59 -7 0 37 hvcurveto
          389 66 57 -66 119 vlineto
          -182 -8 rlineto
          -57 vlineto
          59 7 0 -37 hvcurveto
          -17 -192 -57 192 -95 vlineto
          17 -28 -51 23 -74 hhcurveto
          -185 -95 -101 -117 -113 89 -104 177 70 54 22 24 36 hvcurveto
          -46 vlineto
          189 -58 rmoveto
          17 -13 13 -17 vhcurveto
          -555 hlineto
          -16 -14 -13 -17 -17 14 -13 16 hvcurveto
          555 hlineto
          17 13 13 17 hvcurveto
          -189 183 rmoveto
          -56 -41 -57 -20 -51 hhcurveto
          -140 0 114 53 53 0 118 153 55 43 -22 -26 26 hvcurveto
          11 -11 1 -1 -17 vvcurveto
          endchar
        </CharString>
        <CharString name="dotaccent">
          394 517 145 callgsubr
          600 -100 callgsubr
        </CharString>
        <CharString name="dotaccent.alt">
          394 482 145 callgsubr
          565 -100 callgsubr
        </CharString>
        <CharString name="dotaccent.cap">
          394 495 145 callgsubr
          578 -100 callgsubr
        </CharString>
        <CharString name="dotlessi">
          394 0 -20 callgsubr
          hstemhm
          149 123 hintmask 10110000
          335 hmoveto
          60 -63 391 vlineto
          hintmask 11010000
          -61 callgsubr
          endchar
        </CharString>
        <CharString name="dotlessj">
          35 callgsubr
          hstemhm
          -49 144 107 123 hintmask 01111000
          325 -36 -68 callgsubr
          vhcurveto
          hintmask 10001000
          17 callsubr
          endchar
        </CharString>
        <CharString name="e">
          -46 callsubr
          hstemhm
          46 101 callgsubr
          18 118 callgsubr
          hintmask 1100100100000000
          586 113 rmoveto
          23 -22 0 -14 -16 -10 0 -13 -7 vhcurveto
          -19 -9 -29 -55 -107 hhcurveto
          -148 -30 83 72 -3 hvcurveto
          359 hlineto
          hintmask 0001010010000000
          -61 callsubr
          hintmask 1000101000000000
          -206 -83 -120 -109 -115 91 -118 216 38 55 3 24 52 hvcurveto
          hintmask 0110010010000000
          62 27 26 52 14 vvcurveto
          -100 138 rmoveto
          -296 hlineto
          69 2 25 84 118 hhcurveto
          99 47 -56 -97 5 hvcurveto
          endchar
        </CharString>
        <CharString name="eacute">
          -46 callsubr
          65 -21 203 -93 callgsubr
          2 380 -89 callgsubr
        </CharString>
        <CharString name="ebreve">
          -46 callsubr
          51 77 113 -93 callgsubr
          44 445 -87 callgsubr
        </CharString>
        <CharString name="ecaron">
          -46 callsubr
          63 -21 207 -93 callgsubr
          8 431 -51 callgsubr
        </CharString>
        <CharString name="ecircumflex">
          -46 callsubr
          63 -21 207 -93 callgsubr
          8 268 -60 callsubr
          endchar
        </CharString>
        <CharString name="ecircumflexacute">
          -46 callsubr
          63 -21 374 -93 callgsubr
          6 270 -65 callgsubr
        </CharString>
        <CharString name="ecircumflexdotbelow">
          -46 callsubr
          63 -21 207 -20 40 callgsubr
          hintmask 1100001000100000
          586 113 rmoveto
          23 -22 0 -14 -16 -10 0 -13 -7 vhcurveto
          -19 -9 -29 -55 -107 hhcurveto
          -148 -30 83 72 -3 hvcurveto
          359 hlineto
          hintmask 0001000100010000
          -61 callsubr
          hintmask 1000001001000000
          -206 -83 -120 -109 -115 91 -118 216 38 55 3 24 52 hvcurveto
          hintmask 0110110100010000
          62 27 26 52 14 vvcurveto
          -100 138 rmoveto
          -296 hlineto
          69 2 25 84 118 hhcurveto
          99 47 -56 -97 5 hvcurveto
          8 268 -60 callsubr
          hintmask 0000000010000000
          -74 -614 -100 callgsubr
        </CharString>
        <CharString name="ecircumflexgrave">
          -46 callsubr
          63 -21 165 -93 callgsubr
          6 270 -70 callsubr
        </CharString>
        <CharString name="ecircumflexhookabove">
          -46 callsubr
          63 -21 370 -97 callsubr
          hintmask 0000110000100000
          6 270 -95 callsubr
          104 305 -107 callgsubr
        </CharString>
        <CharString name="ecircumflextilde">
          -46 callsubr
          63 -21 220 131 callsubr
          46 101 callgsubr
          18 118 callgsubr
          hintmask 1100000100100000
          586 113 rmoveto
          23 -22 0 -14 -16 -10 0 -13 -7 vhcurveto
          -19 -9 -29 -55 -107 hhcurveto
          -148 -30 83 72 -3 hvcurveto
          359 hlineto
          hintmask 0001000010010000
          -61 callsubr
          hintmask 1000000101000000
          -206 -83 -120 -109 -115 91 -118 216 38 55 3 24 52 hvcurveto
          hintmask 0110000010010000
          62 27 26 52 14 vvcurveto
          -100 138 rmoveto
          -296 hlineto
          69 2 25 84 118 hhcurveto
          99 47 -56 -97 5 hvcurveto
          hintmask 0000101000000000
          6 270 60 callgsubr
          hintmask 0000010000000000
          -78 callgsubr
          hintmask 0000001000000000
          -92 callsubr
          hintmask 0000010000000000
          34 -38 rlineto
          hintmask 0000001000000000
          -79 callsubr
          hintmask 0000010000000000
          -94 callgsubr
        </CharString>
        <CharString name="edblgrave">
          -46 callsubr
          65 -21 203 -93 callgsubr
          9 294 -94 callsubr
        </CharString>
        <CharString name="edieresis">
          -46 callsubr
          71 150 hstemhm
          46 145 -85 149 -65 145 18 145 -126 145 -138 149 -42 100 hintmask 1100010001000000
          586 113 rmoveto
          23 -22 0 -14 -16 -10 0 -13 -7 vhcurveto
          -19 -9 -29 -55 -107 hhcurveto
          -148 -30 83 72 -3 hvcurveto
          359 hlineto
          hintmask 0001000100010000
          -61 callsubr
          hintmask 1000010010000000
          -206 -83 -120 -109 -115 91 -118 216 38 55 3 24 52 hvcurveto
          hintmask 0110000100010000
          62 27 26 52 14 vvcurveto
          -100 138 rmoveto
          -296 hlineto
          69 2 25 84 118 hhcurveto
          99 47 -56 -97 5 hvcurveto
          hintmask 0000101000100000
          -231 349 -60 callgsubr
        </CharString>
        <CharString name="edotaccent">
          -46 callsubr
          62 167 40 callgsubr
          hintmask 1100010001000000
          586 113 rmoveto
          23 -22 0 -14 -16 -10 0 -13 -7 vhcurveto
          -19 -9 -29 -55 -107 hhcurveto
          -148 -30 83 72 -3 hvcurveto
          359 hlineto
          hintmask 0001001000100000
          -61 callsubr
          hintmask 1000010010000000
          -206 -83 -120 -109 -115 91 -118 216 38 55 3 24 52 hvcurveto
          hintmask 0110001000100000
          62 27 26 52 14 vvcurveto
          -100 138 rmoveto
          -296 hlineto
          69 2 25 84 118 hhcurveto
          99 47 -56 -97 5 hvcurveto
          hintmask 0000100100000000
          -86 349 -100 callgsubr
        </CharString>
        <CharString name="edotbelow">
          -46 callsubr
          40 callgsubr
          hintmask 1100100010000000
          586 113 rmoveto
          23 -22 0 -14 -16 -10 0 -13 -7 vhcurveto
          -19 -9 -29 -55 -107 hhcurveto
          -148 -30 83 72 -3 hvcurveto
          359 hlineto
          hintmask 0001010001000000
          -61 callsubr
          hintmask 1000100100000000
          -206 -83 -120 -109 -115 91 -118 216 38 55 3 24 52 hvcurveto
          hintmask 0110010001000000
          62 27 26 52 14 vvcurveto
          -100 138 rmoveto
          -296 hlineto
          69 2 25 84 118 hhcurveto
          99 47 -56 -97 5 hvcurveto
          hintmask 0000001000000000
          -86 -368 -100 callgsubr
        </CharString>
        <CharString name="egrave">
          -46 callsubr
          65 -21 203 -97 callsubr
          hintmask 0000111000000000
          -83 308 -62 callgsubr
        </CharString>
        <CharString name="ehookabove">
          -46 callsubr
          72 -21 190 -93 callgsubr
          -38 380 -107 callgsubr
        </CharString>
        <CharString name="eight">
          694 -14 55 567 50 hstemhm
          65 53 callsubr
          627 -74 callgsubr
        </CharString>
        <CharString name="eight.oldstyle">
          762 -14 55 567 50 hstemhm
          100 53 callsubr
          662 -74 callgsubr
        </CharString>
        <CharString name="eight.prop">
          762 -14 55 567 50 hstemhm
          100 53 callsubr
          662 -74 callgsubr
        </CharString>
</ttFont>
